<svg width="1150" height="1150" viewBox="0 0 1150 1150" fill="none" xmlns="http://www.w3.org/2000/svg">
<path opacity="0.25" d="M932.669 646.1C918.677 637.948 908.542 637.727 902.262 645.439C895.982 653.041 892.898 665.931 892.898 684.109V782.049C892.898 800.668 891.135 816.092 887.72 828.32C884.304 840.99 878.465 850.024 870.423 855.312C862.601 860.71 852.025 862.142 838.584 859.609C825.474 857.185 809.059 850.354 789.448 839.007L780.084 833.609V756.49L791.762 763.21C805.753 771.363 815.118 772.354 819.855 766.405C824.813 760.676 827.347 748.668 827.347 730.49V644.227C827.347 621.753 829.55 604.015 833.957 590.905C838.364 577.795 847.067 569.532 860.177 565.787C847.067 546.948 838.364 528.549 833.957 510.481C829.55 492.414 827.457 472.142 827.457 449.668V363.405C827.457 345.227 824.923 330.464 819.965 318.897C815.338 307.549 805.974 297.854 791.872 289.702L780.194 282.981V205.863L789.559 211.261C809.169 222.609 825.584 234.617 838.694 247.397C852.135 260.287 862.711 274.058 870.533 288.49C878.686 303.142 884.414 318.787 887.83 335.422C891.245 351.617 893.008 369.134 893.008 387.642V485.583C893.008 503.761 896.092 520.287 902.372 535.049C908.652 549.922 918.787 561.38 932.779 569.422L932.669 646.1Z" fill="url(#paint0_linear)"/>
<path opacity="0.25" d="M577.372 362.414C591.363 370.566 601.499 370.787 607.779 363.075C614.058 355.473 617.143 342.583 617.143 324.405V226.465C617.143 207.846 618.906 192.422 622.321 180.194C625.736 167.524 631.355 158.38 639.177 152.982C647.33 147.694 657.906 146.261 671.016 148.685C684.457 151.219 700.982 158.16 720.592 169.507L729.957 174.905V252.024L718.279 245.304C704.287 237.151 694.702 236.049 689.745 241.778C685.118 247.727 682.694 259.736 682.694 277.914V364.177C682.694 386.651 680.491 404.388 676.084 417.499C671.677 430.499 662.974 438.872 649.863 442.617C662.974 461.456 671.677 479.855 676.084 497.922C680.491 515.99 682.584 536.261 682.584 558.736V644.999C682.584 663.177 684.897 677.939 689.635 689.287C694.592 700.855 704.177 710.66 718.168 718.702L729.846 725.422V802.541L720.482 797.143C700.872 785.795 684.346 773.677 670.906 760.787C657.796 748.007 647.219 734.346 639.067 719.694C631.245 705.261 625.626 689.727 622.211 672.982C618.796 656.787 617.033 639.27 617.033 620.761V522.821C617.033 504.643 613.948 488.117 607.669 473.355C601.389 458.482 591.253 447.024 577.262 438.982L577.372 362.414Z" fill="url(#paint1_linear)"/>
<path d="M888.6 679.151C874.609 670.998 864.473 670.778 858.194 678.49C851.914 686.092 848.829 698.981 848.829 717.159V815.1C848.829 833.719 847.066 849.142 843.651 861.371C840.236 874.041 834.397 883.075 826.355 888.363C818.533 893.761 807.956 895.193 794.516 892.659C781.405 890.236 764.99 883.405 745.38 872.058L736.016 866.659V789.541L747.694 796.261C761.685 804.414 771.049 805.405 775.787 799.456C780.744 793.727 783.278 781.719 783.278 763.541V677.278C783.278 654.803 785.482 637.066 789.889 623.956C794.295 610.846 802.999 602.583 816.109 598.837C802.999 579.998 794.295 561.6 789.889 543.532C785.482 525.464 783.389 505.193 783.389 482.719V396.456C783.389 378.278 780.855 363.515 775.897 351.947C771.27 340.6 761.905 330.905 747.804 322.753L736.126 316.032V238.914L745.49 244.312C765.1 255.659 781.516 267.668 794.626 280.447C808.066 293.337 818.643 307.108 826.465 321.541C834.617 336.193 840.346 351.837 843.761 368.473C847.177 384.668 848.939 402.185 848.939 420.693V518.634C848.939 536.812 852.024 553.337 858.304 568.1C864.583 582.973 874.719 594.431 888.711 602.473L888.6 679.151Z" fill="url(#paint2_linear)"/>
<path d="M533.305 395.465C547.297 403.617 557.433 403.838 563.712 396.126C569.992 388.524 573.077 375.634 573.077 357.456V259.516C573.077 240.897 574.839 225.473 578.255 213.244C581.67 200.575 587.289 191.431 595.111 186.032C603.263 180.744 613.839 179.312 626.95 181.736C640.39 184.27 656.916 191.21 676.526 202.558L685.89 207.956V285.075L674.212 278.355C660.221 270.202 650.636 269.1 645.678 274.829C641.051 280.778 638.628 292.787 638.628 310.965V397.227C638.628 419.702 636.424 437.439 632.017 450.549C627.611 463.549 618.907 471.922 605.797 475.668C618.907 494.507 627.611 512.905 632.017 530.973C636.424 549.041 638.517 569.312 638.517 591.787V678.049C638.517 696.227 640.831 710.99 645.568 722.338C650.526 733.905 660.111 743.711 674.102 751.753L685.78 758.473V835.592L676.416 830.194C656.805 818.846 640.28 806.727 626.839 793.838C613.729 781.058 603.153 767.397 595 752.744C587.178 738.312 581.56 722.778 578.144 706.032C574.729 689.838 572.967 672.321 572.967 653.812V555.871C572.967 537.694 569.882 521.168 563.602 506.405C557.322 491.533 547.187 480.075 533.195 472.033L533.305 395.465Z" fill="url(#paint3_linear)"/>
<path opacity="0.25" d="M297.653 147.583L485.933 256.321L485.823 707.244L297.543 598.507L297.653 147.583Z" fill="url(#paint4_linear)"/>
<path opacity="0.75" d="M253.473 161.024L441.753 269.761L441.643 720.685L253.363 611.948L253.473 161.024Z" fill="url(#paint5_linear)"/>
<path d="M218.109 230.321L367.83 316.804V358.338L218.109 271.854V230.321Z" fill="#9D5DF9"/>
<path opacity="0.5" d="M276.721 410.558L420.602 493.626V558.185L276.721 475.117V410.558Z" fill="white"/>
<path opacity="0.5" d="M276.611 332.448L420.713 415.625V430.609L276.611 347.541V332.448Z" fill="white"/>
<path opacity="0.5" d="M276.611 218.092L420.713 301.27V316.253L276.611 233.185V218.092Z" fill="white"/>
<path opacity="0.5" d="M276.611 361.753L401.213 433.693V448.676L276.611 376.736V361.753Z" fill="white"/>
<path opacity="0.5" d="M360.891 638.181L317.484 613.062V598.409L360.891 623.528C364.417 625.621 369.595 629.698 374.001 636.087C378.739 642.918 382.154 651.511 382.154 660.876C382.154 671.231 379.51 677.07 374.552 678.833C369.815 680.376 364.306 677.731 360.891 675.748L343.044 665.392L342.934 665.282C341.391 664.401 338.967 663.52 337.095 664.07C335.552 664.511 333.679 666.164 333.679 671.892C333.679 677.621 335.442 681.147 336.984 683.24C338.857 685.884 341.281 687.757 342.823 688.528L343.044 688.638L397.688 720.147V734.799L343.374 703.401C339.628 701.418 334.23 697.342 329.603 690.842C324.535 683.681 321.01 674.647 321.01 664.511C321.01 654.486 324.535 649.308 329.493 647.876C334.12 646.554 339.518 648.537 343.264 650.74L361.001 660.986C363.535 662.418 365.518 663.079 366.73 662.638C367.722 662.308 369.484 660.876 369.484 653.494C369.484 648.647 367.942 645.562 366.4 643.359C364.637 640.935 362.323 638.952 360.891 638.181Z" fill="#9D5DF9"/>
<path d="M330.373 614.604C330.373 627.163 322.992 633.002 313.958 627.824C304.924 622.646 297.543 608.214 297.543 595.655C297.543 583.096 304.924 577.257 313.958 582.435C322.992 587.723 330.373 602.155 330.373 614.604Z" fill="#9D5DF9"/>
<path d="M417.409 735.791C417.409 748.35 410.027 754.189 400.993 749.011C391.959 743.833 384.578 729.401 384.578 716.841C384.578 704.282 391.959 698.443 400.993 703.621C410.027 708.909 417.409 723.341 417.409 735.791Z" fill="#9D5DF9"/>
<path opacity="0.75" d="M403.086 803.65C409.696 807.506 414.984 816.65 414.984 824.362V857.964L437.239 870.743C443.849 874.599 449.137 883.743 449.137 891.455C449.137 899.057 443.739 902.142 437.239 898.396L414.984 885.616V919.218C414.984 926.82 409.586 929.904 403.086 926.158C396.476 922.303 391.188 913.159 391.188 905.447V871.845L368.933 859.065C362.323 855.209 357.035 846.065 357.035 838.353C357.035 830.752 362.433 827.667 368.933 831.413L391.188 844.192V810.591C391.188 802.879 396.476 799.794 403.086 803.65Z" fill="url(#paint6_linear)"/>
<path opacity="0.1" d="M503.673 614.702L834.071 805.405V980.244L503.562 789.541L503.673 614.702Z" fill="url(#paint7_linear)"/>
<path opacity="0.75" d="M459.494 636.736L789.892 827.439V1002.28L459.494 811.575V636.736Z" fill="url(#paint8_linear)"/>
<path opacity="0.5" d="M763.451 846.168V945.651L750.451 938.159V838.676L763.451 846.168Z" fill="white"/>
<path opacity="0.5" d="M734.918 829.642V929.125L721.918 921.634V822.151L734.918 829.642Z" fill="white"/>
<path opacity="0.5" d="M706.492 813.117V912.6L693.492 905.109V805.625L706.492 813.117Z" fill="white"/>
<path opacity="0.5" d="M562.283 783.371C562.283 789.871 566.139 797.473 570.987 800.227C575.724 802.982 579.58 799.897 579.58 793.397C579.58 786.897 575.724 779.295 570.876 776.541C566.139 773.787 562.283 776.871 562.283 783.371Z" fill="white"/>
<path opacity="0.5" d="M535.73 768.058C535.73 774.558 539.586 782.16 544.434 784.914C549.171 787.668 553.027 784.583 553.027 778.083C553.027 771.583 549.171 763.982 544.324 761.228C539.586 758.473 535.73 761.558 535.73 768.058Z" fill="white"/>
<path d="M489.129 740.846C489.129 754.948 497.502 771.143 507.748 777.092C517.993 783.041 526.366 776.431 526.366 762.329C526.366 748.227 517.993 732.033 507.748 726.083C497.502 720.134 489.129 726.744 489.129 740.846Z" fill="#9D5DF9"/>
<defs>
<linearGradient id="paint0_linear" x1="1001.98" y1="228.137" x2="730.269" y2="699.054" gradientUnits="userSpaceOnUse">
<stop stop-color="#9D5DF9"/>
<stop offset="1" stop-color="#9D5DF9" stop-opacity="0.25"/>
</linearGradient>
<linearGradient id="paint1_linear" x1="871.333" y1="150.72" x2="599.622" y2="621.637" gradientUnits="userSpaceOnUse">
<stop stop-color="#9D5DF9"/>
<stop offset="1" stop-color="#9D5DF9" stop-opacity="0.25"/>
</linearGradient>
<linearGradient id="paint2_linear" x1="957.912" y1="261.188" x2="686.201" y2="732.105" gradientUnits="userSpaceOnUse">
<stop stop-color="#9D5DF9"/>
<stop offset="1" stop-color="#9D5DF9" stop-opacity="0.25"/>
</linearGradient>
<linearGradient id="paint3_linear" x1="827.266" y1="183.77" x2="555.555" y2="654.687" gradientUnits="userSpaceOnUse">
<stop stop-color="#9D5DF9"/>
<stop offset="1" stop-color="#9D5DF9" stop-opacity="0.25"/>
</linearGradient>
<linearGradient id="paint4_linear" x1="489.349" y1="258.252" x2="309.477" y2="569.881" gradientUnits="userSpaceOnUse">
<stop stop-color="#9D5DF9"/>
<stop offset="1" stop-color="#9D5DF9" stop-opacity="0.25"/>
</linearGradient>
<linearGradient id="paint5_linear" x1="445.169" y1="271.693" x2="265.297" y2="583.322" gradientUnits="userSpaceOnUse">
<stop stop-color="#9D5DF9"/>
<stop offset="1" stop-color="#9D5DF9" stop-opacity="0.5"/>
</linearGradient>
<linearGradient id="paint6_linear" x1="426.066" y1="846.575" x2="368.369" y2="892.08" gradientUnits="userSpaceOnUse">
<stop stop-color="#9D5DF9"/>
<stop offset="1" stop-color="#9D5DF9" stop-opacity="0.25"/>
</linearGradient>
<linearGradient id="paint7_linear" x1="662.063" y1="628.683" x2="674.373" y2="937.949" gradientUnits="userSpaceOnUse">
<stop stop-color="#9D5DF9"/>
<stop offset="1" stop-color="#9D5DF9" stop-opacity="0.5"/>
</linearGradient>
<linearGradient id="paint8_linear" x1="617.992" y1="650.717" x2="630.302" y2="959.983" gradientUnits="userSpaceOnUse">
<stop stop-color="#9D5DF9"/>
<stop offset="1" stop-color="#9D5DF9" stop-opacity="0.5"/>
</linearGradient>
</defs>
</svg>
