<svg width="913" height="897" viewBox="0 0 913 897" fill="none" xmlns="http://www.w3.org/2000/svg">
<g filter="url(#filter0_d)">
<path d="M540.849 230.366L762.162 330.145" stroke="white" stroke-opacity="0.25" stroke-width="7.12007" stroke-linecap="round" stroke-dasharray="14.24 14.24"/>
<path d="M545.122 720.944L766.434 621.166" stroke="white" stroke-opacity="0.25" stroke-width="7.12007" stroke-linecap="round" stroke-dasharray="14.24 14.24"/>
<path d="M471.867 238.353L268.935 340.528" stroke="white" stroke-opacity="0.25" stroke-width="7.12007" stroke-linecap="round" stroke-dasharray="14.24 14.24"/>
<path d="M476.138 712.957L273.206 610.782" stroke="white" stroke-opacity="0.25" stroke-width="7.12007" stroke-linecap="round" stroke-dasharray="14.24 14.24"/>
<path d="M559.119 459.494L763.487 358.691" stroke="white" stroke-opacity="0.25" stroke-width="7.12007" stroke-linecap="round" stroke-dasharray="14.24 14.24"/>
<path d="M268.996 354.656L468.157 465.392" stroke="white" stroke-opacity="0.25" stroke-width="7.12007" stroke-linecap="round" stroke-dasharray="14.24 14.24"/>
<path d="M259.937 599.004L468.672 488.416" stroke="white" stroke-opacity="0.25" stroke-width="7.12007" stroke-linecap="round" stroke-dasharray="14.24 14.24"/>
<path d="M540.968 490.264L745.007 582.721" stroke="white" stroke-opacity="0.25" stroke-width="7.12007" stroke-linecap="round" stroke-dasharray="14.24 14.24"/>
</g>
<path d="M554.653 231.438C554.653 203.518 532.02 180.885 504.1 180.885C476.181 180.885 453.548 203.518 453.548 231.438V231.438C453.548 259.358 476.181 281.991 504.1 281.991C532.02 281.991 554.653 259.358 554.653 231.438V231.438Z" fill="#1F1852"/>
<path d="M554.653 231.438C554.653 203.518 532.02 180.885 504.1 180.885C476.181 180.885 453.548 203.518 453.548 231.438V231.438C453.548 259.358 476.181 281.991 504.1 281.991C532.02 281.991 554.653 259.358 554.653 231.438V231.438Z" fill="white" fill-opacity="0.25"/>
<path d="M499.505 255.563V253.266C499.505 252.047 499.021 250.878 498.159 250.016C497.297 249.154 496.128 248.67 494.91 248.67H485.718C484.499 248.67 483.33 249.154 482.469 250.016C481.607 250.878 481.123 252.047 481.123 253.266V255.563" stroke="#28DA8C" stroke-width="3.44676" stroke-linecap="round" stroke-linejoin="round"/>
<path d="M490.313 244.074C492.852 244.074 494.909 242.017 494.909 239.478C494.909 236.94 492.852 234.883 490.313 234.883C487.775 234.883 485.718 236.94 485.718 239.478C485.718 242.017 487.775 244.074 490.313 244.074Z" stroke="#28DA8C" stroke-width="3.44676" stroke-linecap="round" stroke-linejoin="round"/>
<path d="M527.079 255.563V253.266C527.079 252.047 526.594 250.878 525.732 250.016C524.871 249.154 523.702 248.67 522.483 248.67H513.291C512.073 248.67 510.904 249.154 510.042 250.016C509.18 250.878 508.696 252.047 508.696 253.266V255.563" stroke="#28DA8C" stroke-width="3.44676" stroke-linecap="round" stroke-linejoin="round"/>
<path d="M517.888 244.074C520.426 244.074 522.483 242.017 522.483 239.478C522.483 236.94 520.426 234.883 517.888 234.883C515.35 234.883 513.292 236.94 513.292 239.478C513.292 242.017 515.35 244.074 517.888 244.074Z" stroke="#28DA8C" stroke-width="3.44676" stroke-linecap="round" stroke-linejoin="round"/>
<path d="M513.292 227.989V225.691C513.292 224.473 512.808 223.304 511.946 222.442C511.084 221.58 509.915 221.096 508.696 221.096H499.505C498.286 221.096 497.117 221.58 496.255 222.442C495.393 223.304 494.909 224.473 494.909 225.691V227.989" stroke="#28DA8C" stroke-width="3.44676" stroke-linecap="round" stroke-linejoin="round"/>
<path d="M504.101 216.498C506.639 216.498 508.696 214.44 508.696 211.902C508.696 209.364 506.639 207.307 504.101 207.307C501.562 207.307 499.505 209.364 499.505 211.902C499.505 214.44 501.562 216.498 504.101 216.498Z" stroke="#28DA8C" stroke-width="3.44676" stroke-linecap="round" stroke-linejoin="round"/>
<path d="M848 343.934C848 316.014 825.367 293.381 797.448 293.381C769.528 293.381 746.895 316.014 746.895 343.934V343.934C746.895 371.854 769.528 394.487 797.448 394.487C825.367 394.487 848 371.854 848 343.934V343.934Z" fill="#1F1852"/>
<path d="M848 343.934C848 316.014 825.367 293.381 797.448 293.381C769.528 293.381 746.895 316.014 746.895 343.934V343.934C746.895 371.854 769.528 394.487 797.448 394.487C825.367 394.487 848 371.854 848 343.934V343.934Z" fill="white" fill-opacity="0.25"/>
<path d="M792.852 368.06V365.762C792.852 364.543 792.368 363.374 791.506 362.512C790.644 361.65 789.475 361.166 788.256 361.166H779.065C777.846 361.166 776.677 361.65 775.815 362.512C774.953 363.374 774.469 364.543 774.469 365.762V368.06" stroke="#28DA8C" stroke-width="3.44676" stroke-linecap="round" stroke-linejoin="round"/>
<path d="M783.66 356.57C786.198 356.57 788.256 354.513 788.256 351.975C788.256 349.436 786.198 347.379 783.66 347.379C781.122 347.379 779.064 349.436 779.064 351.975C779.064 354.513 781.122 356.57 783.66 356.57Z" stroke="#28DA8C" stroke-width="3.44676" stroke-linecap="round" stroke-linejoin="round"/>
<path d="M820.426 368.06V365.762C820.426 364.543 819.942 363.374 819.08 362.512C818.218 361.65 817.049 361.166 815.83 361.166H806.639C805.42 361.166 804.251 361.65 803.389 362.512C802.527 363.374 802.043 364.543 802.043 365.762V368.06" stroke="#28DA8C" stroke-width="3.44676" stroke-linecap="round" stroke-linejoin="round"/>
<path d="M811.235 356.57C813.773 356.57 815.831 354.513 815.831 351.975C815.831 349.436 813.773 347.379 811.235 347.379C808.697 347.379 806.639 349.436 806.639 351.975C806.639 354.513 808.697 356.57 811.235 356.57Z" stroke="#28DA8C" stroke-width="3.44676" stroke-linecap="round" stroke-linejoin="round"/>
<path d="M806.638 340.485V338.187C806.638 336.969 806.153 335.8 805.292 334.938C804.43 334.076 803.261 333.592 802.042 333.592H792.851C791.632 333.592 790.463 334.076 789.601 334.938C788.739 335.8 788.255 336.969 788.255 338.187V340.485" stroke="#28DA8C" stroke-width="3.44676" stroke-linecap="round" stroke-linejoin="round"/>
<path d="M797.447 328.998C799.985 328.998 802.042 326.94 802.042 324.402C802.042 321.864 799.985 319.807 797.447 319.807C794.909 319.807 792.851 321.864 792.851 324.402C792.851 326.94 794.909 328.998 797.447 328.998Z" stroke="#28DA8C" stroke-width="3.44676" stroke-linecap="round" stroke-linejoin="round"/>
<path d="M848 597.41C848 569.49 825.367 546.857 797.448 546.857C769.528 546.857 746.895 569.49 746.895 597.41V597.41C746.895 625.33 769.528 647.963 797.448 647.963C825.367 647.963 848 625.33 848 597.41V597.41Z" fill="#1F1852"/>
<path d="M848 597.41C848 569.49 825.367 546.857 797.448 546.857C769.528 546.857 746.895 569.49 746.895 597.41V597.41C746.895 625.33 769.528 647.963 797.448 647.963C825.367 647.963 848 625.33 848 597.41V597.41Z" fill="white" fill-opacity="0.25"/>
<path d="M792.852 621.538V619.24C792.852 618.021 792.368 616.852 791.506 615.991C790.644 615.129 789.475 614.645 788.256 614.645H779.065C777.846 614.645 776.677 615.129 775.815 615.991C774.953 616.852 774.469 618.021 774.469 619.24V621.538" stroke="#28DA8C" stroke-width="3.44676" stroke-linecap="round" stroke-linejoin="round"/>
<path d="M783.66 610.049C786.198 610.049 788.256 607.991 788.256 605.453C788.256 602.915 786.198 600.857 783.66 600.857C781.122 600.857 779.064 602.915 779.064 605.453C779.064 607.991 781.122 610.049 783.66 610.049Z" stroke="#28DA8C" stroke-width="3.44676" stroke-linecap="round" stroke-linejoin="round"/>
<path d="M820.426 621.538V619.24C820.426 618.021 819.942 616.852 819.08 615.991C818.218 615.129 817.049 614.645 815.83 614.645H806.639C805.42 614.645 804.251 615.129 803.389 615.991C802.527 616.852 802.043 618.021 802.043 619.24V621.538" stroke="#28DA8C" stroke-width="3.44676" stroke-linecap="round" stroke-linejoin="round"/>
<path d="M811.235 610.049C813.773 610.049 815.831 607.991 815.831 605.453C815.831 602.915 813.773 600.857 811.235 600.857C808.697 600.857 806.639 602.915 806.639 605.453C806.639 607.991 808.697 610.049 811.235 610.049Z" stroke="#28DA8C" stroke-width="3.44676" stroke-linecap="round" stroke-linejoin="round"/>
<path d="M806.638 593.96V591.662C806.638 590.443 806.153 589.274 805.292 588.412C804.43 587.551 803.261 587.066 802.042 587.066H792.851C791.632 587.066 790.463 587.551 789.601 588.412C788.739 589.274 788.255 590.443 788.255 591.662V593.96" stroke="#28DA8C" stroke-width="3.44676" stroke-linecap="round" stroke-linejoin="round"/>
<path d="M797.447 582.471C799.985 582.471 802.042 580.413 802.042 577.875C802.042 575.337 799.985 573.279 797.447 573.279C794.909 573.279 792.851 575.337 792.851 577.875C792.851 580.413 794.909 582.471 797.447 582.471Z" stroke="#28DA8C" stroke-width="3.44676" stroke-linecap="round" stroke-linejoin="round"/>
<path d="M554.653 718.451C554.653 690.531 532.02 667.898 504.1 667.898C476.181 667.898 453.548 690.531 453.548 718.451V718.451C453.548 746.371 476.181 769.004 504.1 769.004C532.02 769.004 554.653 746.371 554.653 718.451V718.451Z" fill="#1F1852"/>
<path d="M554.653 718.451C554.653 690.531 532.02 667.898 504.1 667.898C476.181 667.898 453.548 690.531 453.548 718.451V718.451C453.548 746.371 476.181 769.004 504.1 769.004C532.02 769.004 554.653 746.371 554.653 718.451V718.451Z" fill="white" fill-opacity="0.25"/>
<path d="M499.505 742.579V740.281C499.505 739.062 499.021 737.893 498.159 737.032C497.297 736.17 496.128 735.686 494.91 735.686H485.718C484.499 735.686 483.33 736.17 482.469 737.032C481.607 737.893 481.123 739.062 481.123 740.281V742.579" stroke="#28DA8C" stroke-width="3.44676" stroke-linecap="round" stroke-linejoin="round"/>
<path d="M490.313 731.09C492.852 731.09 494.909 729.032 494.909 726.494C494.909 723.956 492.852 721.898 490.313 721.898C487.775 721.898 485.718 723.956 485.718 726.494C485.718 729.032 487.775 731.09 490.313 731.09Z" stroke="#28DA8C" stroke-width="3.44676" stroke-linecap="round" stroke-linejoin="round"/>
<path d="M527.079 742.579V740.281C527.079 739.062 526.594 737.893 525.732 737.032C524.871 736.17 523.702 735.686 522.483 735.686H513.291C512.073 735.686 510.904 736.17 510.042 737.032C509.18 737.893 508.696 739.062 508.696 740.281V742.579" stroke="#28DA8C" stroke-width="3.44676" stroke-linecap="round" stroke-linejoin="round"/>
<path d="M517.888 731.09C520.426 731.09 522.483 729.032 522.483 726.494C522.483 723.956 520.426 721.898 517.888 721.898C515.35 721.898 513.292 723.956 513.292 726.494C513.292 729.032 515.35 731.09 517.888 731.09Z" stroke="#28DA8C" stroke-width="3.44676" stroke-linecap="round" stroke-linejoin="round"/>
<path d="M513.291 715.003V712.705C513.291 711.486 512.807 710.317 511.945 709.455C511.083 708.594 509.914 708.109 508.695 708.109H499.504C498.285 708.109 497.116 708.594 496.254 709.455C495.392 710.317 494.908 711.486 494.908 712.705V715.003" stroke="#28DA8C" stroke-width="3.44676" stroke-linecap="round" stroke-linejoin="round"/>
<path d="M504.1 703.514C506.638 703.514 508.696 701.456 508.696 698.918C508.696 696.38 506.638 694.322 504.1 694.322C501.562 694.322 499.504 696.38 499.504 698.918C499.504 701.456 501.562 703.514 504.1 703.514Z" stroke="#28DA8C" stroke-width="3.44676" stroke-linecap="round" stroke-linejoin="round"/>
<path d="M557.501 472.096C557.501 444.176 534.868 421.543 506.948 421.543C479.029 421.543 456.396 444.176 456.396 472.096V472.096C456.396 500.016 479.029 522.649 506.948 522.649C534.868 522.649 557.501 500.016 557.501 472.096V472.096Z" fill="#1F1852"/>
<path d="M557.501 472.096C557.501 444.176 534.868 421.543 506.948 421.543C479.029 421.543 456.396 444.176 456.396 472.096V472.096C456.396 500.016 479.029 522.649 506.948 522.649C534.868 522.649 557.501 500.016 557.501 472.096V472.096Z" fill="white" fill-opacity="0.25"/>
<path d="M502.353 496.224V493.926C502.353 492.707 501.869 491.538 501.007 490.676C500.145 489.814 498.976 489.33 497.757 489.33H488.566C487.347 489.33 486.178 489.814 485.316 490.676C484.454 491.538 483.97 492.707 483.97 493.926V496.224" stroke="#28DA8C" stroke-width="3.44676" stroke-linecap="round" stroke-linejoin="round"/>
<path d="M493.161 484.734C495.699 484.734 497.756 482.677 497.756 480.139C497.756 477.601 495.699 475.543 493.161 475.543C490.622 475.543 488.565 477.601 488.565 480.139C488.565 482.677 490.622 484.734 493.161 484.734Z" stroke="#28DA8C" stroke-width="3.44676" stroke-linecap="round" stroke-linejoin="round"/>
<path d="M529.927 496.224V493.926C529.927 492.707 529.442 491.538 528.581 490.676C527.719 489.814 526.55 489.33 525.331 489.33H516.14C514.921 489.33 513.752 489.814 512.89 490.676C512.028 491.538 511.544 492.707 511.544 493.926V496.224" stroke="#28DA8C" stroke-width="3.44676" stroke-linecap="round" stroke-linejoin="round"/>
<path d="M520.735 484.734C523.273 484.734 525.331 482.677 525.331 480.139C525.331 477.601 523.273 475.543 520.735 475.543C518.197 475.543 516.14 477.601 516.14 480.139C516.14 482.677 518.197 484.734 520.735 484.734Z" stroke="#28DA8C" stroke-width="3.44676" stroke-linecap="round" stroke-linejoin="round"/>
<path d="M516.139 468.647V466.35C516.139 465.131 515.654 463.962 514.793 463.1C513.931 462.238 512.762 461.754 511.543 461.754H502.352C501.133 461.754 499.964 462.238 499.102 463.1C498.24 463.962 497.756 465.131 497.756 466.35V468.647" stroke="#28DA8C" stroke-width="3.44676" stroke-linecap="round" stroke-linejoin="round"/>
<path d="M506.948 457.158C509.486 457.158 511.543 455.101 511.543 452.562C511.543 450.024 509.486 447.967 506.948 447.967C504.41 447.967 502.352 450.024 502.352 452.562C502.352 455.101 504.41 457.158 506.948 457.158Z" stroke="#28DA8C" stroke-width="3.44676" stroke-linecap="round" stroke-linejoin="round"/>
<path d="M223.57 293.381H223.569C195.65 293.381 173.017 316.014 173.017 343.933V343.935C173.017 371.854 195.65 394.487 223.569 394.487H223.57C251.489 394.487 274.122 371.854 274.122 343.935V343.933C274.122 316.014 251.489 293.381 223.57 293.381Z" fill="#1F1852"/>
<path d="M223.57 293.381H223.569C195.65 293.381 173.017 316.014 173.017 343.933V343.935C173.017 371.854 195.65 394.487 223.569 394.487H223.57C251.489 394.487 274.122 371.854 274.122 343.935V343.933C274.122 316.014 251.489 293.381 223.57 293.381Z" fill="white" fill-opacity="0.25"/>
<path d="M218.975 368.06V365.762C218.975 364.543 218.49 363.374 217.628 362.512C216.767 361.65 215.598 361.166 214.379 361.166H205.187C203.969 361.166 202.8 361.65 201.938 362.512C201.076 363.374 200.592 364.543 200.592 365.762V368.06" stroke="#28DA8C" stroke-width="3.44676" stroke-linecap="round" stroke-linejoin="round"/>
<path d="M209.783 356.57C212.321 356.57 214.378 354.513 214.378 351.975C214.378 349.436 212.321 347.379 209.783 347.379C207.245 347.379 205.187 349.436 205.187 351.975C205.187 354.513 207.245 356.57 209.783 356.57Z" stroke="#28DA8C" stroke-width="3.44676" stroke-linecap="round" stroke-linejoin="round"/>
<path d="M246.547 368.06V365.762C246.547 364.543 246.063 363.374 245.201 362.512C244.339 361.65 243.17 361.166 241.952 361.166H232.76C231.541 361.166 230.372 361.65 229.511 362.512C228.649 363.374 228.165 364.543 228.165 365.762V368.06" stroke="#28DA8C" stroke-width="3.44676" stroke-linecap="round" stroke-linejoin="round"/>
<path d="M237.357 356.57C239.895 356.57 241.953 354.513 241.953 351.975C241.953 349.436 239.895 347.379 237.357 347.379C234.819 347.379 232.761 349.436 232.761 351.975C232.761 354.513 234.819 356.57 237.357 356.57Z" stroke="#28DA8C" stroke-width="3.44676" stroke-linecap="round" stroke-linejoin="round"/>
<path d="M232.76 340.485V338.187C232.76 336.969 232.276 335.8 231.414 334.938C230.552 334.076 229.383 333.592 228.164 333.592H218.973C217.754 333.592 216.585 334.076 215.723 334.938C214.862 335.8 214.377 336.969 214.377 338.187V340.485" stroke="#28DA8C" stroke-width="3.44676" stroke-linecap="round" stroke-linejoin="round"/>
<path d="M223.569 328.998C226.107 328.998 228.165 326.94 228.165 324.402C228.165 321.864 226.107 319.807 223.569 319.807C221.031 319.807 218.973 321.864 218.973 324.402C218.973 326.94 221.031 328.998 223.569 328.998Z" stroke="#28DA8C" stroke-width="3.44676" stroke-linecap="round" stroke-linejoin="round"/>
<path d="M223.57 546.857H223.569C195.65 546.857 173.017 569.49 173.017 597.409V597.411C173.017 625.33 195.65 647.963 223.569 647.963H223.57C251.489 647.963 274.122 625.33 274.122 597.411V597.409C274.122 569.49 251.489 546.857 223.57 546.857Z" fill="#1F1852"/>
<path d="M223.57 546.857H223.569C195.65 546.857 173.017 569.49 173.017 597.409V597.411C173.017 625.33 195.65 647.963 223.569 647.963H223.57C251.489 647.963 274.122 625.33 274.122 597.411V597.409C274.122 569.49 251.489 546.857 223.57 546.857Z" fill="white" fill-opacity="0.25"/>
<path d="M218.975 621.538V619.24C218.975 618.021 218.49 616.852 217.628 615.991C216.767 615.129 215.598 614.645 214.379 614.645H205.187C203.969 614.645 202.8 615.129 201.938 615.991C201.076 616.852 200.592 618.021 200.592 619.24V621.538" stroke="#28DA8C" stroke-width="3.44676" stroke-linecap="round" stroke-linejoin="round"/>
<path d="M209.783 610.049C212.321 610.049 214.378 607.991 214.378 605.453C214.378 602.915 212.321 600.857 209.783 600.857C207.245 600.857 205.187 602.915 205.187 605.453C205.187 607.991 207.245 610.049 209.783 610.049Z" stroke="#28DA8C" stroke-width="3.44676" stroke-linecap="round" stroke-linejoin="round"/>
<path d="M246.547 621.538V619.24C246.547 618.021 246.063 616.852 245.201 615.991C244.339 615.129 243.17 614.645 241.952 614.645H232.76C231.541 614.645 230.372 615.129 229.511 615.991C228.649 616.852 228.165 618.021 228.165 619.24V621.538" stroke="#28DA8C" stroke-width="3.44676" stroke-linecap="round" stroke-linejoin="round"/>
<path d="M237.357 610.049C239.895 610.049 241.953 607.991 241.953 605.453C241.953 602.915 239.895 600.857 237.357 600.857C234.819 600.857 232.761 602.915 232.761 605.453C232.761 607.991 234.819 610.049 237.357 610.049Z" stroke="#28DA8C" stroke-width="3.44676" stroke-linecap="round" stroke-linejoin="round"/>
<path d="M232.76 593.96V591.662C232.76 590.443 232.276 589.274 231.414 588.412C230.552 587.551 229.383 587.066 228.164 587.066H218.973C217.754 587.066 216.585 587.551 215.723 588.412C214.862 589.274 214.377 590.443 214.377 591.662V593.96" stroke="#28DA8C" stroke-width="3.44676" stroke-linecap="round" stroke-linejoin="round"/>
<path d="M223.569 582.471C226.107 582.471 228.165 580.413 228.165 577.875C228.165 575.337 226.107 573.279 223.569 573.279C221.031 573.279 218.973 575.337 218.973 577.875C218.973 580.413 221.031 582.471 223.569 582.471Z" stroke="#28DA8C" stroke-width="3.44676" stroke-linecap="round" stroke-linejoin="round"/>
<g filter="url(#filter1_d)">
<path d="M366.235 94.247L416.467 124.081V183.187L365.523 152.642L366.184 98.701L366.235 94.247Z" fill="url(#paint0_angular)"/>
<path fill-rule="evenodd" clip-rule="evenodd" d="M475.737 90.088C475.737 90.089 475.738 90.09 475.739 90.091L475.955 90.341C475.953 90.339 475.948 90.327 475.943 90.313C475.939 90.303 475.934 90.291 475.93 90.281C475.94 90.299 475.947 90.313 475.953 90.325C475.97 90.36 475.981 90.381 476.028 90.449L475.977 90.324C475.964 90.304 475.952 90.285 475.941 90.267C475.917 90.229 475.896 90.195 475.878 90.157C475.87 90.149 475.861 90.122 475.85 90.091C475.838 90.054 475.824 90.013 475.809 89.998L475.749 89.973L475.741 89.964L475.574 89.866C475.602 89.907 475.59 89.895 475.583 89.889C475.579 89.885 475.577 89.883 475.591 89.9C475.618 89.92 475.648 89.943 475.676 89.965C475.714 89.995 475.749 90.023 475.767 90.033L475.677 89.981L475.628 89.949C475.626 89.948 475.625 89.947 475.625 89.947L475.628 89.949C475.644 89.963 475.733 90.074 475.739 90.091L475.737 90.088ZM475.312 89.723L475.286 89.704C475.286 89.704 475.296 89.711 475.312 89.723ZM363.459 87.975C363.464 87.972 363.468 87.968 363.47 87.966V87.962C363.465 87.967 363.461 87.971 363.459 87.975ZM363.333 88.089C363.373 88.056 363.399 88.029 363.424 88.004C363.431 87.997 363.437 87.99 363.444 87.984C363.448 87.981 363.454 87.978 363.459 87.975C363.457 87.978 363.455 87.981 363.453 87.983C363.449 87.991 363.444 87.999 363.427 88.014C363.414 88.029 363.395 88.043 363.371 88.06C363.359 88.069 363.347 88.078 363.333 88.089ZM474.935 89.415C474.939 89.415 474.871 89.343 474.836 89.308C474.862 89.332 474.882 89.351 474.9 89.369C474.924 89.391 474.945 89.411 474.969 89.433C474.965 89.433 474.931 89.415 474.935 89.415ZM475.421 89.315L475.419 89.308V89.313C475.42 89.313 475.421 89.314 475.421 89.315ZM475.421 89.315L475.488 89.544L475.664 89.63C475.636 89.594 475.609 89.559 475.583 89.525C475.528 89.453 475.476 89.384 475.421 89.315ZM361.769 89.793C361.774 89.785 361.779 89.779 361.781 89.776C361.776 89.786 361.774 89.796 361.772 89.806C361.77 89.815 361.768 89.825 361.764 89.836L361.631 90.011C361.638 89.99 361.663 89.953 361.69 89.915C361.712 89.883 361.735 89.851 361.746 89.827C361.749 89.819 361.76 89.805 361.769 89.793ZM475.514 89.827L475.505 89.81L475.539 89.827C475.539 89.827 475.565 89.866 475.565 89.861C475.544 89.848 475.531 89.84 475.514 89.827ZM361.789 89.896C361.791 89.892 361.794 89.889 361.794 89.887V89.904H361.785C361.785 89.902 361.787 89.899 361.789 89.896ZM361.708 90.122C361.728 90.065 361.747 90.007 361.764 89.951L361.759 90.007C361.755 90.016 361.751 90.026 361.746 90.037C361.742 90.048 361.738 90.058 361.734 90.067C361.725 90.087 361.716 90.105 361.708 90.122ZM361.683 90.19C361.692 90.167 361.7 90.145 361.708 90.122C361.65 90.245 361.612 90.313 361.598 90.338C361.593 90.347 361.591 90.351 361.592 90.35C361.595 90.347 361.63 90.294 361.683 90.19ZM361.605 90.383L361.725 90.191L361.734 90.183L361.751 90.05C361.726 90.104 361.703 90.15 361.683 90.19C361.659 90.254 361.633 90.319 361.605 90.383ZM361.12 91.156L361.605 90.383C361.473 90.686 361.3 90.976 361.12 91.156ZM361.373 90.423L361.459 90.337L361.336 90.502C361.338 90.497 361.338 90.493 361.338 90.488C361.339 90.476 361.34 90.462 361.373 90.423ZM361.283 90.573L361.336 90.502C361.333 90.515 361.321 90.534 361.283 90.573ZM476.11 90.56L476.092 90.47C476.102 90.484 476.108 90.495 476.114 90.504C476.125 90.521 476.133 90.535 476.152 90.56V90.612L476.11 90.569V90.56ZM476.208 90.689L476.2 90.646C476.214 90.664 476.22 90.677 476.225 90.689C476.23 90.702 476.235 90.714 476.251 90.732L476.208 90.689Z" fill="url(#paint1_angular)"/>
<path d="M471.844 95.529L471.407 154.425L420.909 182.759V124.12L467.981 97.694L471.844 95.529Z" fill="url(#paint2_angular)"/>
<path d="M419.43 61.811L469.645 91.619L418.744 120.223L368.52 90.414L418.139 62.539L419.43 61.811Z" fill="url(#paint3_angular)"/>
<path fill-rule="evenodd" clip-rule="evenodd" d="M419.481 56.996C419.104 56.992 418.718 57.091 418.341 57.296L362.917 88.412C362.908 88.417 362.865 88.442 362.848 88.455L362.788 88.588L362.359 88.862V88.871C362.355 88.875 362.347 88.875 362.342 88.88V88.888C362.312 88.927 362.239 89.017 362.235 89.021L362.192 89.081L362.175 89.107L362.167 89.115L362.158 89.124C362.102 89.227 362.081 89.274 362.051 89.334C362.042 89.355 362.021 89.403 362.016 89.411H362.025C362.021 89.415 361.995 89.445 361.991 89.454C361.986 89.467 361.926 89.548 361.922 89.561L361.914 89.57L361.905 89.578V89.587L361.862 89.694L361.854 89.72L361.845 89.754C361.841 89.776 361.849 89.758 361.845 89.78C361.841 89.793 361.832 89.801 361.828 89.814C361.824 89.827 361.815 89.836 361.811 89.848L361.802 89.883C361.849 89.746 361.798 89.908 361.776 89.981V90.376L360.988 153.881C360.975 154.661 361.399 155.416 362.059 155.806L417.012 188.756C417.346 188.954 417.77 189.065 418.169 189.065C418.568 189.065 418.919 188.975 419.241 188.791L419.25 188.782L474.708 157.675C475.398 157.293 475.839 156.543 475.857 155.733L476.332 91.726V91.675L476.307 91.576V91.306C476.307 91.293 476.29 91.186 476.29 91.199V91.19C476.277 91.152 476.268 91.105 476.255 91.066C476.2 90.912 476.17 90.817 476.165 90.796C476.165 90.792 476.14 90.736 476.14 90.736L476.114 90.659C476.11 90.65 476.11 90.642 476.105 90.633C476.08 90.573 476.054 90.526 476.015 90.474L476.067 90.534L476.058 90.5L476.032 90.483L475.998 90.423C475.926 90.325 475.837 90.215 475.739 90.091C475.741 90.099 475.725 90.087 475.677 90.037C475.728 90.088 475.578 89.9 475.599 89.93H475.591C475.535 89.891 475.591 89.926 475.548 89.896C475.526 89.874 475.496 89.848 475.496 89.853C475.437 89.81 475.354 89.752 475.312 89.723L475.286 89.704L475.188 89.638L420.604 57.318C420.244 57.108 419.854 57.005 419.464 57.001L419.481 56.996ZM469.645 91.619L419.43 61.811L418.139 62.539L368.52 90.414L418.744 120.223L469.645 91.619ZM416.467 124.081L366.235 94.247L366.184 98.701L365.523 152.642L416.467 183.187V124.081ZM471.407 154.425L471.844 95.529L467.981 97.694L420.909 124.12V182.759L471.407 154.425Z" fill="white"/>
<path d="M662.43 474.458L712.662 504.292V563.398L661.718 532.853L662.378 478.912L662.43 474.458Z" fill="url(#paint4_angular)"/>
<path fill-rule="evenodd" clip-rule="evenodd" d="M771.931 470.299C771.932 470.3 771.933 470.301 771.934 470.302L772.15 470.552C772.148 470.55 772.143 470.538 772.138 470.524C772.134 470.514 772.129 470.502 772.125 470.492C772.135 470.51 772.142 470.524 772.148 470.536C772.165 470.571 772.176 470.592 772.223 470.66L772.171 470.535C772.159 470.515 772.147 470.496 772.136 470.478C772.112 470.44 772.09 470.406 772.073 470.368C772.065 470.36 772.056 470.333 772.045 470.302C772.033 470.265 772.018 470.224 772.004 470.209L771.944 470.184L771.936 470.175L771.768 470.076C771.797 470.118 771.785 470.106 771.778 470.1C771.774 470.096 771.772 470.094 771.786 470.111C771.813 470.131 771.843 470.154 771.87 470.176C771.909 470.206 771.944 470.234 771.961 470.244L771.871 470.192L771.822 470.16C771.821 470.159 771.82 470.158 771.82 470.158L771.822 470.16C771.839 470.174 771.928 470.285 771.934 470.302L771.931 470.299ZM771.507 469.934L771.48 469.915C771.48 469.915 771.491 469.922 771.507 469.934ZM659.654 468.186C659.658 468.183 659.663 468.179 659.665 468.177V468.173C659.66 468.178 659.656 468.182 659.654 468.186ZM659.528 468.3C659.568 468.267 659.594 468.24 659.619 468.215C659.626 468.208 659.632 468.201 659.639 468.194C659.643 468.192 659.649 468.189 659.654 468.186C659.651 468.189 659.65 468.192 659.648 468.194C659.643 468.202 659.639 468.21 659.622 468.224C659.609 468.24 659.59 468.254 659.566 468.271C659.554 468.28 659.541 468.289 659.528 468.3ZM771.13 469.626C771.134 469.626 771.065 469.553 771.031 469.519C771.057 469.543 771.077 469.562 771.095 469.579C771.119 469.602 771.14 469.621 771.164 469.643C771.16 469.643 771.125 469.626 771.13 469.626ZM771.616 469.526L771.614 469.519V469.523C771.615 469.524 771.615 469.525 771.616 469.526ZM771.616 469.526L771.683 469.755L771.858 469.841C771.831 469.805 771.804 469.77 771.778 469.736C771.723 469.664 771.671 469.595 771.616 469.526ZM657.963 470.004C657.969 469.996 657.974 469.99 657.976 469.986C657.971 469.997 657.969 470.007 657.967 470.016C657.965 470.026 657.963 470.036 657.958 470.046L657.825 470.222C657.832 470.201 657.858 470.164 657.885 470.126C657.907 470.094 657.929 470.061 657.941 470.038C657.944 470.03 657.955 470.016 657.963 470.004ZM771.708 470.038L771.7 470.021L771.734 470.038C771.734 470.038 771.76 470.076 771.76 470.072C771.738 470.059 771.726 470.051 771.708 470.038ZM657.984 470.106C657.986 470.103 657.988 470.1 657.988 470.098V470.115H657.98C657.98 470.113 657.982 470.11 657.984 470.106ZM657.903 470.333C657.923 470.276 657.942 470.218 657.958 470.162L657.954 470.218C657.95 470.227 657.946 470.237 657.941 470.248C657.937 470.259 657.933 470.269 657.928 470.278C657.919 470.298 657.911 470.316 657.903 470.333ZM657.878 470.401C657.887 470.378 657.895 470.356 657.903 470.333C657.845 470.455 657.807 470.524 657.793 470.549C657.788 470.558 657.786 470.562 657.787 470.561C657.79 470.558 657.825 470.505 657.878 470.401ZM657.8 470.594L657.92 470.402L657.928 470.394L657.946 470.261C657.921 470.315 657.898 470.361 657.878 470.401C657.854 470.465 657.828 470.53 657.8 470.594ZM657.315 471.367L657.8 470.594C657.667 470.897 657.495 471.187 657.315 471.367ZM657.568 470.634L657.654 470.548L657.531 470.713C657.533 470.708 657.533 470.703 657.533 470.699C657.534 470.686 657.535 470.673 657.568 470.634ZM657.478 470.784L657.531 470.713C657.527 470.726 657.516 470.744 657.478 470.784ZM772.304 470.771L772.287 470.681C772.297 470.695 772.303 470.706 772.309 470.715C772.319 470.732 772.328 470.746 772.347 470.771V470.822L772.304 470.78V470.771ZM772.403 470.9L772.394 470.857C772.409 470.875 772.414 470.888 772.42 470.9C772.425 470.913 772.43 470.925 772.446 470.942L772.403 470.9Z" fill="url(#paint5_angular)"/>
<path d="M768.039 475.74L767.601 534.636L717.103 562.97V504.331L764.176 477.905L768.039 475.74Z" fill="url(#paint6_angular)"/>
<path d="M715.624 442.022L765.839 471.83L714.938 500.434L664.715 470.625L714.334 442.75L715.624 442.022Z" fill="url(#paint7_angular)"/>
<path fill-rule="evenodd" clip-rule="evenodd" d="M715.676 437.207C715.299 437.203 714.913 437.301 714.535 437.507L659.112 468.623C659.103 468.627 659.06 468.653 659.043 468.666L658.983 468.799L658.554 469.073V469.082C658.55 469.086 658.541 469.086 658.537 469.09V469.099C658.507 469.138 658.434 469.228 658.43 469.232L658.387 469.292L658.37 469.318L658.361 469.326L658.353 469.335C658.297 469.438 658.276 469.485 658.246 469.545C658.237 469.566 658.216 469.613 658.211 469.622H658.22C658.216 469.626 658.19 469.656 658.186 469.665C658.181 469.678 658.121 469.759 658.117 469.772L658.108 469.781L658.1 469.789V469.798L658.057 469.905L658.048 469.931L658.04 469.965C658.036 469.986 658.044 469.969 658.04 469.991C658.036 470.004 658.027 470.012 658.023 470.025C658.018 470.038 658.01 470.046 658.006 470.059L657.997 470.094C658.044 469.956 657.993 470.119 657.971 470.192V470.587L657.182 534.092C657.17 534.872 657.594 535.626 658.254 536.017L713.206 568.967C713.541 569.165 713.965 569.276 714.364 569.276C714.763 569.276 715.114 569.186 715.436 569.002L715.444 568.993L770.902 537.886C771.593 537.504 772.034 536.754 772.051 535.944L772.527 471.937V471.886L772.502 471.787V471.517C772.502 471.504 772.484 471.397 772.484 471.41V471.401C772.472 471.363 772.463 471.315 772.45 471.277C772.394 471.123 772.364 471.028 772.36 471.007C772.36 471.003 772.334 470.947 772.334 470.947L772.309 470.87C772.304 470.861 772.304 470.852 772.3 470.844C772.274 470.784 772.249 470.737 772.21 470.685L772.261 470.745L772.253 470.711L772.227 470.694L772.193 470.634C772.121 470.536 772.031 470.426 771.934 470.302C771.936 470.31 771.92 470.298 771.871 470.248C771.923 470.299 771.773 470.111 771.794 470.141H771.786C771.73 470.102 771.786 470.137 771.743 470.106C771.721 470.085 771.691 470.059 771.691 470.064C771.632 470.021 771.549 469.963 771.507 469.934L771.48 469.915L771.383 469.849L716.799 437.529C716.439 437.319 716.049 437.216 715.659 437.211L715.676 437.207ZM765.839 471.83L715.624 442.022L714.334 442.75L664.715 470.625L714.938 500.434L765.839 471.83ZM712.662 504.292L662.43 474.458L662.378 478.912L661.718 532.853L712.662 563.398V504.292ZM767.601 534.636L768.039 475.74L764.176 477.905L717.103 504.331V562.97L767.601 534.636Z" fill="white"/>
<path d="M199.098 474.458L148.866 504.292V563.398L199.81 532.853L199.149 478.912L199.098 474.458Z" fill="url(#paint8_angular)"/>
<path fill-rule="evenodd" clip-rule="evenodd" d="M89.596 470.299C89.596 470.3 89.595 470.301 89.594 470.302L89.378 470.552C89.38 470.55 89.385 470.538 89.39 470.524C89.394 470.514 89.399 470.502 89.403 470.492C89.393 470.51 89.386 470.524 89.38 470.536C89.363 470.571 89.352 470.592 89.305 470.66L89.356 470.535C89.369 470.515 89.381 470.496 89.392 470.478C89.416 470.44 89.437 470.406 89.455 470.368C89.463 470.36 89.472 470.333 89.483 470.302C89.495 470.265 89.509 470.224 89.524 470.209L89.584 470.184L89.592 470.175L89.759 470.076C89.731 470.118 89.743 470.106 89.75 470.1C89.754 470.096 89.756 470.094 89.742 470.111C89.715 470.131 89.685 470.154 89.657 470.176C89.619 470.206 89.584 470.234 89.566 470.244L89.656 470.192L89.705 470.16C89.707 470.159 89.708 470.158 89.708 470.158L89.705 470.16C89.689 470.174 89.6 470.285 89.594 470.302L89.596 470.299ZM90.021 469.934L90.047 469.915C90.047 469.915 90.037 469.922 90.021 469.934ZM201.874 468.186C201.869 468.183 201.865 468.179 201.863 468.177V468.173C201.868 468.178 201.872 468.182 201.874 468.186ZM202 468.3C201.96 468.267 201.934 468.24 201.909 468.215C201.902 468.208 201.896 468.201 201.889 468.194C201.885 468.192 201.879 468.189 201.874 468.186C201.876 468.189 201.878 468.192 201.88 468.194C201.884 468.202 201.889 468.21 201.906 468.224C201.919 468.24 201.938 468.254 201.962 468.271C201.974 468.28 201.986 468.289 202 468.3ZM90.398 469.626C90.394 469.626 90.462 469.553 90.497 469.519C90.471 469.543 90.451 469.562 90.433 469.579C90.409 469.602 90.388 469.621 90.364 469.643C90.368 469.643 90.402 469.626 90.398 469.626ZM89.912 469.526L89.914 469.519V469.523C89.913 469.524 89.912 469.525 89.912 469.526ZM89.912 469.526L89.845 469.755L89.669 469.841C89.697 469.805 89.724 469.77 89.75 469.736C89.805 469.664 89.857 469.595 89.912 469.526ZM203.564 470.004C203.559 469.996 203.554 469.99 203.552 469.986C203.557 469.997 203.559 470.007 203.561 470.016C203.563 470.026 203.565 470.036 203.569 470.046L203.702 470.222C203.695 470.201 203.67 470.164 203.643 470.126C203.621 470.094 203.598 470.061 203.587 470.038C203.584 470.03 203.573 470.016 203.564 470.004ZM89.819 470.038L89.828 470.021L89.794 470.038C89.794 470.038 89.768 470.076 89.768 470.072C89.789 470.059 89.802 470.051 89.819 470.038ZM203.544 470.106C203.542 470.103 203.539 470.1 203.539 470.098V470.115H203.548C203.548 470.113 203.546 470.11 203.544 470.106ZM203.625 470.333C203.605 470.276 203.586 470.218 203.569 470.162L203.574 470.218C203.578 470.227 203.582 470.237 203.587 470.248C203.591 470.259 203.595 470.269 203.599 470.278C203.608 470.298 203.617 470.316 203.625 470.333ZM203.65 470.401C203.641 470.378 203.633 470.356 203.625 470.333C203.683 470.455 203.721 470.524 203.735 470.549C203.74 470.558 203.742 470.562 203.741 470.561C203.738 470.558 203.703 470.505 203.65 470.401ZM203.728 470.594L203.608 470.402L203.599 470.394L203.582 470.261C203.607 470.315 203.63 470.361 203.65 470.401C203.674 470.465 203.7 470.53 203.728 470.594ZM204.213 471.367L203.728 470.594C203.86 470.897 204.033 471.187 204.213 471.367ZM203.96 470.634L203.874 470.548L203.997 470.713C203.995 470.708 203.995 470.703 203.995 470.699C203.994 470.686 203.993 470.673 203.96 470.634ZM204.05 470.784L203.997 470.713C204 470.726 204.012 470.744 204.05 470.784ZM89.223 470.771L89.241 470.681C89.231 470.695 89.225 470.706 89.219 470.715C89.208 470.732 89.2 470.746 89.181 470.771V470.822L89.223 470.78V470.771ZM89.125 470.9L89.133 470.857C89.119 470.875 89.113 470.888 89.108 470.9C89.103 470.913 89.098 470.925 89.082 470.942L89.125 470.9Z" fill="url(#paint9_angular)"/>
<path d="M93.4888 475.74L93.9258 534.636L144.424 562.97V504.331L97.3518 477.905L93.4888 475.74Z" fill="url(#paint10_angular)"/>
<path d="M145.903 442.022L95.688 471.83L146.589 500.434L196.813 470.625L147.194 442.75L145.903 442.022Z" fill="url(#paint11_angular)"/>
<path fill-rule="evenodd" clip-rule="evenodd" d="M145.852 437.207C146.229 437.203 146.615 437.301 146.992 437.507L202.416 468.623C202.425 468.627 202.468 468.653 202.485 468.666L202.545 468.799L202.974 469.073V469.082C202.978 469.086 202.986 469.086 202.991 469.09V469.099C203.021 469.138 203.094 469.228 203.098 469.232L203.141 469.292L203.158 469.318L203.166 469.326L203.175 469.335C203.231 469.438 203.252 469.485 203.282 469.545C203.291 469.566 203.312 469.613 203.317 469.622H203.308C203.312 469.626 203.338 469.656 203.342 469.665C203.347 469.678 203.407 469.759 203.411 469.772L203.419 469.781L203.428 469.789V469.798L203.471 469.905L203.479 469.931L203.488 469.965C203.492 469.986 203.484 469.969 203.488 469.991C203.492 470.004 203.501 470.012 203.505 470.025C203.509 470.038 203.518 470.046 203.522 470.059L203.531 470.094C203.484 469.956 203.535 470.119 203.557 470.192V470.587L204.345 534.092C204.358 534.872 203.934 535.626 203.274 536.017L148.321 568.967C147.987 569.165 147.563 569.276 147.164 569.276C146.765 569.276 146.414 569.186 146.092 569.002L146.084 568.993L90.625 537.886C89.935 537.504 89.494 536.754 89.476 535.944L89.001 471.937V471.886L89.026 471.787V471.517C89.026 471.504 89.043 471.397 89.043 471.41V471.401C89.056 471.363 89.065 471.315 89.078 471.277C89.133 471.123 89.163 471.028 89.168 471.007C89.168 471.003 89.193 470.947 89.193 470.947L89.219 470.87C89.223 470.861 89.223 470.852 89.228 470.844C89.254 470.784 89.279 470.737 89.318 470.685L89.266 470.745L89.275 470.711L89.301 470.694L89.335 470.634C89.407 470.536 89.496 470.426 89.594 470.302C89.592 470.31 89.608 470.298 89.656 470.248C89.605 470.299 89.755 470.111 89.734 470.141H89.742C89.798 470.102 89.742 470.137 89.785 470.106C89.807 470.085 89.837 470.059 89.837 470.064C89.896 470.021 89.979 469.963 90.021 469.934L90.047 469.915L90.145 469.849L144.729 437.529C145.089 437.319 145.479 437.216 145.869 437.211L145.852 437.207ZM95.688 471.83L145.903 442.022L147.194 442.75L196.813 470.625L146.589 500.434L95.688 471.83ZM148.866 504.292L199.098 474.458L199.149 478.912L199.81 532.853L148.866 563.398V504.292ZM93.926 534.636L93.489 475.74L97.352 477.905L144.424 504.331V562.97L93.926 534.636Z" fill="white"/>
<path d="M455.409 137.808L676.721 237.586" stroke="#28DA8C" stroke-width="7.12007" stroke-linecap="round" stroke-dasharray="14.24 14.24"/>
<path d="M459.681 628.384L680.993 528.606" stroke="#28DA8C" stroke-width="7.12007" stroke-linecap="round" stroke-dasharray="14.24 14.24"/>
<path d="M386.426 145.794L183.494 247.97" stroke="#28DA8C" stroke-width="7.12007" stroke-linecap="round" stroke-dasharray="14.24 14.24"/>
<path d="M390.697 620.397L187.765 518.222" stroke="#28DA8C" stroke-width="7.12007" stroke-linecap="round" stroke-dasharray="14.24 14.24"/>
<path d="M662.429 218.138L712.661 247.972V307.078L661.718 276.532L662.378 222.592L662.429 218.138Z" fill="url(#paint12_angular)"/>
<path fill-rule="evenodd" clip-rule="evenodd" d="M771.931 213.979C771.932 213.98 771.932 213.981 771.933 213.982L772.15 214.232C772.148 214.23 772.143 214.218 772.137 214.204C772.133 214.193 772.129 214.181 772.124 214.172C772.134 214.19 772.141 214.204 772.147 214.216C772.165 214.25 772.175 214.271 772.222 214.339L772.171 214.215C772.159 214.194 772.147 214.176 772.135 214.158C772.111 214.12 772.09 214.086 772.072 214.048C772.065 214.04 772.055 214.012 772.045 213.982C772.032 213.945 772.018 213.903 772.004 213.889L771.944 213.863L771.935 213.855L771.768 213.756C771.797 213.798 771.784 213.786 771.778 213.779C771.773 213.775 771.772 213.774 771.785 213.79C771.812 213.81 771.842 213.834 771.87 213.856C771.909 213.886 771.943 213.913 771.961 213.923L771.871 213.872L771.822 213.839C771.821 213.838 771.819 213.838 771.819 213.838L771.822 213.839C771.839 213.854 771.928 213.964 771.933 213.982L771.931 213.979ZM771.507 213.613L771.48 213.595C771.48 213.595 771.49 213.602 771.507 213.613ZM659.653 211.865C659.658 211.862 659.662 211.859 659.664 211.857V211.853C659.659 211.858 659.656 211.862 659.653 211.865ZM659.527 211.979C659.568 211.946 659.594 211.92 659.618 211.894C659.625 211.888 659.632 211.881 659.638 211.874C659.643 211.872 659.648 211.869 659.653 211.865C659.651 211.868 659.649 211.871 659.648 211.874C659.643 211.882 659.638 211.89 659.621 211.904C659.608 211.92 659.589 211.934 659.565 211.951C659.554 211.959 659.541 211.969 659.527 211.979ZM771.129 213.306C771.133 213.306 771.065 213.233 771.031 213.199C771.056 213.223 771.077 213.242 771.095 213.259C771.119 213.282 771.139 213.301 771.163 213.323C771.159 213.323 771.125 213.306 771.129 213.306ZM771.616 213.206L771.614 213.199V213.203C771.614 213.204 771.615 213.205 771.616 213.206ZM771.616 213.206L771.682 213.435L771.858 213.52C771.83 213.485 771.804 213.45 771.777 213.415C771.723 213.344 771.67 213.275 771.616 213.206ZM657.963 213.683C657.969 213.676 657.973 213.669 657.975 213.666C657.971 213.677 657.969 213.687 657.966 213.696C657.964 213.706 657.962 213.715 657.958 213.726L657.825 213.902C657.832 213.881 657.858 213.844 657.884 213.806C657.906 213.774 657.929 213.741 657.941 213.718C657.943 213.71 657.954 213.695 657.963 213.683ZM771.708 213.718L771.699 213.7L771.734 213.718C771.734 213.718 771.759 213.756 771.759 213.752C771.738 213.739 771.725 213.73 771.708 213.718ZM657.984 213.786C657.986 213.783 657.988 213.78 657.988 213.778V213.795H657.979C657.979 213.793 657.981 213.789 657.984 213.786ZM657.902 214.013C657.923 213.955 657.941 213.898 657.958 213.842L657.954 213.898C657.949 213.906 657.945 213.917 657.941 213.928C657.936 213.938 657.932 213.949 657.928 213.958C657.919 213.977 657.91 213.996 657.902 214.013ZM657.878 214.08C657.886 214.058 657.894 214.035 657.902 214.013C657.845 214.135 657.807 214.203 657.792 214.229C657.787 214.238 657.785 214.242 657.786 214.241C657.79 214.237 657.824 214.185 657.878 214.08ZM657.799 214.274L657.919 214.082L657.928 214.073L657.945 213.941C657.92 213.994 657.898 214.041 657.878 214.08C657.853 214.145 657.827 214.209 657.799 214.274ZM657.315 215.047L657.799 214.274C657.667 214.577 657.495 214.867 657.315 215.047ZM657.568 214.313L657.654 214.228L657.531 214.393C657.532 214.387 657.532 214.383 657.533 214.379C657.533 214.366 657.534 214.353 657.568 214.313ZM657.478 214.464L657.531 214.393C657.527 214.405 657.515 214.424 657.478 214.464ZM772.304 214.451L772.287 214.361C772.296 214.375 772.303 214.385 772.308 214.395C772.319 214.412 772.328 214.426 772.347 214.451V214.502L772.304 214.459V214.451ZM772.402 214.579L772.394 214.536C772.408 214.555 772.414 214.568 772.419 214.58C772.425 214.592 772.43 214.604 772.445 214.622L772.402 214.579Z" fill="url(#paint13_angular)"/>
<path d="M768.038 219.419L767.601 278.316L717.103 306.649V248.01L764.175 221.584L768.038 219.419Z" fill="url(#paint14_angular)"/>
<path d="M715.624 185.701L765.839 215.51L714.938 244.113L664.714 214.305L714.333 186.43L715.624 185.701Z" fill="url(#paint15_angular)"/>
<path fill-rule="evenodd" clip-rule="evenodd" d="M715.675 180.887C715.298 180.883 714.912 180.981 714.535 181.187L659.111 212.303C659.103 212.307 659.06 212.333 659.043 212.346L658.983 212.479L658.554 212.753V212.762C658.55 212.766 658.541 212.766 658.537 212.77V212.779C658.507 212.817 658.434 212.907 658.429 212.912L658.387 212.972L658.369 212.997L658.361 213.006L658.352 213.014C658.297 213.117 658.275 213.165 658.245 213.225C658.237 213.246 658.215 213.293 658.211 213.302H658.219C658.215 213.306 658.189 213.336 658.185 213.345C658.181 213.357 658.121 213.439 658.117 213.452L658.108 213.46L658.099 213.469V213.478L658.056 213.585L658.048 213.61L658.039 213.645C658.035 213.666 658.044 213.649 658.039 213.67C658.035 213.683 658.026 213.692 658.022 213.705C658.018 213.718 658.009 213.726 658.005 213.739L657.996 213.773C658.044 213.636 657.992 213.799 657.971 213.872V214.266L657.182 277.771C657.169 278.552 657.593 279.306 658.254 279.696L713.206 312.647C713.54 312.844 713.965 312.956 714.363 312.956C714.762 312.956 715.114 312.866 715.435 312.681L715.444 312.673L770.902 281.565C771.592 281.184 772.034 280.434 772.051 279.623L772.527 215.617V215.565L772.501 215.467V215.197C772.501 215.184 772.484 215.077 772.484 215.089V215.081C772.471 215.042 772.462 214.995 772.45 214.957C772.394 214.802 772.364 214.708 772.36 214.686C772.36 214.682 772.334 214.626 772.334 214.626L772.308 214.549C772.304 214.541 772.304 214.532 772.3 214.524C772.274 214.464 772.248 214.416 772.21 214.365L772.261 214.425L772.252 214.391L772.227 214.374L772.192 214.313C772.12 214.216 772.031 214.105 771.933 213.982C771.935 213.99 771.919 213.978 771.871 213.928C771.922 213.979 771.772 213.79 771.794 213.82H771.785C771.729 213.782 771.785 213.816 771.742 213.786C771.721 213.765 771.691 213.739 771.691 213.743C771.631 213.7 771.549 213.643 771.507 213.613L771.48 213.595L771.382 213.529L716.799 181.208C716.438 180.998 716.048 180.895 715.658 180.891L715.675 180.887ZM765.839 215.51L715.624 185.701L714.333 186.43L664.714 214.305L714.938 244.113L765.839 215.51ZM712.661 247.972L662.429 218.138L662.378 222.592L661.718 276.532L712.661 307.078V247.972ZM767.601 278.316L768.038 219.419L764.175 221.584L717.103 248.01V306.649L767.601 278.316Z" fill="white"/>
<path d="M473.679 366.937L678.047 266.134" stroke="#28DA8C" stroke-width="7.12007" stroke-linecap="round" stroke-dasharray="14.24 14.24"/>
<path d="M199.098 218.138L148.865 247.972V307.078L199.809 276.532L199.149 222.592L199.098 218.138Z" fill="url(#paint16_angular)"/>
<path fill-rule="evenodd" clip-rule="evenodd" d="M89.596 213.979C89.595 213.98 89.594 213.981 89.594 213.982L89.377 214.232C89.379 214.23 89.384 214.218 89.389 214.204C89.394 214.193 89.398 214.181 89.402 214.172C89.393 214.19 89.386 214.204 89.38 214.216C89.362 214.25 89.352 214.271 89.304 214.339L89.356 214.215C89.368 214.194 89.38 214.176 89.391 214.158C89.416 214.12 89.437 214.086 89.454 214.048C89.462 214.04 89.472 214.012 89.482 213.982C89.495 213.945 89.509 213.903 89.523 213.889L89.583 213.863L89.592 213.855L89.759 213.756C89.73 213.798 89.743 213.786 89.749 213.779C89.753 213.775 89.755 213.774 89.742 213.79C89.715 213.81 89.685 213.834 89.657 213.856C89.618 213.886 89.583 213.913 89.566 213.923L89.656 213.872L89.705 213.839C89.706 213.838 89.707 213.838 89.707 213.838L89.705 213.839C89.688 213.854 89.599 213.964 89.594 213.982L89.596 213.979ZM90.02 213.613L90.047 213.595C90.047 213.595 90.037 213.602 90.02 213.613ZM201.874 211.865C201.869 211.862 201.865 211.859 201.863 211.857V211.853C201.868 211.858 201.871 211.862 201.874 211.865ZM202 211.979C201.959 211.946 201.933 211.92 201.908 211.894C201.902 211.888 201.895 211.881 201.888 211.874C201.884 211.872 201.879 211.869 201.874 211.865C201.876 211.868 201.878 211.871 201.879 211.874C201.884 211.882 201.889 211.89 201.906 211.904C201.919 211.92 201.938 211.934 201.961 211.951C201.973 211.959 201.986 211.969 202 211.979ZM90.398 213.306C90.393 213.306 90.462 213.233 90.496 213.199C90.47 213.223 90.45 213.242 90.432 213.259C90.408 213.282 90.388 213.301 90.363 213.323C90.368 213.323 90.402 213.306 90.398 213.306ZM89.911 213.206L89.913 213.199V213.203C89.913 213.204 89.912 213.205 89.911 213.206ZM89.911 213.206L89.845 213.435L89.669 213.52C89.696 213.485 89.723 213.45 89.749 213.415C89.804 213.344 89.857 213.275 89.911 213.206ZM203.564 213.683C203.558 213.676 203.553 213.669 203.552 213.666C203.556 213.677 203.558 213.687 203.56 213.696C203.563 213.706 203.565 213.715 203.569 213.726L203.702 213.902C203.695 213.881 203.669 213.844 203.643 213.806C203.621 213.774 203.598 213.741 203.586 213.718C203.583 213.71 203.573 213.695 203.564 213.683ZM89.819 213.718L89.827 213.7L89.793 213.718C89.793 213.718 89.767 213.756 89.767 213.752C89.789 213.739 89.802 213.73 89.819 213.718ZM203.543 213.786C203.541 213.783 203.539 213.78 203.539 213.778V213.795H203.548C203.548 213.793 203.545 213.789 203.543 213.786ZM203.625 214.013C203.604 213.955 203.586 213.898 203.569 213.842L203.573 213.898C203.578 213.906 203.582 213.917 203.586 213.928C203.59 213.938 203.595 213.949 203.599 213.958C203.608 213.977 203.617 213.996 203.625 214.013ZM203.649 214.08C203.641 214.058 203.633 214.035 203.625 214.013C203.682 214.135 203.72 214.203 203.734 214.229C203.739 214.238 203.741 214.242 203.74 214.241C203.737 214.237 203.703 214.185 203.649 214.08ZM203.728 214.274L203.608 214.082L203.599 214.073L203.582 213.941C203.606 213.994 203.629 214.041 203.649 214.08C203.673 214.145 203.7 214.209 203.728 214.274ZM204.212 215.047L203.728 214.274C203.86 214.577 204.032 214.867 204.212 215.047ZM203.959 214.313L203.873 214.228L203.996 214.393C203.995 214.387 203.995 214.383 203.994 214.379C203.993 214.366 203.993 214.353 203.959 214.313ZM204.049 214.464L203.996 214.393C204 214.405 204.011 214.424 204.049 214.464ZM89.223 214.451L89.24 214.361C89.231 214.375 89.224 214.385 89.218 214.395C89.208 214.412 89.199 214.426 89.18 214.451V214.502L89.223 214.459V214.451ZM89.124 214.579L89.133 214.536C89.118 214.555 89.113 214.568 89.108 214.58C89.102 214.592 89.097 214.604 89.082 214.622L89.124 214.579Z" fill="url(#paint17_angular)"/>
<path d="M93.4888 219.419L93.9258 278.316L144.424 306.649V248.01L97.3508 221.584L93.4888 219.419Z" fill="url(#paint18_angular)"/>
<path d="M145.903 185.701L95.688 215.51L146.589 244.113L196.812 214.305L147.193 186.43L145.903 185.701Z" fill="url(#paint19_angular)"/>
<path fill-rule="evenodd" clip-rule="evenodd" d="M145.852 180.887C146.229 180.883 146.615 180.981 146.992 181.187L202.416 212.303C202.424 212.307 202.467 212.333 202.484 212.346L202.544 212.479L202.973 212.753V212.762C202.977 212.766 202.986 212.766 202.99 212.77V212.779C203.02 212.817 203.093 212.907 203.097 212.912L203.14 212.972L203.157 212.997L203.166 213.006L203.175 213.014C203.23 213.117 203.252 213.165 203.282 213.225C203.29 213.246 203.312 213.293 203.316 213.302H203.307C203.312 213.306 203.337 213.336 203.342 213.345C203.346 213.357 203.406 213.439 203.41 213.452L203.419 213.46L203.427 213.469V213.478L203.47 213.585L203.479 213.61L203.488 213.645C203.492 213.666 203.483 213.649 203.488 213.67C203.492 213.683 203.5 213.692 203.505 213.705C203.509 213.718 203.518 213.726 203.522 213.739L203.53 213.773C203.483 213.636 203.535 213.799 203.556 213.872V214.266L204.345 277.771C204.358 278.552 203.933 279.306 203.273 279.696L148.321 312.647C147.986 312.844 147.562 312.956 147.163 312.956C146.765 312.956 146.413 312.866 146.092 312.681L146.083 312.673L90.625 281.565C89.935 281.184 89.493 280.434 89.476 279.623L89 215.617V215.565L89.026 215.467V215.197C89.026 215.184 89.043 215.077 89.043 215.089V215.081C89.056 215.042 89.064 214.995 89.077 214.957C89.133 214.802 89.163 214.708 89.167 214.686C89.167 214.682 89.193 214.626 89.193 214.626L89.219 214.549C89.223 214.541 89.223 214.532 89.227 214.524C89.253 214.464 89.279 214.416 89.317 214.365L89.266 214.425L89.274 214.391L89.3 214.374L89.334 214.313C89.407 214.216 89.496 214.105 89.594 213.982C89.592 213.99 89.607 213.978 89.656 213.928C89.605 213.979 89.755 213.79 89.733 213.82H89.742C89.797 213.782 89.742 213.816 89.785 213.786C89.806 213.765 89.836 213.739 89.836 213.743C89.896 213.7 89.978 213.643 90.02 213.613L90.047 213.595L90.145 213.529L144.728 181.208C145.088 180.998 145.479 180.895 145.869 180.891L145.852 180.887ZM95.688 215.51L145.903 185.701L147.193 186.43L196.812 214.305L146.589 244.113L95.688 215.51ZM148.865 247.972L199.098 218.138L199.149 222.592L199.809 276.532L148.865 307.078V247.972ZM93.926 278.316L93.489 219.419L97.351 221.584L144.424 248.01V306.649L93.926 278.316Z" fill="white"/>
<path d="M183.555 262.095L382.716 372.831" stroke="#28DA8C" stroke-width="7.12007" stroke-linecap="round" stroke-dasharray="14.24 14.24"/>
<path d="M366.235 350.571L416.467 380.405V439.512L365.523 408.966L366.184 355.026L366.235 350.571Z" fill="url(#paint20_angular)"/>
<path fill-rule="evenodd" clip-rule="evenodd" d="M475.737 346.413C475.737 346.414 475.738 346.415 475.739 346.416L475.955 346.666C475.953 346.663 475.948 346.651 475.943 346.638C475.939 346.627 475.934 346.615 475.93 346.605C475.94 346.623 475.947 346.637 475.953 346.649C475.97 346.684 475.981 346.705 476.028 346.773L475.977 346.648C475.964 346.628 475.952 346.609 475.941 346.591C475.917 346.553 475.896 346.519 475.878 346.481C475.87 346.474 475.861 346.446 475.85 346.416C475.838 346.378 475.824 346.337 475.809 346.323L475.749 346.297L475.741 346.288L475.574 346.19C475.602 346.231 475.59 346.219 475.583 346.213C475.579 346.209 475.577 346.207 475.591 346.224C475.618 346.244 475.648 346.267 475.676 346.289C475.714 346.32 475.749 346.347 475.767 346.357L475.677 346.306L475.628 346.273C475.626 346.272 475.625 346.271 475.625 346.271L475.628 346.273C475.644 346.288 475.733 346.398 475.739 346.416L475.737 346.413ZM475.312 346.047L475.286 346.028C475.286 346.028 475.296 346.035 475.312 346.047ZM363.459 344.299C363.464 344.296 363.468 344.293 363.47 344.291V344.286C363.465 344.291 363.461 344.295 363.459 344.299ZM363.333 344.413C363.373 344.38 363.399 344.353 363.424 344.328C363.431 344.321 363.437 344.314 363.444 344.308C363.448 344.306 363.454 344.302 363.459 344.299C363.457 344.302 363.455 344.305 363.453 344.308C363.449 344.315 363.444 344.323 363.427 344.338C363.414 344.353 363.395 344.367 363.371 344.384C363.359 344.393 363.347 344.402 363.333 344.413ZM474.935 345.74C474.939 345.74 474.871 345.667 474.836 345.632C474.862 345.656 474.882 345.676 474.9 345.693C474.924 345.716 474.945 345.735 474.969 345.757C474.965 345.757 474.931 345.74 474.935 345.74ZM475.421 345.639L475.419 345.632V345.637C475.42 345.638 475.421 345.638 475.421 345.639ZM475.421 345.639L475.488 345.868L475.664 345.954C475.636 345.918 475.609 345.883 475.583 345.849C475.528 345.777 475.476 345.708 475.421 345.639ZM361.769 346.117C361.774 346.11 361.779 346.103 361.781 346.1C361.776 346.11 361.774 346.12 361.772 346.13C361.77 346.139 361.768 346.149 361.764 346.16L361.631 346.336C361.638 346.315 361.663 346.277 361.69 346.239C361.712 346.207 361.735 346.175 361.746 346.151C361.749 346.143 361.76 346.129 361.769 346.117ZM475.514 346.151L475.505 346.134L475.539 346.151C475.539 346.151 475.565 346.19 475.565 346.185C475.544 346.173 475.531 346.164 475.514 346.151ZM361.789 346.22C361.791 346.217 361.794 346.213 361.794 346.211V346.228H361.785C361.785 346.226 361.787 346.223 361.789 346.22ZM361.708 346.447C361.728 346.389 361.747 346.332 361.764 346.276L361.759 346.331C361.755 346.34 361.751 346.351 361.746 346.361C361.742 346.372 361.738 346.383 361.734 346.391C361.725 346.411 361.716 346.429 361.708 346.447ZM361.683 346.514C361.692 346.491 361.7 346.469 361.708 346.447C361.65 346.569 361.612 346.637 361.598 346.662C361.593 346.671 361.591 346.675 361.592 346.674C361.595 346.671 361.63 346.618 361.683 346.514ZM361.605 346.707L361.725 346.516L361.734 346.507L361.751 346.374C361.726 346.428 361.703 346.475 361.683 346.514C361.659 346.578 361.633 346.643 361.605 346.707ZM361.12 347.48L361.605 346.707C361.473 347.01 361.3 347.3 361.12 347.48ZM361.373 346.747L361.459 346.661L361.336 346.826C361.338 346.821 361.338 346.817 361.338 346.812C361.339 346.8 361.34 346.787 361.373 346.747ZM361.283 346.897L361.336 346.826C361.333 346.839 361.321 346.858 361.283 346.897ZM476.11 346.884L476.092 346.794C476.102 346.808 476.108 346.819 476.114 346.828C476.125 346.846 476.133 346.86 476.152 346.884V346.936L476.11 346.893V346.884ZM476.208 347.013L476.2 346.97C476.214 346.989 476.22 347.001 476.225 347.013C476.23 347.026 476.235 347.038 476.251 347.056L476.208 347.013Z" fill="url(#paint21_angular)"/>
<path d="M471.844 351.853L471.407 410.749L420.909 439.083V380.444L467.981 354.018L471.844 351.853Z" fill="url(#paint22_angular)"/>
<path d="M419.43 318.135L469.645 347.943L418.744 376.547L368.52 346.739L418.139 318.864L419.43 318.135Z" fill="url(#paint23_angular)"/>
<path fill-rule="evenodd" clip-rule="evenodd" d="M419.481 313.32C419.104 313.316 418.718 313.415 418.341 313.621L362.917 344.736C362.908 344.741 362.865 344.766 362.848 344.779L362.788 344.912L362.359 345.187V345.195C362.355 345.199 362.347 345.199 362.342 345.204V345.212C362.312 345.251 362.239 345.341 362.235 345.345L362.192 345.405L362.175 345.431L362.167 345.44L362.158 345.448C362.102 345.551 362.081 345.598 362.051 345.658C362.042 345.68 362.021 345.727 362.016 345.735H362.025C362.021 345.74 361.995 345.77 361.991 345.778C361.986 345.791 361.926 345.873 361.922 345.885L361.914 345.894L361.905 345.903V345.911L361.862 346.018L361.854 346.044L361.845 346.078C361.841 346.1 361.849 346.083 361.845 346.104C361.841 346.117 361.832 346.125 361.828 346.138C361.824 346.151 361.815 346.16 361.811 346.173L361.802 346.207C361.849 346.07 361.798 346.233 361.776 346.306V346.7L360.988 410.205C360.975 410.985 361.399 411.74 362.059 412.13L417.012 445.081C417.346 445.278 417.77 445.389 418.169 445.389C418.568 445.389 418.919 445.299 419.241 445.115L419.25 445.106L474.708 413.999C475.398 413.618 475.839 412.867 475.857 412.057L476.332 348.05V347.999L476.307 347.9V347.63C476.307 347.617 476.29 347.51 476.29 347.523V347.514C476.277 347.476 476.268 347.429 476.255 347.39C476.2 347.236 476.17 347.142 476.165 347.12C476.165 347.116 476.14 347.06 476.14 347.06L476.114 346.983C476.11 346.974 476.11 346.966 476.105 346.957C476.08 346.897 476.054 346.85 476.015 346.799L476.067 346.859L476.058 346.824L476.032 346.807L475.998 346.747C475.926 346.649 475.837 346.539 475.739 346.416C475.741 346.423 475.725 346.411 475.677 346.361C475.728 346.413 475.578 346.224 475.599 346.254H475.591C475.535 346.215 475.591 346.25 475.548 346.22C475.526 346.198 475.496 346.173 475.496 346.177C475.437 346.134 475.354 346.076 475.312 346.047L475.286 346.028L475.188 345.963L420.604 313.642C420.244 313.432 419.854 313.329 419.464 313.325L419.481 313.32ZM469.645 347.943L419.43 318.135L418.139 318.864L368.52 346.739L418.744 376.547L469.645 347.943ZM416.467 380.405L366.235 350.571L366.184 355.026L365.523 408.966L416.467 439.512V380.405ZM471.407 410.749L471.844 351.853L467.981 354.018L420.909 380.444V439.083L471.407 410.749Z" fill="white"/>
<path d="M174.496 506.443L383.231 395.856" stroke="#28DA8C" stroke-width="7.12007" stroke-linecap="round" stroke-dasharray="14.24 14.24"/>
<path d="M455.527 397.705L659.566 490.163" stroke="#28DA8C" stroke-width="7.12007" stroke-linecap="round" stroke-dasharray="14.24 14.24"/>
<path d="M366.235 606.892L416.467 636.726V695.832L365.523 665.286L366.184 611.346L366.235 606.892Z" fill="url(#paint24_angular)"/>
<path fill-rule="evenodd" clip-rule="evenodd" d="M475.737 602.733C475.737 602.734 475.738 602.735 475.739 602.736L475.955 602.986C475.953 602.983 475.948 602.972 475.943 602.958C475.939 602.947 475.934 602.935 475.93 602.926C475.94 602.944 475.947 602.958 475.953 602.97C475.97 603.004 475.981 603.025 476.028 603.093L475.977 602.969C475.964 602.948 475.952 602.93 475.941 602.912C475.917 602.874 475.896 602.84 475.878 602.802C475.87 602.794 475.861 602.766 475.85 602.736C475.838 602.699 475.824 602.657 475.809 602.643L475.749 602.617L475.741 602.609L475.574 602.51C475.602 602.552 475.59 602.54 475.583 602.533C475.579 602.529 475.577 602.528 475.591 602.544C475.618 602.564 475.648 602.588 475.676 602.61C475.714 602.64 475.749 602.667 475.767 602.677L475.677 602.626L475.628 602.593C475.626 602.592 475.625 602.592 475.625 602.592L475.628 602.593C475.644 602.608 475.733 602.718 475.739 602.736L475.737 602.733ZM475.312 602.367L475.286 602.349C475.286 602.349 475.296 602.356 475.312 602.367ZM363.459 600.619C363.464 600.616 363.468 600.613 363.47 600.611V600.607C363.465 600.612 363.461 600.616 363.459 600.619ZM363.333 600.733C363.373 600.7 363.399 600.674 363.424 600.648C363.431 600.642 363.437 600.635 363.444 600.628C363.448 600.626 363.454 600.623 363.459 600.619C363.457 600.622 363.455 600.625 363.453 600.628C363.449 600.636 363.444 600.643 363.427 600.658C363.414 600.674 363.395 600.688 363.371 600.705C363.359 600.713 363.347 600.723 363.333 600.733ZM474.935 602.06C474.939 602.06 474.871 601.987 474.836 601.953C474.862 601.977 474.882 601.996 474.9 602.013C474.924 602.036 474.945 602.055 474.969 602.077C474.965 602.077 474.931 602.06 474.935 602.06ZM475.421 601.96L475.419 601.953V601.957C475.42 601.958 475.421 601.959 475.421 601.96ZM475.421 601.96L475.488 602.189L475.664 602.274C475.636 602.238 475.609 602.203 475.583 602.169C475.528 602.097 475.476 602.028 475.421 601.96ZM361.769 602.437C361.774 602.43 361.779 602.423 361.781 602.42C361.776 602.431 361.774 602.44 361.772 602.45C361.77 602.46 361.768 602.469 361.764 602.48L361.631 602.656C361.638 602.635 361.663 602.598 361.69 602.56C361.712 602.528 361.735 602.495 361.746 602.471C361.749 602.464 361.76 602.449 361.769 602.437ZM475.514 602.471L475.505 602.454L475.539 602.471C475.539 602.471 475.565 602.51 475.565 602.506C475.544 602.493 475.531 602.484 475.514 602.471ZM361.789 602.54C361.791 602.537 361.794 602.534 361.794 602.532V602.549H361.785C361.785 602.547 361.787 602.543 361.789 602.54ZM361.708 602.767C361.728 602.709 361.747 602.652 361.764 602.596L361.759 602.652C361.755 602.66 361.751 602.671 361.746 602.682C361.742 602.692 361.738 602.703 361.734 602.712C361.725 602.731 361.716 602.75 361.708 602.767ZM361.683 602.834C361.692 602.812 361.7 602.789 361.708 602.767C361.65 602.889 361.612 602.957 361.598 602.983C361.593 602.992 361.591 602.996 361.592 602.995C361.595 602.991 361.63 602.939 361.683 602.834ZM361.605 603.028L361.725 602.836L361.734 602.827L361.751 602.694C361.726 602.748 361.703 602.795 361.683 602.834C361.659 602.899 361.633 602.963 361.605 603.028ZM361.12 603.8L361.605 603.028C361.473 603.33 361.3 603.621 361.12 603.8ZM361.373 603.067L361.459 602.982L361.336 603.147C361.338 603.141 361.338 603.137 361.338 603.133C361.339 603.12 361.34 603.107 361.373 603.067ZM361.283 603.217L361.336 603.147C361.333 603.159 361.321 603.178 361.283 603.217ZM476.11 603.205L476.092 603.115C476.102 603.129 476.108 603.139 476.114 603.149C476.125 603.166 476.133 603.18 476.152 603.205V603.256L476.11 603.213V603.205ZM476.208 603.333L476.2 603.29C476.214 603.309 476.22 603.322 476.225 603.334C476.23 603.346 476.235 603.358 476.251 603.376L476.208 603.333Z" fill="url(#paint25_angular)"/>
<path d="M471.844 608.173L471.407 667.07L420.909 695.403V636.764L467.981 610.338L471.844 608.173Z" fill="url(#paint26_angular)"/>
<path d="M419.43 574.455L469.645 604.264L418.744 632.867L368.52 603.059L418.139 575.184L419.43 574.455Z" fill="url(#paint27_angular)"/>
<path fill-rule="evenodd" clip-rule="evenodd" d="M419.481 569.641C419.104 569.636 418.718 569.735 418.341 569.941L362.917 601.057C362.908 601.061 362.865 601.087 362.848 601.1L362.788 601.233L362.359 601.507V601.515C362.355 601.52 362.347 601.52 362.342 601.524V601.533C362.312 601.571 362.239 601.661 362.235 601.666L362.192 601.726L362.175 601.751L362.167 601.76L362.158 601.768C362.102 601.871 362.081 601.918 362.051 601.978C362.042 602 362.021 602.047 362.016 602.056H362.025C362.021 602.06 361.995 602.09 361.991 602.099C361.986 602.111 361.926 602.193 361.922 602.206L361.914 602.214L361.905 602.223V602.231L361.862 602.339L361.854 602.364L361.845 602.399C361.841 602.42 361.849 602.403 361.845 602.424C361.841 602.437 361.832 602.446 361.828 602.459C361.824 602.471 361.815 602.48 361.811 602.493L361.802 602.527C361.849 602.39 361.798 602.553 361.776 602.626V603.02L360.988 666.525C360.975 667.306 361.399 668.06 362.059 668.45L417.012 701.401C417.346 701.598 417.77 701.71 418.169 701.71C418.568 701.71 418.919 701.62 419.241 701.435L419.25 701.427L474.708 670.319C475.398 669.938 475.839 669.188 475.857 668.377L476.332 604.371V604.319L476.307 604.221V603.951C476.307 603.938 476.29 603.831 476.29 603.843V603.835C476.277 603.796 476.268 603.749 476.255 603.71C476.2 603.556 476.17 603.462 476.165 603.44C476.165 603.436 476.14 603.38 476.14 603.38L476.114 603.303C476.11 603.295 476.11 603.286 476.105 603.277C476.08 603.217 476.054 603.17 476.015 603.119L476.067 603.179L476.058 603.145L476.032 603.127L475.998 603.067C475.926 602.97 475.837 602.859 475.739 602.736C475.741 602.744 475.725 602.731 475.677 602.682C475.728 602.733 475.578 602.544 475.599 602.574H475.591C475.535 602.536 475.591 602.57 475.548 602.54C475.526 602.519 475.496 602.493 475.496 602.497C475.437 602.454 475.354 602.396 475.312 602.367L475.286 602.349L475.188 602.283L420.604 569.962C420.244 569.752 419.854 569.649 419.464 569.645L419.481 569.641ZM469.645 604.264L419.43 574.455L418.139 575.184L368.52 603.059L418.744 632.867L469.645 604.264ZM416.467 636.726L366.235 606.892L366.184 611.346L365.523 665.286L416.467 695.832V636.726ZM471.407 667.07L471.844 608.173L467.981 610.338L420.909 636.764V695.403L471.407 667.07Z" fill="white"/>
</g>
<defs>
<filter id="filter0_d" x="168.088" y="169.844" width="742.609" height="726.69" filterUnits="userSpaceOnUse" color-interpolation-filters="sRGB">
<feFlood flood-opacity="0" result="BackgroundImageFix"/>
<feColorMatrix in="SourceAlpha" type="matrix" values="0 0 0 0 0 0 0 0 0 0 0 0 0 0 0 0 0 0 127 0"/>
<feOffset dx="25.6323" dy="56.9606"/>
<feGaussianBlur stdDeviation="56.9606"/>
<feColorMatrix type="matrix" values="0 0 0 0 0.0367386 0 0 0 0 0.0194851 0 0 0 0 0.162442 0 0 0 1 0"/>
<feBlend mode="normal" in2="BackgroundImageFix" result="effect1_dropShadow"/>
<feBlend mode="normal" in="SourceGraphic" in2="effect1_dropShadow" result="shape"/>
</filter>
<filter id="filter1_d" x="0.711096" y="0.0352783" width="911.369" height="872.557" filterUnits="userSpaceOnUse" color-interpolation-filters="sRGB">
<feFlood flood-opacity="0" result="BackgroundImageFix"/>
<feColorMatrix in="SourceAlpha" type="matrix" values="0 0 0 0 0 0 0 0 0 0 0 0 0 0 0 0 0 0 127 0"/>
<feOffset dx="25.6323" dy="56.9606"/>
<feGaussianBlur stdDeviation="56.9606"/>
<feColorMatrix type="matrix" values="0 0 0 0 0.0367386 0 0 0 0 0.0194851 0 0 0 0 0.162442 0 0 0 1 0"/>
<feBlend mode="normal" in2="BackgroundImageFix" result="effect1_dropShadow"/>
<feBlend mode="normal" in="SourceGraphic" in2="effect1_dropShadow" result="shape"/>
</filter>
<radialGradient id="paint0_angular" cx="0" cy="0" r="1" gradientUnits="userSpaceOnUse" gradientTransform="translate(418.66 123.031) rotate(-27.4415) scale(3.29191 1.90879)">
<stop stop-color="#28DA8C"/>
<stop offset="0.985486" stop-color="#BBFDE0"/>
</radialGradient>
<radialGradient id="paint1_angular" cx="0" cy="0" r="1" gradientUnits="userSpaceOnUse" gradientTransform="translate(418.66 123.031) rotate(-27.4415) scale(3.29191 1.90879)">
<stop stop-color="#28DA8C"/>
<stop offset="0.985486" stop-color="#BBFDE0"/>
</radialGradient>
<radialGradient id="paint2_angular" cx="0" cy="0" r="1" gradientUnits="userSpaceOnUse" gradientTransform="translate(418.66 123.031) rotate(-27.4415) scale(3.29191 1.90879)">
<stop stop-color="#28DA8C"/>
<stop offset="0.985486" stop-color="#BBFDE0"/>
</radialGradient>
<radialGradient id="paint3_angular" cx="0" cy="0" r="1" gradientUnits="userSpaceOnUse" gradientTransform="translate(418.66 123.031) rotate(-27.4415) scale(3.29191 1.90879)">
<stop stop-color="#28DA8C"/>
<stop offset="0.985486" stop-color="#BBFDE0"/>
</radialGradient>
<radialGradient id="paint4_angular" cx="0" cy="0" r="1" gradientUnits="userSpaceOnUse" gradientTransform="translate(714.855 503.242) rotate(-27.4415) scale(3.29191 1.90879)">
<stop stop-color="#28DA8C"/>
<stop offset="0.985486" stop-color="#BBFDE0"/>
</radialGradient>
<radialGradient id="paint5_angular" cx="0" cy="0" r="1" gradientUnits="userSpaceOnUse" gradientTransform="translate(714.855 503.242) rotate(-27.4417) scale(3.29192 1.9088)">
<stop stop-color="#28DA8C"/>
<stop offset="0.985486" stop-color="#BBFDE0"/>
</radialGradient>
<radialGradient id="paint6_angular" cx="0" cy="0" r="1" gradientUnits="userSpaceOnUse" gradientTransform="translate(714.855 503.242) rotate(-27.4415) scale(3.29191 1.90879)">
<stop stop-color="#28DA8C"/>
<stop offset="0.985486" stop-color="#BBFDE0"/>
</radialGradient>
<radialGradient id="paint7_angular" cx="0" cy="0" r="1" gradientUnits="userSpaceOnUse" gradientTransform="translate(714.855 503.242) rotate(-27.4415) scale(3.29191 1.90879)">
<stop stop-color="#28DA8C"/>
<stop offset="0.985486" stop-color="#BBFDE0"/>
</radialGradient>
<radialGradient id="paint8_angular" cx="0" cy="0" r="1" gradientUnits="userSpaceOnUse" gradientTransform="translate(146.673 503.242) rotate(-152.559) scale(3.29191 1.90879)">
<stop stop-color="#28DA8C"/>
<stop offset="0.985486" stop-color="#BBFDE0"/>
</radialGradient>
<radialGradient id="paint9_angular" cx="0" cy="0" r="1" gradientUnits="userSpaceOnUse" gradientTransform="translate(146.673 503.242) rotate(-152.559) scale(3.29192 1.9088)">
<stop stop-color="#28DA8C"/>
<stop offset="0.985486" stop-color="#BBFDE0"/>
</radialGradient>
<radialGradient id="paint10_angular" cx="0" cy="0" r="1" gradientUnits="userSpaceOnUse" gradientTransform="translate(146.673 503.242) rotate(-152.559) scale(3.29191 1.90879)">
<stop stop-color="#28DA8C"/>
<stop offset="0.985486" stop-color="#BBFDE0"/>
</radialGradient>
<radialGradient id="paint11_angular" cx="0" cy="0" r="1" gradientUnits="userSpaceOnUse" gradientTransform="translate(146.673 503.242) rotate(-152.559) scale(3.29191 1.90879)">
<stop stop-color="#28DA8C"/>
<stop offset="0.985486" stop-color="#BBFDE0"/>
</radialGradient>
<radialGradient id="paint12_angular" cx="0" cy="0" r="1" gradientUnits="userSpaceOnUse" gradientTransform="translate(714.854 246.921) rotate(-27.4415) scale(3.29191 1.90879)">
<stop stop-color="#28DA8C"/>
<stop offset="0.985486" stop-color="#BBFDE0"/>
</radialGradient>
<radialGradient id="paint13_angular" cx="0" cy="0" r="1" gradientUnits="userSpaceOnUse" gradientTransform="translate(714.854 246.921) rotate(-27.4415) scale(3.29191 1.90879)">
<stop stop-color="#28DA8C"/>
<stop offset="0.985486" stop-color="#BBFDE0"/>
</radialGradient>
<radialGradient id="paint14_angular" cx="0" cy="0" r="1" gradientUnits="userSpaceOnUse" gradientTransform="translate(714.854 246.921) rotate(-27.4415) scale(3.29191 1.90879)">
<stop stop-color="#28DA8C"/>
<stop offset="0.985486" stop-color="#BBFDE0"/>
</radialGradient>
<radialGradient id="paint15_angular" cx="0" cy="0" r="1" gradientUnits="userSpaceOnUse" gradientTransform="translate(714.854 246.921) rotate(-27.4415) scale(3.29191 1.90879)">
<stop stop-color="#28DA8C"/>
<stop offset="0.985486" stop-color="#BBFDE0"/>
</radialGradient>
<radialGradient id="paint16_angular" cx="0" cy="0" r="1" gradientUnits="userSpaceOnUse" gradientTransform="translate(146.673 246.921) rotate(-152.559) scale(3.29191 1.90879)">
<stop stop-color="#28DA8C"/>
<stop offset="0.985486" stop-color="#BBFDE0"/>
</radialGradient>
<radialGradient id="paint17_angular" cx="0" cy="0" r="1" gradientUnits="userSpaceOnUse" gradientTransform="translate(146.673 246.921) rotate(-152.559) scale(3.29191 1.90879)">
<stop stop-color="#28DA8C"/>
<stop offset="0.985486" stop-color="#BBFDE0"/>
</radialGradient>
<radialGradient id="paint18_angular" cx="0" cy="0" r="1" gradientUnits="userSpaceOnUse" gradientTransform="translate(146.673 246.921) rotate(-152.559) scale(3.29191 1.90879)">
<stop stop-color="#28DA8C"/>
<stop offset="0.985486" stop-color="#BBFDE0"/>
</radialGradient>
<radialGradient id="paint19_angular" cx="0" cy="0" r="1" gradientUnits="userSpaceOnUse" gradientTransform="translate(146.673 246.921) rotate(-152.559) scale(3.29191 1.90879)">
<stop stop-color="#28DA8C"/>
<stop offset="0.985486" stop-color="#BBFDE0"/>
</radialGradient>
<radialGradient id="paint20_angular" cx="0" cy="0" r="1" gradientUnits="userSpaceOnUse" gradientTransform="translate(418.66 379.355) rotate(-27.4415) scale(3.29191 1.90879)">
<stop stop-color="#28DA8C"/>
<stop offset="0.985486" stop-color="#BBFDE0"/>
</radialGradient>
<radialGradient id="paint21_angular" cx="0" cy="0" r="1" gradientUnits="userSpaceOnUse" gradientTransform="translate(418.66 379.355) rotate(-27.4415) scale(3.29191 1.90879)">
<stop stop-color="#28DA8C"/>
<stop offset="0.985486" stop-color="#BBFDE0"/>
</radialGradient>
<radialGradient id="paint22_angular" cx="0" cy="0" r="1" gradientUnits="userSpaceOnUse" gradientTransform="translate(418.66 379.355) rotate(-27.4415) scale(3.29191 1.90879)">
<stop stop-color="#28DA8C"/>
<stop offset="0.985486" stop-color="#BBFDE0"/>
</radialGradient>
<radialGradient id="paint23_angular" cx="0" cy="0" r="1" gradientUnits="userSpaceOnUse" gradientTransform="translate(418.66 379.355) rotate(-27.4415) scale(3.29191 1.90879)">
<stop stop-color="#28DA8C"/>
<stop offset="0.985486" stop-color="#BBFDE0"/>
</radialGradient>
<radialGradient id="paint24_angular" cx="0" cy="0" r="1" gradientUnits="userSpaceOnUse" gradientTransform="translate(418.66 635.675) rotate(-27.4415) scale(3.29191 1.90879)">
<stop stop-color="#28DA8C"/>
<stop offset="0.985486" stop-color="#BBFDE0"/>
</radialGradient>
<radialGradient id="paint25_angular" cx="0" cy="0" r="1" gradientUnits="userSpaceOnUse" gradientTransform="translate(418.66 635.675) rotate(-27.4415) scale(3.29191 1.90879)">
<stop stop-color="#28DA8C"/>
<stop offset="0.985486" stop-color="#BBFDE0"/>
</radialGradient>
<radialGradient id="paint26_angular" cx="0" cy="0" r="1" gradientUnits="userSpaceOnUse" gradientTransform="translate(418.66 635.675) rotate(-27.4415) scale(3.29191 1.90879)">
<stop stop-color="#28DA8C"/>
<stop offset="0.985486" stop-color="#BBFDE0"/>
</radialGradient>
<radialGradient id="paint27_angular" cx="0" cy="0" r="1" gradientUnits="userSpaceOnUse" gradientTransform="translate(418.66 635.675) rotate(-27.4415) scale(3.29191 1.90879)">
<stop stop-color="#28DA8C"/>
<stop offset="0.985486" stop-color="#BBFDE0"/>
</radialGradient>
</defs>
</svg>
