<svg width="530" height="275" viewBox="0 0 530 275" fill="none" xmlns="http://www.w3.org/2000/svg">
<g filter="url(#filter0_d)">
<path d="M180.243 188.273C179.995 188.461 179.721 188.663 179.433 188.871C178.414 189.613 177.167 190.473 175.845 191.351L174.618 192.157C172.571 193.484 170.483 194.781 168.878 195.69C163.899 198.35 158.538 200.166 152.582 202.057C137.67 205.798 123.163 204.604 109.452 198.527L108.884 198.283C97.2494 193.508 88.1284 186.566 81.0004 177.068L80.7564 177.256L84.1054 217.15L45.9014 204.591C45.8024 204.466 45.7074 204.337 45.6084 204.211C57.4684 220.014 73.0354 231.977 91.8784 239.771C105.745 245.904 120.718 249.069 135.855 249.068C145.392 249.055 154.89 247.832 164.126 245.428L164.69 245.281L165.246 245.105C173.048 242.641 181.383 239.852 189.954 235.226L190.286 235.043C193.544 233.214 197.643 230.644 201.324 228.157L202.993 227.016C204.423 226.026 205.755 225.068 206.897 224.202L207.712 221.884L220.349 185.938L180.243 188.273Z" fill="url(#paint0_linear)"/>
<path d="M135.854 251C120.461 251.008 105.234 247.79 91.134 241.549C71.98 233.624 56.149 221.452 44.084 205.377L46.172 203.745L46.487 202.747L81.947 214.405L78.758 176.353L81.368 174.354L82.525 175.894C89.439 185.107 98.297 191.844 109.609 196.487L110.203 196.74C118.448 200.401 127.052 202.249 135.783 202.249C141.274 202.229 146.742 201.538 152.068 200.189C157.639 198.422 163.047 196.616 167.972 193.981C169.457 193.139 171.503 191.879 173.591 190.521L174.809 189.725C176.138 188.842 177.357 188.001 178.326 187.298C178.603 187.096 178.864 186.903 179.102 186.723L179.565 186.371L223.129 183.824L208.516 225.388L208.055 225.738C206.92 226.6 205.583 227.563 204.084 228.604L202.407 229.751C198.516 232.379 194.444 234.92 191.227 236.726L190.88 236.917C182.144 241.627 173.716 244.453 165.827 246.945L165.176 247.149L164.612 247.296C155.217 249.74 145.555 250.984 135.854 251ZM51.481 208.457C62.503 221.32 76.302 231.233 92.603 237.976L92.642 237.992C106.267 244.023 120.98 247.132 135.854 247.122C145.231 247.107 154.569 245.904 163.65 243.542L164.166 243.409L164.675 243.249C172.391 240.812 180.624 238.054 189.052 233.509L189.367 233.334C192.439 231.609 196.516 229.067 200.259 226.539L201.917 225.404C203.164 224.542 204.296 223.73 205.285 222.991L217.577 188.028L180.93 190.171L180.558 190.443C179.547 191.177 178.285 192.049 176.904 192.966L175.669 193.779C173.465 195.212 171.395 196.485 169.821 197.378L169.78 197.401C164.552 200.194 158.937 202.069 153.162 203.9L153.051 203.931C147.405 205.365 141.607 206.1 135.786 206.12C126.516 206.12 117.399 204.161 108.689 200.294L108.145 200.062C98.106 195.939 89.879 190.231 83.142 182.702L86.263 219.889L51.481 208.457Z" fill="white"/>
<path d="M66.4531 126.098C66.7861 120.409 68.3831 114.186 71.5951 106.033C76.9961 93.165 85.8591 82.696 98.6791 74.038L98.5941 74.094L58.4221 73.782L74.2091 36.723L74.1311 36.604C54.0031 50.168 39.3501 67.733 30.5771 88.784L30.4201 89.158C27.1551 97.423 22.7291 110.074 22.0471 124.417L22.0221 124.951V125.485C22.0221 127.018 21.9951 128.599 21.9681 130.272C21.8901 135.897 21.7761 142.274 22.6771 149.099L22.6931 149.22C25.2611 167.906 31.5391 184.282 41.8261 199.074L42.9851 200.71C43.8331 201.886 44.7071 203.053 45.6071 204.212C45.7061 204.338 45.8011 204.467 45.9001 204.592L84.1041 217.151L80.7551 177.257L80.7081 176.687C79.5821 175.255 78.5331 173.8 77.5461 172.326L76.7301 171.095C71.3951 162.761 68.1701 153.718 66.7041 143.112C66.2511 139.623 66.3201 135.445 66.3901 131.015C66.4191 129.428 66.4531 127.789 66.4531 126.098Z" fill="url(#paint1_linear)"/>
<path d="M86.2552 219.889L44.7582 206.248L44.3992 205.791C44.3402 205.714 44.2812 205.638 44.2252 205.561L44.1022 205.402C43.1772 204.213 42.2812 203.015 41.4372 201.848L40.2712 200.199C29.7802 185.114 23.4222 168.523 20.7972 149.486L20.7872 149.355C19.8602 142.385 19.9652 135.93 20.0602 130.238C20.0882 128.572 20.1132 127 20.1132 125.484V124.856L20.1392 124.323C20.8282 109.679 25.3242 96.832 28.6422 88.439L28.7992 88.0469C37.7322 66.6169 52.6222 48.7709 73.0662 34.9919L74.6602 33.918L76.3732 36.5219L61.3212 71.8699L98.6092 72.155L98.5942 73.9059L99.7442 75.6429C87.2462 84.0869 78.6182 94.2659 73.3672 106.771C70.2382 114.712 68.6952 120.696 68.3662 126.162C68.3662 127.835 68.3342 129.457 68.3072 131.026C68.2352 135.405 68.1672 139.515 68.6032 142.861C70.0212 153.137 73.2082 162.033 78.3382 170.043L79.1362 171.248C80.1222 172.717 81.1582 174.147 82.2072 175.484L82.5662 175.941L86.2552 219.889ZM47.0462 202.93L81.9472 214.405L78.8432 177.424C77.8582 176.151 76.8892 174.799 75.9562 173.408L75.1352 172.168C69.6792 163.649 66.3042 154.24 64.8042 143.378C64.3312 139.733 64.3992 135.485 64.4732 130.986C64.5002 129.385 64.5272 127.758 64.5332 126.09V125.982C64.8792 120.067 66.5082 113.693 69.8082 105.314L69.8252 105.275C74.6552 93.766 82.1632 84.1349 92.6912 75.9769L55.5212 75.6899L69.8842 41.9749C52.7892 54.7559 40.1762 70.7269 32.3422 89.5389L32.1962 89.8969C28.9842 98.0149 24.6282 110.456 23.9652 124.513L23.9372 124.995V125.484C23.9372 127.032 23.9102 128.619 23.8832 130.3C23.7922 135.86 23.6862 142.159 24.5682 148.843L24.5842 148.96C27.1212 167.375 33.2712 183.403 43.3932 197.959L44.5432 199.581C45.3302 200.673 46.1772 201.805 47.0512 202.93H47.0462Z" fill="white"/>
<path d="M219.756 54.243C217.382 52.104 213.664 49.099 209.049 45.393C207.424 44.086 205.742 42.737 205.063 42.165L204.627 41.797L204.172 41.452C167.188 13.412 119.204 10.306 80.1194 32.893L78.3984 33.91C77.0254 34.736 75.6604 35.593 74.3044 36.483L74.2034 36.721L58.4224 73.781L98.5953 74.086L98.6804 74.03C100.158 73.058 101.66 72.149 103.188 71.304L104.477 70.61C127.549 58.484 155.35 60.792 177.132 77.085C178.187 77.959 179.639 79.124 181.407 80.545C184.261 82.838 188.572 86.301 190.208 87.774L189.961 87.521L178.798 47.429L219.755 54.243H219.756Z" fill="url(#paint2_linear)"/>
<path d="M190.285 90.435L188.934 89.222C187.337 87.79 183.051 84.34 180.216 82.059L180.168 82.021C178.404 80.604 177.007 79.474 175.955 78.612C163.923 69.625 149.922 64.867 135.468 64.867C124.986 64.883 114.661 67.44 105.359 72.323L104.088 73.007C102.63 73.814 101.156 74.705 99.725 75.648L99.175 76.009H98.578L55.521 75.691L72.779 35.177L73.263 34.859C74.587 33.987 75.985 33.108 77.42 32.244L79.152 31.219C96.388 21.261 115.867 16 135.499 16C160.551 16 184.695 24.266 205.323 39.903L205.853 40.309L206.291 40.679C206.942 41.226 208.582 42.544 210.166 43.817L210.24 43.878C214.879 47.604 218.618 50.627 221.03 52.792L222.438 54.065L220.504 56.33L219.444 56.155L181.457 49.834L191.674 86.515L192.903 87.788L190.285 90.435ZM135.468 61.002C150.764 61.002 165.564 66.026 178.272 75.532L178.346 75.589C179.38 76.445 180.779 77.571 182.55 78.994L182.599 79.032C183.745 79.953 185.128 81.064 186.482 82.163L176.141 45.026L213.146 51.184C211.563 49.893 209.787 48.462 207.852 46.907L207.778 46.848C206.176 45.56 204.518 44.23 203.841 43.652L203.441 43.316L203.025 42.998C183.068 27.867 159.722 19.868 135.501 19.868C116.534 19.868 97.709 24.952 81.071 34.569L79.364 35.579C78.16 36.304 76.974 37.046 75.839 37.786L61.32 71.871L98.037 72.151C99.433 71.245 100.849 70.4 102.268 69.604L103.576 68.9C113.429 63.727 124.366 61.019 135.468 61.002Z" fill="white"/>
<path d="M350.564 188.862C335.911 175.265 323.263 161.961 309.893 147.876C300.791 138.295 291.389 128.394 281.349 118.459L280.955 118.05C272.08 108.803 264.377 100.699 256.927 92.863C246.658 82.062 236.907 71.806 224.828 59.322L222.074 56.477L221.685 56.076L221.528 55.917C221.013 55.397 220.433 54.847 219.756 54.236L178.799 47.422L189.962 87.513L190.209 87.766L190.228 87.784L192.905 90.555L195.201 92.93C201.522 99.474 207.227 105.432 212.758 111.235L249.112 149.386L249.568 149.846C259.376 159.524 268.769 169.414 277.853 178.975C291.378 193.215 305.362 207.945 321.452 222.803L322.295 221.872L309.656 185.925L349.763 188.263C350.004 188.458 350.276 188.658 350.564 188.862Z" fill="url(#paint3_linear)"/>
<path d="M321.569 225.546L320.151 224.24C304.019 209.338 290.012 194.592 276.469 180.333C267.38 170.764 258.003 160.89 248.219 151.239L247.747 150.762L211.384 112.582C205.022 105.913 199.446 100.1 193.836 94.291L188.901 89.198L187.446 87.873L187.929 87.372L176.141 45.031L220.611 52.427L221.03 52.802C221.734 53.439 222.34 54.01 222.882 54.553L223.437 55.126L226.193 57.971C238.283 70.467 248.008 80.696 258.304 91.526L258.412 91.639C265.829 99.439 273.497 107.508 282.327 116.705L282.701 117.096C292.763 127.054 302.172 136.96 311.27 146.544C324.611 160.589 337.211 173.857 351.855 187.452L349.643 190.212L349.451 190.451L349.083 190.18L312.413 188.034L324.471 222.329L321.569 225.546ZM192.897 87.789L196.571 91.585C202.186 97.4 207.768 103.218 214.136 109.89L250.481 148.045L250.912 148.482C260.721 158.159 270.123 168.061 279.21 177.624C291.609 190.677 304.376 204.122 318.78 217.689L306.875 183.829L344.733 186.035C331.894 173.842 320.498 161.84 308.507 149.218C299.423 139.655 290.03 129.765 280.005 119.844L279.579 119.4C270.743 110.194 263.072 102.124 255.644 94.321L255.535 94.207C245.245 83.383 235.526 73.159 223.449 60.677L220.159 57.281C219.781 56.901 219.361 56.497 218.884 56.057L181.446 49.829L191.674 86.516L192.903 87.789H192.897Z" fill="white"/>
<path d="M484.099 204.585L445.896 217.144L449.252 177.252L449.006 177.062C441.879 186.56 432.759 193.499 421.124 198.277L420.555 198.521C406.845 204.605 392.337 205.792 377.425 202.051C371.47 200.164 366.108 198.349 361.129 195.684C359.525 194.776 357.43 193.48 355.388 192.151L354.161 191.344C352.839 190.465 351.591 189.606 350.571 188.864C350.283 188.655 350.01 188.455 349.763 188.267L309.657 185.929L322.295 221.875L323.111 224.194C324.252 225.06 325.584 226.017 327.014 227.008L328.683 228.148C332.365 230.636 336.465 233.207 339.722 235.034L340.054 235.217C348.626 239.833 356.959 242.632 364.76 245.096L365.316 245.272L365.881 245.419C375.113 247.823 384.606 249.047 394.139 249.062C409.275 249.063 424.247 245.898 438.114 239.766C456.953 231.967 472.516 220.016 484.375 204.219C484.286 204.34 484.195 204.461 484.099 204.585Z" fill="url(#paint4_linear)"/>
<path d="M394.139 250.998C384.442 250.983 374.785 249.739 365.393 247.297L364.733 247.122L364.176 246.947C356.29 244.456 347.859 241.629 339.139 236.929L338.791 236.738C335.558 234.922 331.486 232.383 327.611 229.761L325.934 228.615C324.421 227.566 323.085 226.603 321.953 225.75L321.492 225.398L306.879 183.836L350.443 186.375L350.905 186.725C351.143 186.906 351.404 187.099 351.681 187.3C352.651 188.005 353.87 188.845 355.205 189.733L356.426 190.529C358.506 191.884 360.553 193.143 362.036 193.985C366.958 196.613 372.364 198.418 377.94 200.193C383.267 201.541 388.736 202.233 394.227 202.253C402.963 202.253 411.562 200.403 419.783 196.755L420.376 196.5C431.713 191.846 440.566 185.111 447.479 175.898L448.636 174.355L451.247 176.359L448.052 214.402L483.511 202.746L483.842 203.773L485.911 205.39C473.846 221.467 458.021 233.626 438.871 241.55C424.771 247.789 409.544 251.007 394.151 250.998H394.139ZM365.828 243.414L366.344 243.547C375.425 245.907 384.763 247.107 394.139 247.121C409.012 247.129 423.725 244.018 437.349 237.986L437.39 237.968C453.691 231.227 467.496 221.312 478.514 208.449L443.74 219.888L446.863 182.701C440.131 190.232 431.904 195.94 421.834 200.072L421.292 200.304C412.605 204.159 403.489 206.119 394.219 206.119C388.398 206.099 382.6 205.364 376.954 203.93L376.843 203.898C371.07 202.068 365.455 200.194 360.224 197.399L360.183 197.377C358.608 196.486 356.536 195.209 354.342 193.783L353.108 192.969C351.72 192.048 350.458 191.176 349.445 190.44L349.075 190.17L312.414 188.032L324.707 222.995C325.693 223.732 326.827 224.543 328.085 225.416L329.743 226.549C333.476 229.07 337.552 231.612 340.638 233.346L340.953 233.521C349.365 238.056 357.6 240.816 365.314 243.253L365.828 243.414Z" fill="white"/>
<path d="M508.025 130.273C507.997 128.6 507.972 127.018 507.972 125.485V124.952L507.947 124.417C507.271 110.071 502.845 97.424 499.574 89.16L499.417 88.784C490.644 67.724 475.991 50.168 455.862 36.604L455.785 36.723L471.578 73.782L431.406 74.088L431.316 74.029C444.138 82.691 453.002 93.162 458.4 106.031C461.612 114.184 463.209 120.406 463.543 126.087C463.543 127.778 463.576 129.419 463.601 131.012C463.675 135.432 463.744 139.607 463.286 143.097C461.82 153.706 458.595 162.752 453.26 171.083L452.445 172.313C451.457 173.786 450.409 175.24 449.283 176.675L449.235 177.246L445.886 217.139L484.089 204.58C484.185 204.459 484.276 204.334 484.371 204.213C485.275 203.051 486.152 201.88 487.004 200.7L488.163 199.064C498.45 184.272 504.73 167.898 507.296 149.212L507.314 149.089C508.222 142.274 508.118 135.899 508.025 130.273Z" fill="url(#paint5_linear)"/>
<path d="M443.741 219.889L447.432 175.938L447.789 175.481C448.839 174.142 449.875 172.715 450.868 171.234L451.677 170.015C456.79 162.029 459.974 153.131 461.397 142.837C461.829 139.507 461.761 135.399 461.69 131.058V130.992C461.665 129.433 461.638 127.824 461.632 126.162C461.304 120.698 459.76 114.714 456.632 106.773C451.379 94.2699 442.75 84.087 430.25 75.645L431.403 73.8699L431.391 72.1589L468.679 71.8709L453.622 36.5339L455.338 33.9299L456.932 35.004C477.377 48.782 492.267 66.627 501.189 88.043L501.346 88.4359C504.675 96.8439 509.17 109.697 509.86 124.335L509.89 124.962V125.495C509.89 127.034 509.91 128.669 509.94 130.25C510.03 135.944 510.14 142.396 509.22 149.365L509.2 149.494C506.587 168.543 500.221 185.127 489.74 200.198L488.571 201.847C487.716 203.033 486.815 204.235 485.894 205.428L485.775 205.587C485.719 205.661 485.664 205.734 485.608 205.806L485.249 206.262L443.741 219.889ZM451.149 177.425L448.044 214.404L482.95 202.931C483.822 201.805 484.671 200.674 485.469 199.569L486.619 197.945C496.73 183.405 502.882 167.374 505.412 148.955L505.428 148.837C506.308 142.161 506.204 135.861 506.113 130.304C506.086 128.712 506.059 127.055 506.059 125.484V124.997L506.036 124.51C505.374 110.452 501.019 98.012 497.799 89.877L497.654 89.517C489.826 70.734 477.213 54.756 460.119 41.981L474.478 75.6909L437.3 75.973C447.828 84.13 455.336 93.76 460.167 105.27L460.183 105.31C463.49 113.688 465.112 120.061 465.46 125.976V126.084C465.46 127.74 465.491 129.354 465.517 130.917V130.984C465.591 135.477 465.661 139.722 465.189 143.352C463.687 154.233 460.308 163.645 454.873 172.138L454.042 173.394C453.108 174.797 452.137 176.146 451.153 177.425H451.149Z" fill="white"/>
<path d="M455.791 36.721L455.689 36.483C454.339 35.592 452.974 34.735 451.595 33.91L449.882 32.893C410.802 10.306 362.813 13.412 325.829 41.452L325.374 41.796L324.937 42.165C324.259 42.737 322.576 44.086 320.954 45.392C313.868 51.085 310.561 53.807 308.47 55.926L308.572 56.029L347.611 47.639L340.038 87.522L339.79 87.778C341.219 86.472 346.18 82.487 348.595 80.547C350.363 79.126 351.815 77.96 352.869 77.087C374.651 60.793 402.452 58.485 425.525 70.611L426.813 71.305C428.338 72.149 429.84 73.057 431.318 74.029L431.408 74.088L471.579 73.781L455.791 36.721Z" fill="url(#paint6_linear)"/>
<path d="M341.072 89.221L339.34 87.392L338.164 87.163L345.193 50.146L307.957 58.146L305.77 55.931L307.121 54.563C309.285 52.378 312.621 49.629 319.767 43.883L319.854 43.814C321.428 42.541 323.068 41.231 323.716 40.683L324.231 40.255L324.685 39.91C345.303 24.266 369.449 16 394.5 16C414.136 16 433.61 21.261 450.826 31.212L452.558 32.239C454 33.107 455.392 33.99 456.726 34.862L457.21 35.181L474.477 75.691L430.845 76.022L430.28 75.653C428.842 74.707 427.37 73.816 425.893 72.999L424.622 72.316C415.325 67.437 405.007 64.883 394.532 64.867C380.076 64.867 366.078 69.618 354.043 78.608C352.977 79.49 351.495 80.678 349.791 82.055L349.75 82.088C347.371 83.997 342.448 87.957 341.072 89.221ZM350.035 45.147L342.911 82.663C344.505 81.367 346.169 80.028 347.361 79.07L347.402 79.038C349.122 77.657 350.607 76.463 351.654 75.595L351.728 75.538C364.434 66.032 379.236 61.008 394.532 61.008C405.628 61.026 416.558 63.732 426.406 68.9L427.711 69.604C429.154 70.4 430.577 71.256 431.963 72.151L468.678 71.871L454.159 37.791C453.022 37.049 451.834 36.306 450.623 35.577L448.914 34.568C432.287 24.958 413.467 19.874 394.5 19.874C370.284 19.874 346.933 27.871 326.974 43.004L326.56 43.322L326.16 43.66C325.477 44.235 323.827 45.562 322.224 46.843L322.139 46.913C319.169 49.301 316.871 51.157 315.053 52.661L350.035 45.147Z" fill="white"/>
<path d="M308.57 56.03L308.314 56.084C307.126 57.308 305.97 58.503 304.826 59.686L303.555 61.001C292.217 72.741 282.878 82.558 273.068 92.876C265.62 100.71 257.917 108.812 249.043 118.057L248.658 118.46C238.615 128.399 229.209 138.301 220.108 147.885C206.736 161.964 194.086 175.274 179.433 188.865C179.721 188.656 179.995 188.454 180.242 188.266L220.348 185.928L207.712 221.874L208.553 222.805C224.643 207.943 238.629 193.218 252.152 178.978C261.236 169.415 270.629 159.525 280.439 149.849L280.623 149.668L317.237 111.235C322.906 105.288 328.764 99.176 335.276 92.435L336.536 91.128L339.785 87.774L340.033 87.518L347.606 47.635L308.57 56.03Z" fill="url(#paint7_linear)"/>
<path d="M208.431 225.548L205.523 222.329L217.579 188.035L180.93 190.172L180.558 190.445L180.366 190.206V190.198L178.152 187.446C192.797 173.859 205.394 160.591 218.739 146.538C227.839 136.957 237.249 127.05 247.314 117.09L247.683 116.707C256.532 107.487 264.217 99.4039 271.648 91.5889L271.703 91.5319C281.538 81.1849 290.828 71.4119 302.199 59.6459L303.471 58.3289C304.616 57.1459 305.772 55.9489 306.961 54.7249L307.365 54.3079L350.048 45.137L341.822 88.4579L341.169 89.1299C340.067 90.2659 338.986 91.3829 337.923 92.4819L336.663 93.7869C330.889 99.7639 325.159 105.736 318.632 112.579L281.96 151.058L281.776 151.24C271.988 160.897 262.606 170.775 253.534 180.327C239.992 194.591 225.978 209.337 209.844 224.241L208.431 225.548ZM223.12 183.834L211.215 217.695C225.619 204.127 238.386 190.685 250.768 177.649C259.864 168.071 269.268 158.172 279.102 148.47L279.259 148.311L315.851 109.899C322.384 103.054 328.119 97.0719 333.902 91.0889L335.161 89.7819L338.255 86.5859L345.176 50.1429L309.274 57.8579L306.192 61.0419L304.92 62.356C293.562 74.111 284.276 83.8779 274.446 94.2199L274.391 94.2769C266.957 102.096 259.274 110.182 250.415 119.408L249.993 119.846C239.964 129.77 230.569 139.661 221.492 149.228C209.499 161.854 198.103 173.851 185.265 186.043L223.12 183.834Z" fill="white"/>
<path d="M120.204 36.025C121.13 36.777 121.73 37.792 122.002 39.072H119.167C118.975 38.576 118.639 38.15 118.202 37.851C117.743 37.548 117.204 37.393 116.656 37.407C116.292 37.395 115.931 37.468 115.6 37.62C115.269 37.772 114.977 37.999 114.747 38.284C114.267 38.867 114.026 39.645 114.026 40.618C114.026 41.591 114.267 42.365 114.747 42.942C114.978 43.223 115.269 43.448 115.598 43.598C115.928 43.748 116.287 43.82 116.648 43.808C117.196 43.822 117.735 43.667 118.194 43.363C118.628 43.068 118.964 42.648 119.16 42.157H121.994C121.766 43.352 121.13 44.428 120.196 45.196C119.27 45.953 118.1 46.332 116.687 46.331C115.694 46.351 114.714 46.101 113.85 45.606C113.04 45.131 112.383 44.428 111.96 43.583C111.521 42.657 111.292 41.643 111.292 40.615C111.292 39.588 111.521 38.574 111.96 37.647C112.383 36.803 113.04 36.1 113.85 35.624C114.716 35.129 115.698 34.88 116.692 34.902C118.106 34.9 119.277 35.274 120.204 36.025Z" fill="white"/>
<path d="M129.938 37.807C130.618 38.168 131.18 38.721 131.555 39.399C131.942 40.143 132.144 40.971 132.144 41.811C132.144 42.652 131.942 43.48 131.555 44.224C131.178 44.896 130.616 45.445 129.938 45.803C129.211 46.163 128.412 46.35 127.603 46.35C126.793 46.35 125.994 46.163 125.268 45.803C124.586 45.447 124.021 44.898 123.643 44.224C123.256 43.48 123.054 42.652 123.054 41.811C123.054 40.971 123.256 40.143 123.643 39.399C124.019 38.72 124.584 38.166 125.268 37.807C125.994 37.447 126.793 37.26 127.603 37.26C128.412 37.26 129.211 37.447 129.938 37.807ZM126.316 40.171C125.965 40.547 125.789 41.089 125.79 41.798C125.791 42.507 125.967 43.046 126.316 43.417C126.481 43.596 126.682 43.739 126.905 43.834C127.128 43.93 127.368 43.977 127.611 43.972C127.852 43.978 128.092 43.931 128.314 43.835C128.536 43.739 128.736 43.597 128.899 43.417C129.244 43.047 129.417 42.508 129.417 41.798C129.417 41.088 129.244 40.546 128.899 40.171C128.736 39.99 128.537 39.845 128.315 39.749C128.093 39.652 127.853 39.604 127.611 39.609C127.367 39.605 127.125 39.653 126.901 39.751C126.677 39.848 126.476 39.993 126.312 40.176L126.316 40.171Z" fill="white"/>
<path d="M138.597 37.7241C139.069 38.0201 139.437 38.4591 139.649 38.9781V34.4861H142.326V46.23H139.649V44.6271C139.437 45.1471 139.069 45.5851 138.597 45.8821C138.075 46.2001 137.474 46.36 136.865 46.342C136.18 46.352 135.507 46.1621 134.927 45.7941C134.337 45.4081 133.868 44.8611 133.576 44.2151C133.249 43.4521 133.081 42.6301 133.081 41.7991C133.081 40.9681 133.249 40.1451 133.576 39.3831C133.87 38.7401 134.338 38.1951 134.927 37.8121C135.507 37.4431 136.18 37.253 136.865 37.264C137.474 37.246 138.075 37.4061 138.597 37.7241ZM136.344 40.2151C135.992 40.5971 135.817 41.1281 135.818 41.8071C135.819 42.4861 135.994 43.017 136.344 43.399C136.716 43.767 137.216 43.9721 137.737 43.9691C138.257 43.9661 138.755 43.7551 139.123 43.3831C139.483 42.9911 139.664 42.4671 139.665 41.8101C139.666 41.1531 139.485 40.6271 139.123 40.2311C138.945 40.0411 138.729 39.8901 138.489 39.7911C138.25 39.6911 137.992 39.643 137.733 39.652C137.475 39.64 137.217 39.6841 136.978 39.7811C136.738 39.8791 136.522 40.0271 136.344 40.2151Z" fill="white"/>
<path d="M152.429 42.297H146.352C146.384 42.962 146.551 43.439 146.855 43.729C147.01 43.877 147.193 43.993 147.393 44.07C147.593 44.146 147.806 44.182 148.02 44.175C148.373 44.189 148.722 44.083 149.009 43.874C149.264 43.682 149.447 43.407 149.527 43.096H152.366C152.256 43.708 151.997 44.283 151.613 44.77C151.218 45.268 150.712 45.665 150.136 45.929C149.458 46.226 148.722 46.369 147.983 46.347C147.244 46.325 146.518 46.139 145.858 45.802C145.196 45.44 144.653 44.891 144.296 44.223C143.925 43.472 143.732 42.646 143.73 41.807C143.729 40.969 143.92 40.141 144.288 39.39C144.645 38.723 145.188 38.176 145.85 37.819C146.562 37.46 147.346 37.273 148.142 37.271C148.937 37.27 149.722 37.455 150.435 37.811C151.08 38.156 151.611 38.683 151.966 39.326C152.336 40.015 152.523 40.789 152.508 41.572C152.505 41.816 152.478 42.058 152.429 42.297ZM149.328 39.844C149.003 39.55 148.579 39.394 148.143 39.408C147.693 39.392 147.255 39.551 146.918 39.852C146.593 40.148 146.41 40.582 146.368 41.154H149.791C149.801 40.571 149.647 40.134 149.328 39.844Z" fill="white"/>
<path d="M122.668 217.442V219.602H119.648V228.657H116.949V219.596H113.965V217.436L122.668 217.442Z" fill="white"/>
<path d="M132.035 224.73H125.96C125.992 225.397 126.159 225.875 126.463 226.162C126.777 226.457 127.194 226.614 127.623 226.598C127.977 226.612 128.326 226.505 128.614 226.296C128.869 226.104 129.051 225.83 129.132 225.519H131.966C131.857 226.131 131.598 226.706 131.213 227.192C130.818 227.691 130.312 228.088 129.736 228.351C129.111 228.639 128.43 228.783 127.743 228.773C126.948 228.788 126.162 228.599 125.458 228.225C124.797 227.863 124.254 227.314 123.896 226.646C123.525 225.896 123.332 225.069 123.331 224.23C123.329 223.391 123.52 222.564 123.888 221.812C124.246 221.145 124.789 220.599 125.452 220.241C126.163 219.882 126.947 219.695 127.743 219.693C128.538 219.692 129.323 219.877 130.035 220.233C130.68 220.578 131.212 221.105 131.566 221.75C131.936 222.438 132.123 223.212 132.108 223.996C132.107 224.242 132.083 224.488 132.035 224.73ZM128.935 222.278C128.609 221.985 128.185 221.828 127.749 221.841C127.3 221.826 126.863 221.985 126.526 222.285C126.2 222.582 126.017 223.015 125.976 223.587H129.398C129.408 223.006 129.254 222.57 128.935 222.278Z" fill="white"/>
<path d="M139.359 220.539C140.028 221.105 140.471 221.897 140.607 222.768H138.099C138.04 222.434 137.865 222.132 137.605 221.918C137.328 221.706 136.987 221.597 136.639 221.609C136.393 221.591 136.148 221.661 135.948 221.808C135.869 221.877 135.806 221.964 135.765 222.061C135.724 222.158 135.706 222.264 135.712 222.37C135.712 222.505 135.754 222.638 135.831 222.748C135.908 222.859 136.017 222.943 136.143 222.989C136.581 223.174 137.036 223.312 137.502 223.401C138.061 223.525 138.612 223.685 139.151 223.879C139.583 224.045 139.966 224.319 140.266 224.675C140.581 225.045 140.738 225.543 140.738 226.168C140.745 226.649 140.603 227.121 140.33 227.516C140.031 227.929 139.623 228.248 139.152 228.436C138.574 228.671 137.954 228.785 137.331 228.77C136.148 228.77 135.201 228.505 134.488 227.974C133.775 227.444 133.341 226.687 133.186 225.705H135.776C135.787 225.876 135.835 226.043 135.917 226.194C135.998 226.345 136.112 226.476 136.249 226.578C136.567 226.791 136.943 226.896 137.324 226.879C137.573 226.897 137.819 226.821 138.016 226.666C138.093 226.597 138.155 226.511 138.197 226.415C138.238 226.319 138.259 226.215 138.256 226.11C138.262 225.969 138.223 225.829 138.146 225.711C138.068 225.592 137.956 225.502 137.825 225.451C137.371 225.268 136.9 225.127 136.42 225.031C135.876 224.923 135.341 224.774 134.819 224.586C134.399 224.427 134.026 224.162 133.736 223.817C133.432 223.461 133.281 222.977 133.281 222.363C133.27 221.994 133.346 221.627 133.501 221.292C133.657 220.958 133.887 220.664 134.175 220.436C134.772 219.945 135.615 219.698 136.702 219.697C137.81 219.696 138.695 219.977 139.359 220.539Z" fill="white"/>
<path d="M147.186 226.332V228.659H145.972C144.948 228.659 144.149 228.402 143.577 227.889C143.005 227.375 142.72 226.526 142.722 225.342V222.088H141.544V219.809H142.722V217.635H145.407V219.809H147.166V222.095H145.412V225.396C145.412 225.745 145.483 225.989 145.624 226.127C145.765 226.264 146.004 226.332 146.338 226.332H147.186Z" fill="white"/>
<path d="M379.545 43.913C379.083 44.762 378.384 45.4549 377.535 45.9059C376.582 46.3999 375.522 46.645 374.451 46.619H370.257V35.3979H374.455C375.648 35.3979 376.679 35.6309 377.548 36.0969C378.392 36.5389 379.089 37.2239 379.549 38.0649C380.009 38.9689 380.249 39.972 380.249 40.989C380.249 42.006 380.009 43.008 379.549 43.913H379.545ZM376.66 43.3489C377.241 42.7889 377.532 42.0009 377.532 40.9849C377.532 39.9699 377.241 39.1819 376.66 38.6199C376.08 38.0599 375.267 37.78 374.219 37.78H372.948V44.1909H374.219C375.263 44.1909 376.076 43.9109 376.66 43.3489Z" fill="white"/>
<path d="M390.008 42.681H383.933C383.964 43.347 384.132 43.824 384.435 44.114C384.591 44.26 384.774 44.374 384.973 44.449C385.173 44.524 385.385 44.558 385.597 44.55C385.951 44.563 386.299 44.458 386.586 44.249C386.842 44.057 387.025 43.783 387.104 43.471H389.946C389.836 44.083 389.577 44.659 389.192 45.145C388.797 45.644 388.292 46.041 387.717 46.304C387.038 46.602 386.303 46.744 385.564 46.722C384.824 46.7 384.099 46.514 383.438 46.177C382.777 45.816 382.234 45.267 381.876 44.598C381.506 43.848 381.312 43.021 381.311 42.182C381.31 41.344 381.501 40.517 381.869 39.765C382.225 39.097 382.768 38.551 383.431 38.194C384.142 37.835 384.926 37.648 385.722 37.646C386.517 37.645 387.302 37.83 388.014 38.186C388.659 38.531 389.191 39.057 389.545 39.702C389.916 40.39 390.103 41.164 390.087 41.947C390.085 42.194 390.059 42.44 390.008 42.681ZM386.907 40.228C386.583 39.935 386.159 39.779 385.723 39.792C385.274 39.777 384.835 39.935 384.498 40.236C384.174 40.532 383.99 40.967 383.949 41.538H387.367C387.381 40.96 387.228 40.523 386.907 40.228Z" fill="white"/>
<path d="M398.888 38.1989C399.475 38.5839 399.943 39.1279 400.237 39.7699C400.583 40.5279 400.752 41.3559 400.732 42.1899C400.751 43.0219 400.582 43.847 400.237 44.603C399.945 45.248 399.477 45.7959 398.888 46.1819C398.307 46.5499 397.634 46.7399 396.949 46.7299C396.34 46.7479 395.739 46.5879 395.217 46.2699C394.744 45.9739 394.376 45.5349 394.165 45.0149V50.8409H391.488V37.7629H394.165V39.366C394.376 38.846 394.744 38.4069 395.217 38.1119C395.739 37.7929 396.34 37.6329 396.949 37.6519C397.634 37.6419 398.307 37.8319 398.888 38.1989ZM394.696 40.611C394.334 40.997 394.153 41.5229 394.154 42.1899C394.155 42.8559 394.336 43.3809 394.696 43.7629C395.063 44.1359 395.561 44.3469 396.081 44.3499C396.602 44.3529 397.102 44.1469 397.474 43.7779C397.824 43.3959 398 42.8659 398 42.1869C398 41.5079 397.824 40.9769 397.474 40.5949C397.296 40.4039 397.08 40.2549 396.841 40.1559C396.601 40.0579 396.343 40.0119 396.085 40.0239C395.825 40.0159 395.567 40.0649 395.328 40.1659C395.088 40.2669 394.873 40.419 394.696 40.611Z" fill="white"/>
<path d="M404.815 34.873V46.6171H402.13V34.873H404.815Z" fill="white"/>
<path d="M413.096 38.2C413.774 38.558 414.336 39.106 414.713 39.779C415.1 40.523 415.302 41.351 415.302 42.191C415.302 43.032 415.1 43.859 414.713 44.603C414.336 45.276 413.774 45.825 413.096 46.182C412.369 46.543 411.57 46.73 410.761 46.73C409.951 46.73 409.152 46.543 408.425 46.182C407.743 45.827 407.179 45.278 406.8 44.603C406.413 43.859 406.211 43.032 406.211 42.191C406.211 41.351 406.413 40.523 406.8 39.779C407.179 39.104 407.743 38.556 408.425 38.2C409.152 37.84 409.951 37.652 410.761 37.652C411.57 37.652 412.369 37.84 413.096 38.2ZM409.474 40.565C409.123 40.941 408.948 41.483 408.948 42.19C408.948 42.898 409.123 43.438 409.474 43.811C409.639 43.99 409.84 44.132 410.064 44.228C410.287 44.323 410.528 44.371 410.77 44.366C411.011 44.371 411.251 44.324 411.472 44.228C411.694 44.133 411.893 43.99 412.056 43.811C412.401 43.439 412.573 42.899 412.575 42.19C412.576 41.482 412.403 40.94 412.056 40.565C411.895 40.383 411.696 40.239 411.474 40.142C411.252 40.045 411.012 39.997 410.77 40.002C410.526 39.996 410.284 40.044 410.059 40.141C409.835 40.238 409.634 40.383 409.469 40.565H409.474Z" fill="white"/>
<path d="M418.725 37.762L420.829 43.1899L422.791 37.762H425.759L420.295 50.84H417.342L419.399 46.2839L415.725 37.762H418.725Z" fill="white"/>
<path d="M374.643 217.133V228.275H371.958V221.306L369.574 228.275H367.251L364.85 221.292V228.275H362.173V217.133H365.454L368.446 224.894L371.381 217.133H374.643Z" fill="white"/>
<path d="M382.925 219.856C383.603 220.214 384.165 220.763 384.542 221.435C384.928 222.179 385.13 223.007 385.13 223.847C385.13 224.688 384.928 225.515 384.542 226.26C384.165 226.933 383.603 227.481 382.925 227.839C382.198 228.199 381.399 228.386 380.589 228.386C379.779 228.386 378.98 228.199 378.253 227.839C377.571 227.483 377.007 226.934 376.628 226.26C376.242 225.515 376.041 224.688 376.041 223.847C376.041 223.007 376.242 222.179 376.628 221.435C377.007 220.761 377.572 220.213 378.253 219.856C378.98 219.496 379.779 219.309 380.589 219.309C381.399 219.309 382.198 219.496 382.925 219.856ZM379.303 222.221C378.954 222.597 378.778 223.139 378.777 223.848C378.776 224.557 378.952 225.097 379.303 225.467C379.468 225.647 379.669 225.789 379.893 225.885C380.116 225.98 380.357 226.027 380.599 226.023C380.841 226.028 381.08 225.981 381.303 225.885C381.525 225.79 381.724 225.647 381.887 225.467C382.232 225.097 382.404 224.557 382.405 223.848C382.406 223.139 382.234 222.597 381.887 222.221C381.725 222.038 381.526 221.893 381.303 221.795C381.08 221.697 380.839 221.648 380.596 221.653C380.352 221.649 380.11 221.697 379.886 221.795C379.662 221.893 379.461 222.039 379.297 222.221H379.303Z" fill="white"/>
<path d="M394.48 220.342C395.071 221.02 395.367 221.951 395.367 223.135V228.278H392.682V223.454C392.682 222.859 392.528 222.396 392.219 222.064C392.061 221.897 391.869 221.766 391.656 221.68C391.443 221.593 391.215 221.554 390.986 221.564C390.746 221.553 390.506 221.594 390.283 221.684C390.059 221.774 389.858 221.912 389.692 222.088C389.377 222.437 389.219 222.934 389.219 223.579V228.278H386.542V219.426H389.219V221.045C389.463 220.524 389.854 220.088 390.342 219.791C390.872 219.476 391.477 219.317 392.092 219.331C393.094 219.328 393.89 219.665 394.48 220.342Z" fill="white"/>
<path d="M397.33 215.903C397.662 215.642 398.071 215.5 398.491 215.5C398.912 215.5 399.321 215.642 399.653 215.903C399.795 216.031 399.908 216.189 399.984 216.366C400.06 216.543 400.097 216.734 400.092 216.927C400.096 217.117 400.058 217.306 399.982 217.48C399.907 217.655 399.794 217.81 399.653 217.936C399.321 218.197 398.912 218.339 398.491 218.339C398.071 218.339 397.662 218.197 397.33 217.936C397.188 217.81 397.076 217.655 396.999 217.481C396.923 217.306 396.886 217.117 396.889 216.927C396.885 216.734 396.922 216.543 396.998 216.366C397.074 216.189 397.187 216.031 397.33 215.903ZM399.826 219.42V228.276H397.149V219.424L399.826 219.42Z" fill="white"/>
<path d="M406.64 225.954V228.288H405.431C404.405 228.288 403.607 228.031 403.037 227.518C402.467 227.004 402.182 226.155 402.181 224.971V221.717H401.004V219.428H402.181V217.254H404.867V219.428H406.624V221.714H404.867V225.015C404.867 225.364 404.936 225.607 405.078 225.744C405.22 225.881 405.457 225.951 405.793 225.951L406.64 225.954Z" fill="white"/>
<path d="M414.576 219.857C415.255 220.214 415.817 220.763 416.193 221.436C416.58 222.18 416.782 223.008 416.782 223.848C416.782 224.689 416.58 225.517 416.193 226.261C415.817 226.934 415.255 227.483 414.576 227.84C413.856 228.213 413.055 228.402 412.246 228.387C411.433 228.401 410.63 228.213 409.906 227.84C409.223 227.485 408.659 226.936 408.281 226.261C407.894 225.517 407.692 224.689 407.692 223.848C407.692 223.008 407.894 222.18 408.281 221.436C408.659 220.761 409.224 220.213 409.906 219.857C410.63 219.484 411.433 219.296 412.246 219.309C413.055 219.296 413.856 219.484 414.576 219.857ZM410.955 222.222C410.603 222.598 410.428 223.14 410.429 223.849C410.43 224.558 410.605 225.097 410.955 225.468C411.12 225.647 411.32 225.79 411.544 225.885C411.767 225.981 412.008 226.028 412.25 226.023C412.492 226.029 412.731 225.982 412.953 225.886C413.175 225.79 413.374 225.648 413.537 225.468C413.883 225.097 414.056 224.558 414.055 223.849C414.054 223.14 413.881 222.598 413.537 222.222C413.375 222.039 413.176 221.894 412.954 221.796C412.731 221.697 412.49 221.649 412.247 221.654C412.003 221.65 411.762 221.698 411.538 221.796C411.314 221.894 411.114 222.04 410.95 222.222H410.955Z" fill="white"/>
<path d="M422.168 219.804C422.687 219.489 423.281 219.324 423.887 219.326V222.231H423.112C422.401 222.231 421.848 222.384 421.456 222.691C421.063 222.998 420.867 223.516 420.867 224.246V228.278H418.19V219.428H420.867V221.095C421.191 220.565 421.637 220.122 422.168 219.804Z" fill="white"/>
<path d="M216.283 85.4439L213.525 88.2269L211.636 86.3069L219.489 78.377L222.562 81.486C223.494 82.429 223.973 83.381 223.998 84.343C224.024 85.304 223.644 86.1809 222.86 86.9739C222.411 87.4429 221.848 87.7829 221.227 87.9609C220.61 88.1249 219.959 88.0989 219.356 87.8879C218.638 87.6259 217.99 87.1969 217.467 86.6349L216.283 85.4439ZM220.923 85.0209C221.613 84.3249 221.577 83.5919 220.814 82.8209L219.849 81.8439L217.802 83.913L218.767 84.89C219.532 85.654 220.251 85.6979 220.926 85.0209H220.923Z" fill="white"/>
<path d="M228.617 86.8781L220.397 95.178L218.5 93.2581L226.72 84.957L228.617 86.8781Z" fill="white"/>
<path d="M231.233 94.106C231.359 94.655 231.317 95.231 231.11 95.755L232.233 94.623L234.122 96.533L227.924 102.792L226.035 100.882L227.157 99.749C226.638 99.956 226.068 99.999 225.525 99.871C224.935 99.723 224.4 99.407 223.983 98.961C223.492 98.478 223.149 97.862 222.996 97.188C222.852 96.492 222.906 95.77 223.153 95.106C223.456 94.333 223.913 93.632 224.495 93.044C225.076 92.457 225.771 91.997 226.535 91.691C227.191 91.449 227.9 91.398 228.582 91.545C229.25 91.701 229.859 92.049 230.337 92.546C230.777 92.968 231.088 93.51 231.233 94.106ZM227.896 94.256C227.383 94.273 226.888 94.523 226.414 95C225.94 95.478 225.695 95.979 225.676 96.498C225.679 97.025 225.889 97.528 226.259 97.899C226.629 98.269 227.129 98.477 227.65 98.475C228.175 98.456 228.67 98.215 229.134 97.753C229.598 97.29 229.838 96.789 229.855 96.248C229.852 95.723 229.646 95.219 229.279 94.846C228.913 94.474 228.416 94.261 227.896 94.256Z" fill="white"/>
<path d="M240.403 104.194C240.347 105.095 239.904 105.964 239.076 106.801L235.476 110.437L233.579 108.515L236.956 105.106C237.371 104.688 237.586 104.25 237.6 103.793C237.605 103.561 237.561 103.332 237.471 103.119C237.381 102.906 237.248 102.716 237.079 102.559C236.917 102.379 236.719 102.236 236.498 102.14C236.277 102.044 236.038 101.997 235.797 102.002C235.326 102.021 234.865 102.259 234.415 102.715L231.127 106.034L229.237 104.114L235.435 97.855L237.333 99.775L236.199 100.92C236.736 100.726 237.317 100.697 237.87 100.837C238.465 100.992 239.006 101.313 239.43 101.763C240.136 102.481 240.46 103.291 240.403 104.194Z" fill="white"/>
<path d="M253.138 152.552L248.483 151.253L248.048 151.689L250.999 154.698L249.094 156.608L241.277 148.649L244.532 145.384C245.061 144.82 245.713 144.389 246.436 144.125C247.03 143.912 247.675 143.886 248.285 144.049C248.894 144.225 249.447 144.562 249.884 145.026C250.422 145.543 250.767 146.233 250.859 146.978C250.941 147.7 250.755 148.438 250.3 149.192L255.246 150.446L253.138 152.552ZM246.751 150.371L247.933 149.185C248.311 148.807 248.508 148.442 248.521 148.095C248.533 147.748 248.377 147.407 248.048 147.076C247.923 146.931 247.769 146.814 247.596 146.732C247.423 146.65 247.236 146.605 247.045 146.599C246.686 146.599 246.319 146.786 245.943 147.161L244.76 148.345L246.751 150.371Z" fill="white"/>
<path d="M259.293 140.844L254.979 145.169C255.465 145.619 255.917 145.84 256.336 145.831C256.548 145.824 256.758 145.775 256.951 145.686C257.145 145.597 257.32 145.471 257.465 145.314C257.725 145.072 257.898 144.748 257.956 144.395C258.004 144.078 257.943 143.753 257.783 143.475L259.8 141.452C260.149 141.965 260.365 142.559 260.43 143.178C260.496 143.812 260.414 144.453 260.189 145.05C259.915 145.744 259.492 146.369 258.952 146.88C258.412 147.391 257.767 147.775 257.063 148.005C256.343 148.219 255.577 148.216 254.859 147.996C254.073 147.727 253.36 147.278 252.775 146.684C252.19 146.089 251.749 145.366 251.488 144.57C251.275 143.843 251.28 143.067 251.502 142.342C251.757 141.581 252.183 140.89 252.747 140.323C253.31 139.756 253.996 139.328 254.75 139.074C255.448 138.86 256.193 138.855 256.893 139.06C257.636 139.285 258.308 139.702 258.843 140.27C259.011 140.446 259.162 140.638 259.293 140.844ZM255.383 141.309C254.948 141.333 254.537 141.524 254.237 141.844C253.907 142.153 253.707 142.578 253.676 143.031C253.653 143.472 253.824 143.912 254.193 144.346L256.624 141.909C256.226 141.485 255.813 141.285 255.383 141.309Z" fill="white"/>
<path d="M256.806 132.338L264.995 140.677L263.088 142.587L254.899 134.248L256.806 132.338Z" fill="white"/>
<path d="M269.415 130.695L265.1 135.02C265.586 135.47 266.039 135.691 266.458 135.682C266.67 135.675 266.879 135.626 267.073 135.537C267.267 135.448 267.441 135.322 267.587 135.165C267.847 134.922 268.02 134.599 268.078 134.246C268.127 133.928 268.066 133.603 267.905 133.325L269.922 131.303C270.27 131.816 270.487 132.408 270.552 133.027C270.618 133.662 270.536 134.304 270.311 134.9C270.036 135.595 269.614 136.22 269.074 136.731C268.534 137.241 267.889 137.626 267.185 137.856C266.465 138.07 265.699 138.066 264.981 137.847C264.195 137.579 263.481 137.131 262.896 136.537C262.31 135.944 261.869 135.221 261.606 134.426C261.393 133.698 261.398 132.923 261.62 132.198C261.876 131.436 262.302 130.745 262.866 130.178C263.43 129.611 264.116 129.184 264.87 128.93C265.568 128.716 266.312 128.711 267.012 128.916C267.755 129.14 268.427 129.557 268.961 130.125C269.13 130.3 269.282 130.491 269.415 130.695ZM265.505 131.16C265.069 131.184 264.659 131.375 264.359 131.695C264.029 132.004 263.829 132.429 263.8 132.882C263.774 133.323 263.948 133.762 264.315 134.197L266.749 131.76C266.349 131.34 265.934 131.14 265.505 131.16Z" fill="white"/>
<path d="M270.869 122.807C271.413 122.681 271.982 122.727 272.5 122.937L271.384 121.799L273.273 119.898L279.443 126.187L277.553 128.086L276.437 126.948C276.642 127.474 276.682 128.05 276.552 128.599C276.404 129.195 276.089 129.735 275.646 130.156C275.167 130.651 274.557 130.994 273.889 131.146C273.201 131.291 272.487 131.236 271.829 130.987C271.066 130.677 270.374 130.213 269.795 129.623C269.216 129.032 268.762 128.329 268.463 127.555C268.226 126.892 268.179 126.174 268.327 125.485C268.484 124.811 268.829 124.197 269.322 123.717C269.741 123.27 270.278 122.954 270.869 122.807ZM271.004 126.179C271.02 126.699 271.264 127.2 271.736 127.681C272.209 128.161 272.702 128.412 273.215 128.433C273.736 128.431 274.235 128.221 274.602 127.848C274.97 127.475 275.177 126.97 275.177 126.444C275.161 125.913 274.924 125.413 274.467 124.943C274.004 124.465 273.508 124.225 272.983 124.207C272.724 124.198 272.466 124.245 272.227 124.345C271.987 124.444 271.771 124.595 271.593 124.785C271.402 124.96 271.25 125.175 271.148 125.414C271.046 125.654 270.996 125.912 271.001 126.173L271.004 126.179Z" fill="white"/>
<path d="M279.254 114.929C280.121 114.855 280.985 115.1 281.688 115.618L279.905 117.406C279.63 117.21 279.295 117.122 278.961 117.156C278.616 117.201 278.298 117.366 278.06 117.622C277.872 117.786 277.747 118.011 277.707 118.259C277.698 118.365 277.714 118.471 277.752 118.569C277.791 118.668 277.851 118.756 277.929 118.827C278.024 118.923 278.145 118.987 278.277 119.011C278.409 119.035 278.545 119.018 278.666 118.961C279.108 118.78 279.53 118.554 279.926 118.286C280.411 117.978 280.915 117.701 281.434 117.457C281.858 117.267 282.322 117.189 282.784 117.232C283.266 117.273 283.723 117.514 284.157 117.957C284.499 118.293 284.726 118.73 284.807 119.204C284.883 119.71 284.815 120.227 284.612 120.696C284.365 121.275 284.005 121.797 283.552 122.23C282.712 123.072 281.855 123.558 280.981 123.688C280.106 123.819 279.271 123.591 278.476 123.006L280.315 121.161C280.442 121.274 280.593 121.358 280.756 121.407C280.92 121.455 281.091 121.467 281.26 121.441C281.634 121.365 281.974 121.172 282.233 120.889C282.42 120.726 282.542 120.499 282.574 120.252C282.58 120.146 282.563 120.041 282.524 119.943C282.485 119.844 282.425 119.756 282.349 119.684C282.254 119.58 282.129 119.509 281.992 119.48C281.855 119.452 281.712 119.467 281.584 119.524C281.133 119.718 280.701 119.953 280.293 120.226C279.831 120.537 279.348 120.813 278.846 121.051C278.436 121.237 277.987 121.314 277.54 121.275C277.077 121.24 276.633 121.005 276.207 120.569C275.941 120.313 275.739 119.999 275.616 119.65C275.493 119.302 275.453 118.929 275.498 118.561C275.58 117.788 276.007 117.014 276.778 116.239C277.568 115.441 278.393 115.004 279.254 114.929Z" fill="white"/>
<path d="M290.054 109.997L285.739 114.322C286.225 114.771 286.678 114.992 287.097 114.984C287.309 114.977 287.518 114.927 287.712 114.839C287.906 114.75 288.08 114.623 288.226 114.466C288.486 114.224 288.659 113.901 288.717 113.548C288.766 113.23 288.705 112.905 288.544 112.628L290.561 110.605C290.91 111.118 291.126 111.711 291.191 112.33C291.258 112.965 291.175 113.606 290.95 114.202C290.676 114.897 290.254 115.522 289.714 116.033C289.173 116.544 288.528 116.928 287.824 117.158C287.104 117.372 286.338 117.369 285.62 117.149C284.834 116.88 284.121 116.431 283.536 115.836C282.951 115.242 282.51 114.519 282.248 113.723C282.036 112.995 282.041 112.22 282.262 111.495C282.518 110.733 282.944 110.042 283.508 109.475C284.072 108.908 284.758 108.481 285.512 108.227C286.21 108.013 286.954 108.008 287.654 108.212C288.397 108.437 289.069 108.854 289.603 109.422C289.772 109.598 289.922 109.791 290.054 109.997ZM286.144 110.462C285.708 110.486 285.298 110.677 284.998 110.996C284.668 111.305 284.468 111.73 284.439 112.184C284.413 112.624 284.586 113.062 284.955 113.499L287.385 111.062C286.991 110.641 286.58 110.441 286.15 110.462H286.144Z" fill="white"/>
<path d="M47.0953 147.516C47.5793 147.123 48.1854 146.913 48.8074 146.924C49.7604 146.924 50.5033 147.246 51.0353 147.889C51.5673 148.532 51.8294 149.45 51.8224 150.644L51.8134 155.865L40.7134 155.844L40.7224 150.751C40.7224 149.608 40.9704 148.725 41.4644 148.102C41.9584 147.479 42.6634 147.166 43.5774 147.161C44.1804 147.141 44.7714 147.333 45.2494 147.704C45.6914 148.061 45.9984 148.56 46.1194 149.118C46.2524 148.486 46.5973 147.92 47.0953 147.516ZM45.2643 153.138V151.36C45.2643 150.42 44.8684 149.947 44.0724 149.947C43.2754 149.947 42.8783 150.425 42.8763 151.389V153.14L45.2643 153.138ZM48.4244 149.708C48.2494 149.699 48.0744 149.73 47.9134 149.798C47.7514 149.867 47.6074 149.971 47.4904 150.103C47.2654 150.367 47.1514 150.743 47.1504 151.23V153.15H49.6464V151.214C49.6494 150.21 49.2424 149.708 48.4244 149.708Z" fill="white"/>
<path d="M43.096 136.678L51.855 136.694V139.424H50.27C50.778 139.675 51.202 140.07 51.492 140.562C51.802 141.091 51.959 141.698 51.945 142.313C51.945 143.328 51.609 144.134 50.936 144.73C50.263 145.327 49.341 145.624 48.171 145.622L43.083 145.614V142.916H47.842C48.437 142.916 48.901 142.757 49.232 142.449C49.398 142.287 49.529 142.091 49.614 141.874C49.7 141.657 49.738 141.424 49.728 141.19C49.741 140.948 49.701 140.706 49.612 140.481C49.523 140.256 49.387 140.053 49.213 139.887C48.869 139.568 48.377 139.409 47.738 139.409L43.089 139.401L43.096 136.678Z" fill="white"/>
<path d="M39.6202 134.605C39.3612 134.269 39.2212 133.856 39.2212 133.43C39.2212 133.005 39.3612 132.591 39.6202 132.255C39.7472 132.112 39.9042 131.998 40.0792 131.921C40.2542 131.845 40.4442 131.808 40.6342 131.813C40.8222 131.81 41.0092 131.848 41.1802 131.925C41.3522 132.002 41.5062 132.116 41.6302 132.259C41.8892 132.594 42.0292 133.008 42.0292 133.433C42.0292 133.859 41.8892 134.272 41.6302 134.608C41.5052 134.751 41.3512 134.865 41.1792 134.941C41.0062 135.018 40.8202 135.055 40.6312 135.051C40.4412 135.055 40.2522 135.017 40.0772 134.94C39.9032 134.863 39.7472 134.749 39.6202 134.605ZM43.1032 132.087L51.8652 132.104V134.818L43.1052 134.801L43.1032 132.087Z" fill="white"/>
<path d="M40.2549 127.5L51.8729 127.521V130.227L40.2529 130.206L40.2549 127.5Z" fill="white"/>
<path d="M43.47 120.518C43.764 120.042 44.1991 119.671 44.7131 119.458L40.269 119.45V116.744L51.8871 116.765V119.471H50.3011C50.8151 119.686 51.248 120.059 51.54 120.537C51.854 121.065 52.0111 121.673 51.9921 122.288C52.0001 122.978 51.81 123.655 51.446 124.238C51.063 124.833 50.5211 125.306 49.8821 125.601C49.1271 125.929 48.3131 126.097 47.4911 126.096C46.6691 126.094 45.8561 125.922 45.1021 125.591C44.4671 125.292 43.9291 124.818 43.5491 124.224C43.1871 123.636 43.0011 122.955 43.0121 122.263C42.9951 121.649 43.154 121.043 43.47 120.518ZM45.9301 122.806C46.3071 123.161 46.8321 123.339 47.5051 123.34C48.1771 123.341 48.702 123.165 49.079 122.812C49.444 122.437 49.6481 121.931 49.6461 121.405C49.6441 120.879 49.4361 120.375 49.0681 120.002C48.6821 119.636 48.164 119.453 47.514 119.452C46.864 119.451 46.3441 119.632 45.9521 119.996C45.7631 120.176 45.6141 120.393 45.5151 120.636C45.4151 120.878 45.368 121.138 45.376 121.4C45.363 121.661 45.4071 121.921 45.5021 122.163C45.5981 122.406 45.7441 122.625 45.9301 122.806Z" fill="white"/>
<path d="M489.197 111.765C488.717 112.618 488.015 113.321 487.167 113.8C486.265 114.289 485.257 114.544 484.233 114.54C483.209 114.536 482.202 114.275 481.303 113.779C480.455 113.295 479.753 112.585 479.274 111.727C478.796 110.849 478.547 109.863 478.549 108.86C478.551 107.858 478.805 106.873 479.286 105.997C479.769 105.141 480.474 104.435 481.324 103.953C482.225 103.461 483.234 103.205 484.258 103.207C485.282 103.21 486.289 103.471 487.188 103.967C488.034 104.453 488.733 105.162 489.21 106.019C489.686 106.9 489.935 107.889 489.933 108.893C489.93 109.897 489.677 110.885 489.197 111.764V111.765ZM486.585 106.761C486.017 106.23 485.241 105.965 484.256 105.965C483.271 105.965 482.496 106.225 481.93 106.745C481.35 107.266 481.059 107.973 481.059 108.867C481.059 109.76 481.345 110.464 481.918 110.979C482.492 111.51 483.266 111.775 484.24 111.775C485.214 111.775 485.99 111.515 486.566 110.995C487.142 110.473 487.431 109.767 487.434 108.878C487.436 107.989 487.153 107.283 486.585 106.761Z" fill="white"/>
<path d="M486.958 123.551C486.576 124.144 486.037 124.616 485.401 124.912C484.646 125.24 483.832 125.409 483.01 125.407C482.188 125.405 481.374 125.234 480.62 124.902C479.983 124.604 479.442 124.13 479.06 123.534C478.698 122.946 478.511 122.265 478.523 121.573C478.506 120.956 478.666 120.348 478.983 119.822C479.276 119.345 479.711 118.974 480.225 118.761L474.462 118.749V116.033L487.399 116.062V118.777H485.814C486.326 118.993 486.759 119.366 487.051 119.844C487.366 120.371 487.523 120.979 487.503 121.595C487.512 122.286 487.323 122.966 486.958 123.551ZM484.581 119.304C484.2 118.938 483.679 118.755 483.02 118.754C482.361 118.752 481.842 118.933 481.464 119.296C481.094 119.667 480.884 120.17 480.88 120.696C480.876 121.223 481.078 121.729 481.442 122.106C481.819 122.461 482.344 122.64 483.017 122.641C483.69 122.642 484.215 122.466 484.592 122.114C484.956 121.739 485.161 121.235 485.161 120.709C485.161 120.183 484.956 119.679 484.592 119.304H484.581Z" fill="white"/>
<path d="M482.497 135.151L482.51 129.01C481.851 129.04 481.376 129.207 481.092 129.514C480.8 129.832 480.644 130.254 480.658 130.687C480.644 131.045 480.749 131.398 480.955 131.689C481.144 131.947 481.415 132.132 481.722 132.214V135.079C481.117 134.967 480.549 134.704 480.069 134.315C479.577 133.915 479.185 133.403 478.926 132.82C478.632 132.134 478.492 131.39 478.516 130.643C478.539 129.895 478.725 129.162 479.061 128.496C479.42 127.827 479.964 127.28 480.626 126.92C481.369 126.546 482.187 126.352 483.017 126.352C483.846 126.352 484.664 126.546 485.407 126.92C486.066 127.282 486.606 127.832 486.958 128.502C487.312 129.222 487.497 130.015 487.497 130.819C487.497 131.623 487.312 132.416 486.958 133.136C486.616 133.787 486.094 134.323 485.456 134.68C484.774 135.054 484.008 135.241 483.232 135.222C482.985 135.224 482.739 135.2 482.497 135.151ZM484.93 132.023C485.22 131.695 485.375 131.266 485.363 130.826C485.38 130.371 485.224 129.928 484.927 129.586C484.634 129.258 484.205 129.072 483.64 129.029V132.488C484.209 132.499 484.64 132.345 484.93 132.023Z" fill="white"/>
<path d="M486.975 140.678C487.287 141.203 487.451 141.805 487.448 142.417H484.574V141.639C484.574 140.919 484.423 140.361 484.122 139.964C483.821 139.568 483.309 139.368 482.585 139.366L478.597 139.356V136.65L487.358 136.657V139.363H485.709C486.23 139.692 486.664 140.143 486.975 140.678Z" fill="white"/>
<path d="M486.989 148.666C486.693 149.144 486.26 149.52 485.747 149.742H487.332V152.448L478.571 152.429V149.723H480.157C479.645 149.499 479.213 149.122 478.919 148.643C478.606 148.115 478.449 147.507 478.467 146.892C478.459 146.199 478.648 145.519 479.014 144.934C479.397 144.338 479.94 143.866 480.579 143.571C481.334 143.243 482.148 143.074 482.97 143.076C483.793 143.078 484.606 143.25 485.359 143.582C485.994 143.881 486.532 144.356 486.91 144.951C487.273 145.538 487.46 146.219 487.447 146.911C487.465 147.528 487.306 148.138 486.989 148.666ZM484.523 146.382C484.146 146.027 483.622 145.848 482.949 145.847C482.276 145.846 481.751 146.022 481.374 146.376C481.009 146.751 480.805 147.256 480.807 147.783C480.809 148.309 481.016 148.813 481.384 149.185C481.771 149.551 482.289 149.735 482.938 149.736C483.597 149.736 484.117 149.556 484.501 149.192C484.867 148.819 485.074 148.315 485.076 147.79C485.079 147.265 484.878 146.759 484.515 146.382H484.523Z" fill="white"/>
<path d="M480.859 159.319H478.551V158.099C478.551 157.061 478.806 156.254 479.316 155.679C479.826 155.104 480.666 154.817 481.836 154.82H485.054V153.629H487.315V154.82H489.466V157.526H487.315V159.304H485.056V157.527H481.79C481.445 157.527 481.204 157.597 481.067 157.74C480.93 157.884 480.862 158.122 480.862 158.461L480.859 159.319Z" fill="white"/>
<path d="M482.423 169.179L482.436 163.037C481.778 163.066 481.305 163.235 481.019 163.541C480.874 163.698 480.761 163.883 480.687 164.084C480.612 164.286 480.578 164.5 480.586 164.714C480.571 165.072 480.675 165.425 480.882 165.716C481.071 165.975 481.342 166.16 481.65 166.241V169.106C481.044 168.994 480.475 168.73 479.995 168.339C479.503 167.94 479.111 167.428 478.852 166.846C478.559 166.159 478.419 165.416 478.442 164.668C478.465 163.921 478.652 163.187 478.987 162.521C479.346 161.853 479.89 161.305 480.553 160.945C481.295 160.571 482.113 160.377 482.943 160.377C483.772 160.377 484.591 160.571 485.333 160.945C485.993 161.307 486.533 161.857 486.884 162.527C487.238 163.247 487.422 164.04 487.422 164.844C487.422 165.648 487.238 166.441 486.884 167.161C486.542 167.812 486.019 168.348 485.38 168.705C484.699 169.079 483.932 169.266 483.157 169.248C482.911 169.25 482.665 169.227 482.423 169.179ZM484.856 166.05C485.147 165.721 485.302 165.292 485.291 164.851C485.307 164.397 485.15 163.954 484.853 163.613C484.562 163.285 484.132 163.099 483.566 163.054V166.515C484.138 166.526 484.567 166.371 484.856 166.05Z" fill="white"/>
</g>
<defs>
<filter id="filter0_d" x="0" y="0" width="529.998" height="275" filterUnits="userSpaceOnUse" color-interpolation-filters="sRGB">
<feFlood flood-opacity="0" result="BackgroundImageFix"/>
<feColorMatrix in="SourceAlpha" type="matrix" values="0 0 0 0 0 0 0 0 0 0 0 0 0 0 0 0 0 0 127 0"/>
<feOffset dy="4"/>
<feGaussianBlur stdDeviation="10"/>
<feColorMatrix type="matrix" values="0 0 0 0 0.0992869 0 0 0 0 0.34252 0 0 0 0 0.799942 0 0 0 0.5 0"/>
<feBlend mode="normal" in2="BackgroundImageFix" result="effect1_dropShadow"/>
<feBlend mode="normal" in="SourceGraphic" in2="effect1_dropShadow" result="shape"/>
</filter>
<linearGradient id="paint0_linear" x1="132.979" y1="177.068" x2="132.979" y2="249.068" gradientUnits="userSpaceOnUse">
<stop stop-color="#9D5DF9"/>
<stop offset="1" stop-color="#C49CFE"/>
</linearGradient>
<linearGradient id="paint1_linear" x1="49.2701" y1="-13.919" x2="-32.9229" y2="221.47" gradientUnits="userSpaceOnUse">
<stop offset="0.000700786" stop-color="#C69EFF"/>
<stop offset="0.558395" stop-color="#447FFF"/>
<stop offset="1" stop-color="#C298FF"/>
</linearGradient>
<linearGradient id="paint2_linear" x1="139.089" y1="17.936" x2="139.089" y2="87.774" gradientUnits="userSpaceOnUse">
<stop stop-color="#9D5DF9"/>
<stop offset="1" stop-color="#C49CFE"/>
</linearGradient>
<linearGradient id="paint3_linear" x1="264.682" y1="47.422" x2="264.682" y2="222.803" gradientUnits="userSpaceOnUse">
<stop stop-color="#9D5DF9"/>
<stop offset="1" stop-color="#C49CFE"/>
</linearGradient>
<linearGradient id="paint4_linear" x1="397.016" y1="177.062" x2="397.016" y2="249.062" gradientUnits="userSpaceOnUse">
<stop stop-color="#9D5DF9"/>
<stop offset="1" stop-color="#C49CFE"/>
</linearGradient>
<linearGradient id="paint5_linear" x1="463.927" y1="36.672" x2="396.232" y2="207.046" gradientUnits="userSpaceOnUse">
<stop offset="0.000700786" stop-color="#C69EFF"/>
<stop offset="0.558395" stop-color="#447FFF"/>
<stop offset="1" stop-color="#C298FF"/>
</linearGradient>
<linearGradient id="paint6_linear" x1="390.024" y1="17.936" x2="390.024" y2="87.778" gradientUnits="userSpaceOnUse">
<stop stop-color="#9D5DF9"/>
<stop offset="1" stop-color="#C49CFE"/>
</linearGradient>
<linearGradient id="paint7_linear" x1="263.519" y1="47.635" x2="263.519" y2="222.805" gradientUnits="userSpaceOnUse">
<stop stop-color="#9D5DF9"/>
<stop offset="1" stop-color="#C49CFE"/>
</linearGradient>
</defs>
</svg>
