<svg width="182" height="182" viewBox="0 0 182 182" fill="none" xmlns="http://www.w3.org/2000/svg">
<path d="M177.1 79.5L165.9 68.3L143.2 45.6C130.3 32.7 110.3 33 97.7002 45.6L120.4 68.3L143 90.9L154.4 102.3C160.7 108.6 170.9 108.6 177.1 102.3C183.4 96 183.4 85.8 177.1 79.5Z" fill="#28DA8C"/>
<path d="M45.5999 84.2L68.2999 61.5L90.9999 38.8L91.0999 38.7L102.3 27.5C108.6 21.2 108.6 11 102.3 4.8C95.9999 -1.4 85.7999 -1.5 79.5999 4.8L68.2999 16L45.5999 38.7C32.9999 51.3 32.6999 71.3 45.5999 84.2Z" fill="#9D5DF9"/>
<path d="M84.1999 136.3L61.4999 113.6L38.7999 91L27.4999 79.6C21.1999 73.3 10.9999 73.3 4.79988 79.6C-1.40012 85.9 -1.50012 96.1 4.79988 102.3L15.9999 113.6L38.6999 136.3C50.8999 148.6 71.5999 148.9 84.1999 136.3Z" fill="#FFD901"/>
<path d="M136.3 97.7L113.6 120.4L90.8999 143L79.4999 154.4C73.1999 160.7 73.1999 170.9 79.4999 177.1C85.7999 183.4 95.9999 183.4 102.2 177.1L113.4 165.9L136.1 143.2C148.8 130.6 148.5 109.9 136.3 97.7Z" fill="#3E81FF"/>
</svg>
