<svg width="498" height="182" viewBox="0 0 498 182" fill="none" xmlns="http://www.w3.org/2000/svg">
<g clip-path="url(#clip0)">
<path d="M248.5 103C248 103 247.6 102.4 247.9 102C249.8 98.5999 252.4 95.8999 255.6 93.6999C259.1 91.2999 263.3 90.0999 268.2 90.0999C272.8 90.0999 276.9 91.1999 280.5 93.2999C283.8 95.2999 286.3 98.1999 287.9 102C288.1 102.5 287.7 103 287.3 103H248.5V103ZM396.7 70.7999C396.2 70.7999 395.8 70.3999 395.8 69.8999V68.6999V57.1999C395.8 54.9999 397.6 53.1999 399.8 53.1999H410.2C411.3 53.1999 412.1 52.2999 412.1 51.2999V32.7999C412.1 31.6999 411.2 30.8999 410.2 30.8999H397.2C383.2 30.8999 371.9 42.1999 371.9 56.1999V68.5999V69.8999C371.9 70.3999 371.5 70.7999 371 70.7999H361.9H358.5H346.4C345.9 70.7999 345.5 70.3999 345.5 69.8999V68.6999V57.1999C345.5 54.9999 347.3 53.1999 349.5 53.1999H360C361.1 53.1999 361.9 52.2999 361.9 51.2999V32.7999C361.9 31.6999 361 30.8999 360 30.8999H347C333 30.8999 321.7 42.1999 321.7 56.1999V68.5999V69.8999C321.7 70.3999 321.3 70.7999 320.8 70.7999H308.9C307.8 70.7999 307 71.6999 307 72.6999V89.7999C307 90.2999 306.4 90.3999 306.2 89.9999C304.5 87.1999 302.6 84.6999 300.3 82.3999C296.3 78.1999 291.6 74.9999 286.1 72.5999C280.6 70.1999 274.6 68.9999 268.1 68.9999C261.8 68.9999 256 70.1999 250.5 72.5999C245.1 74.9999 240.3 78.1999 236.2 82.1999C232.1 86.2999 228.9 90.9999 226.6 96.4999C224.3 102 223.1 107.9 223.1 114.1C223.1 120.4 224.1 126.2 226.2 131.7C228.3 137.2 231.3 142 235.2 146C239.1 150.1 243.9 153.3 249.4 155.6C254.9 158 261.1 159.2 267.9 159.2C279.1 159.2 288.4 156.5 295.6 151C302.3 145.9 307.4 139.1 310.9 130.4C311.3 129.4 310.6 128.4 309.6 128.4H287.2C286.7 128.4 286.2 128.7 285.9 129.2C284.4 132.1 282.3 134.3 279.7 136C276.8 137.9 272.9 138.8 268.1 138.8C262.1 138.8 257.2 137.3 253.4 134.2C250.1 131.5 247.8 128.1 246.4 123.8C246.1 122.9 246.8 121.9 247.8 121.9H311.7C312.5 121.9 313.1 121.3 313.1 120.5V114.3C313.1 108 312 102.2 309.7 96.6999C309.1 95.2999 308.5 93.8999 307.8 92.5999C307.6 92.2999 307.9 91.8999 308.2 91.8999H320.9C321.4 91.8999 321.8 92.2999 321.8 92.7999V155.5C321.8 156.6 322.7 157.4 323.7 157.4H343.7C344.8 157.4 345.6 156.5 345.6 155.5V93.0999C345.6 92.5999 346 92.1999 346.5 92.1999H358.6H362H371.1C371.6 92.1999 372 92.5999 372 93.0999V155.8C372 156.9 372.9 157.7 373.9 157.7H393.9C395 157.7 395.8 156.8 395.8 155.8V93.0999C395.8 92.5999 396.2 92.1999 396.7 92.1999H404.9H410.1H421.4C421.7 92.1999 422 92.3999 422.2 92.5999L436.9 113C437.1 113.3 437.1 113.8 436.9 114.1L406.8 155.6C406.2 156.5 406.8 157.7 407.9 157.7H432.8C433.8 157.7 434.7 157.2 435.3 156.4L451.3 133.4C451.7 132.9 452.5 132.8 452.9 133.4L470.4 157.7H496.8C497.9 157.7 498.5 156.5 497.9 155.6L467.4 114.3C467.2 114 467.1 113.5 467.4 113.2L495.6 72.8999C496.2 71.9999 495.6 70.7999 494.5 70.7999H470.6C469.6 70.7999 468.7 71.2999 468.1 72.0999L453.2 93.9999C452.8 94.5999 452 94.5999 451.6 93.9999L436.5 72.0999C435.9 71.2999 435 70.7999 434 70.7999H396.7Z" fill="white"/>
<path d="M177.1 79.4999L165.9 68.2999L143.2 45.5999C130.3 32.6999 110.3 32.9999 97.7 45.5999L120.4 68.2999L143 90.8999L154.4 102.3C160.7 108.6 170.9 108.6 177.1 102.3C183.4 95.9999 183.4 85.7999 177.1 79.4999Z" fill="#28DA8C"/>
<path d="M45.5999 84.1999L68.2999 61.4999L90.9999 38.7999L91.0999 38.6999L102.3 27.4999C108.6 21.1999 108.6 10.9999 102.3 4.79988C95.9999 -1.40012 85.7999 -1.50012 79.5999 4.79988L68.2999 15.9999L45.5999 38.6999C32.9999 51.2999 32.6999 71.2999 45.5999 84.1999Z" fill="#9D5DF9"/>
<path d="M84.1999 136.3L61.4999 113.6L38.7999 91L27.4999 79.6C21.1999 73.3 10.9999 73.3 4.79988 79.6C-1.40012 85.9 -1.50012 96.1 4.79988 102.3L15.9999 113.6L38.6999 136.3C50.8999 148.6 71.5999 148.9 84.1999 136.3Z" fill="#FFD901"/>
<path d="M136.3 97.7002L113.6 120.4L90.8999 143L79.4999 154.4C73.1999 160.7 73.1999 170.9 79.4999 177.1C85.7999 183.4 95.9999 183.4 102.2 177.1L113.4 165.9L136.1 143.2C148.8 130.6 148.5 109.9 136.3 97.7002Z" fill="#3E81FF"/>
</g>
<defs>
<clipPath id="clip0">
<rect width="498" height="181.9" fill="white"/>
</clipPath>
</defs>
</svg>
