<svg width="1150" height="1150" viewBox="0 0 1150 1150" fill="none" xmlns="http://www.w3.org/2000/svg">
<path opacity="0.15" d="M179.939 350L736.847 671.392L736.762 1105.4L179.854 784.008L179.939 350Z" fill="url(#paint0_linear)"/>
<path opacity="0.15" d="M188.766 706.531L337.549 792.407V806.034L188.766 720.072V706.531Z" fill="white"/>
<path opacity="0.15" d="M188.766 679.106L374.573 786.322V799.949L188.766 692.733V679.106Z" fill="white"/>
<path opacity="0.2" d="M165.197 634.625L399.085 769.609V890.196L165.197 755.125V634.625Z" fill="url(#paint1_linear)"/>
<path opacity="0.15" d="M610.348 922.849L652.686 947.275V987.127L610.348 962.701V922.849Z" fill="white"/>
<path opacity="0.15" d="M558.238 891.395L600.576 915.821V955.673L558.238 931.248V891.395Z" fill="white"/>
<path opacity="0.15" d="M506.131 861.827L548.469 886.253V926.105L506.131 901.68V861.827Z" fill="white"/>
<path opacity="0.15" d="M454.279 829.946L496.617 854.371V894.224L454.279 869.798V829.946Z" fill="white"/>
<path opacity="0.15" d="M217.477 621.083L452.05 756.497V770.124L217.477 634.71V621.083Z" fill="white"/>
<path opacity="0.15" d="M217.477 593.915L493.102 752.982V766.61L217.477 607.542V593.915Z" fill="white"/>
<path opacity="0.15" d="M217.477 566.489L536.983 750.926V764.553L217.477 580.116V566.489Z" fill="white"/>
<path d="M143 456.959L286.898 540.007V579.859L143 496.897V456.959Z" fill="#28DA8C"/>
<path d="M783.6 588.7C800.8 610.2 819.9 633.8 833.3 650.3C848.2 605.5 828.3 542.9 806.1 496.1C800.8 525.2 793.4 556 783.6 588.7Z" fill="#28DA8C"/>
<path d="M678.801 422.9C656.701 444.1 636.901 483.7 651.801 545.6C665.201 544.5 684.201 543 701.401 541.4C691.601 497.4 684.201 458.1 678.801 422.9Z" fill="#28DA8C"/>
<path opacity="0.25" d="M726.4 643.4C602.8 168.8 704.5 128.5 742.9 112.3C781.3 172.9 882.9 330.5 759.2 662.3L726.4 643.4Z" fill="url(#paint2_linear)"/>
<path opacity="0.1" d="M762.8 616.1C639.2 141.6 740.8 101.2 779.3 85C817.7 145.6 919.3 303.2 795.6 635L762.8 616.1Z" fill="url(#paint3_linear)"/>
<path opacity="0.2" d="M759.198 662.3C882.898 330.5 781.298 172.9 742.898 112.3V652.9L759.198 662.3Z" fill="url(#paint4_linear)"/>
<path opacity="0.1" d="M779.699 279.4C779.699 308.3 762.699 321.9 741.699 309.8C720.699 297.7 703.699 264.4 703.699 235.5C703.699 206.6 720.699 193 741.699 205.1C762.699 217.2 779.699 250.5 779.699 279.4Z" fill="white"/>
<path opacity="0.15" d="M772.2 769.7C763.5 755.5 759.3 737.5 755.6 721.7C751.3 703.5 747.7 688 738.7 684.1C728.4 679.6 723.8 691 717.3 706.8C713.5 716.1 709 727.1 702.4 737.2C695.3 729.7 687.8 723.5 679.9 719C646.8 699.9 619.2 716.4 612.7 755.8C608.2 752.4 603.7 749.3 599.1 746.6C546 716 503 750.7 503 824.3C503 897.8 546 982.2 599 1012.8C650.5 1042.5 692.6 1010.6 695 941.5C704.7 959.5 717.6 974.6 731.9 982.8C735.6 984.9 739.2 986.5 742.6 987.5C763.2 1032.8 793.9 1071.8 828.2 1091.6C890.2 1127.4 940.5 1087 940.6 1001.4C940.6 915.8 890.3 817.3 828.3 781.5C807.8 769.7 788.7 766.1 772.2 769.7Z" fill="url(#paint5_linear)"/>
<path d="M211.5 266.2C211.5 272.8 207.6 276 202.7 273.2C197.8 270.4 193.9 262.7 193.9 256.1C193.9 249.5 197.8 246.3 202.7 249.1C207.5 251.9 211.5 259.6 211.5 266.2Z" fill="#28DA8C"/>
<path opacity="0.15" d="M219.701 282.8L318.901 340V349.8L219.701 292.6V282.8Z" fill="white"/>
<path opacity="0.15" d="M219.602 263.4L266.202 290.3V300L219.602 273.1V263.4Z" fill="white"/>
<path opacity="0.2" d="M334.8 310.4L180 221V301.6L334.8 391V310.4Z" fill="url(#paint6_linear)"/>
<path d="M403.5 306.2C403.5 312.8 399.6 316 394.7 313.2C389.8 310.4 385.9 302.7 385.9 296.1C385.9 289.5 389.8 286.3 394.7 289.1C399.5 291.9 403.5 299.6 403.5 306.2Z" fill="#28DA8C"/>
<path opacity="0.15" d="M411.701 322.8L510.901 380V389.8L411.701 332.6V322.8Z" fill="white"/>
<path opacity="0.15" d="M411.602 303.4L458.202 330.3V340L411.602 313.1V303.4Z" fill="white"/>
<path opacity="0.2" d="M526.8 350.4L372 261V341.6L526.8 431V350.4Z" fill="url(#paint7_linear)"/>
<defs>
<linearGradient id="paint0_linear" x1="552.311" y1="564.889" x2="460.677" y2="723.684" gradientUnits="userSpaceOnUse">
<stop stop-color="white"/>
<stop offset="1" stop-color="white" stop-opacity="0.25"/>
</linearGradient>
<linearGradient id="paint1_linear" x1="308.236" y1="717.145" x2="260.154" y2="800.446" gradientUnits="userSpaceOnUse">
<stop stop-color="white"/>
<stop offset="1" stop-color="white" stop-opacity="0.75"/>
</linearGradient>
<linearGradient id="paint2_linear" x1="886.995" y1="129.127" x2="576.144" y2="667.68" gradientUnits="userSpaceOnUse">
<stop stop-color="white"/>
<stop offset="1" stop-color="white" stop-opacity="0.75"/>
</linearGradient>
<linearGradient id="paint3_linear" x1="923.385" y1="101.834" x2="612.534" y2="640.387" gradientUnits="userSpaceOnUse">
<stop stop-color="white"/>
<stop offset="1" stop-color="white" stop-opacity="0.75"/>
</linearGradient>
<linearGradient id="paint4_linear" x1="829.025" y1="246.562" x2="589.062" y2="679.542" gradientUnits="userSpaceOnUse">
<stop stop-color="white" stop-opacity="0.75"/>
<stop offset="1" stop-color="white"/>
</linearGradient>
<linearGradient id="paint5_linear" x1="806.452" y1="768.919" x2="672.189" y2="1001.53" gradientUnits="userSpaceOnUse">
<stop stop-color="white"/>
<stop offset="1" stop-color="white" stop-opacity="0.75"/>
</linearGradient>
<linearGradient id="paint6_linear" x1="274.859" y1="275.753" x2="239.941" y2="336.247" gradientUnits="userSpaceOnUse">
<stop stop-color="white"/>
<stop offset="1" stop-color="white" stop-opacity="0.75"/>
</linearGradient>
<linearGradient id="paint7_linear" x1="466.859" y1="315.753" x2="431.941" y2="376.247" gradientUnits="userSpaceOnUse">
<stop stop-color="white"/>
<stop offset="1" stop-color="white" stop-opacity="0.75"/>
</linearGradient>
</defs>
</svg>
