<svg width="1150" height="1150" viewBox="0 0 1150 1150" fill="none" xmlns="http://www.w3.org/2000/svg">
<path opacity="0.75" d="M179.74 316.1L736.648 637.492L736.562 1071.5L179.654 750.108L179.74 316.1Z" fill="url(#paint0_linear)"/>
<path opacity="0.75" d="M164.998 600.724L398.886 735.709V856.295L164.998 721.225V600.724Z" fill="url(#paint1_linear)"/>
<path opacity="0.75" d="M188.566 672.631L337.35 758.507V772.134L188.566 686.172V672.631Z" fill="white"/>
<path opacity="0.75" d="M188.566 645.206L374.374 752.422V766.049L188.566 658.833V645.206Z" fill="white"/>
<path opacity="0.75" d="M610.148 888.949L652.487 913.375V953.227L610.148 928.801V888.949Z" fill="white"/>
<path opacity="0.75" d="M558.039 857.495L600.377 881.921V921.773L558.039 897.348V857.495Z" fill="white"/>
<path opacity="0.75" d="M505.932 827.927L548.27 852.353V892.205L505.932 867.78V827.927Z" fill="white"/>
<path opacity="0.75" d="M454.08 796.046L496.418 820.471V860.324L454.08 835.898V796.046Z" fill="white"/>
<path opacity="0.75" d="M217.277 587.183L451.851 722.597V736.224L217.277 600.81V587.183Z" fill="white"/>
<path opacity="0.75" d="M217.277 560.015L492.903 719.082V732.71L217.277 573.642V560.015Z" fill="white"/>
<path opacity="0.75" d="M217.277 532.589L536.784 717.026V730.653L217.277 546.216V532.589Z" fill="white"/>
<path d="M142.801 423.059L286.699 506.107V545.959L142.801 462.997V423.059Z" fill="#28DA8C"/>
<path d="M783.4 554.8C800.6 576.3 819.7 599.9 833.1 616.4C848 571.6 828.1 509 805.9 462.2C800.6 491.3 793.2 522.1 783.4 554.8Z" fill="#28DA8C"/>
<path d="M678.602 389C656.502 410.2 636.702 449.8 651.602 511.7C665.002 510.6 684.002 509.1 701.202 507.5C691.402 463.5 684.002 424.2 678.602 389Z" fill="#28DA8C"/>
<path opacity="0.75" d="M726.201 609.5C602.601 134.9 704.301 94.6 742.701 78.4C781.101 139 882.701 296.6 759.001 628.4L726.201 609.5Z" fill="url(#paint2_linear)"/>
<path opacity="0.25" d="M762.601 582.2C639.001 107.7 740.601 67.3 779.101 51.1C817.501 111.7 919.101 269.3 795.401 601.1L762.601 582.2Z" fill="url(#paint3_linear)"/>
<path opacity="0.75" d="M758.999 628.4C882.699 296.6 781.099 139 742.699 78.4V619L758.999 628.4Z" fill="url(#paint4_linear)"/>
<path opacity="0.75" d="M779.5 245.5C779.5 274.4 762.5 288 741.5 275.9C720.5 263.8 703.5 230.5 703.5 201.6C703.5 172.7 720.5 159.1 741.5 171.2C762.5 183.3 779.5 216.6 779.5 245.5Z" fill="white"/>
<path opacity="0.5" d="M772.001 735.8C763.301 721.6 759.101 703.6 755.401 687.8C751.101 669.6 747.501 654.1 738.501 650.2C728.201 645.7 723.601 657.1 717.101 672.9C713.301 682.2 708.801 693.2 702.201 703.3C695.101 695.8 687.601 689.6 679.701 685.1C646.601 666 619.001 682.5 612.501 721.9C608.001 718.5 603.501 715.4 598.901 712.7C545.801 682.1 502.801 716.8 502.801 790.4C502.801 863.9 545.801 948.3 598.801 978.9C650.301 1008.6 692.401 976.7 694.801 907.6C704.501 925.6 717.401 940.7 731.701 948.9C735.401 951 739.001 952.6 742.401 953.6C763.001 998.9 793.701 1037.9 828.001 1057.7C890.001 1093.5 940.301 1053.1 940.401 967.5C940.401 881.9 890.101 783.4 828.101 747.6C807.601 735.8 788.501 732.2 772.001 735.8Z" fill="url(#paint5_linear)"/>
<path d="M334.601 276.5L179.801 187.1V267.7L334.601 357.1V276.5Z" fill="url(#paint6_linear)"/>
<path opacity="0.5" d="M211.301 232.3C211.301 238.9 207.401 242.1 202.501 239.3C197.601 236.5 193.701 228.8 193.701 222.2C193.701 215.6 197.601 212.4 202.501 215.2C207.301 218 211.301 225.7 211.301 232.3Z" fill="white"/>
<path opacity="0.75" d="M219.502 248.9L318.702 306.1V315.9L219.502 258.7V248.9Z" fill="white"/>
<path opacity="0.75" d="M219.402 229.5L266.002 256.4V266.1L219.402 239.2V229.5Z" fill="white"/>
<path d="M526.601 316.5L371.801 227.1V307.7L526.601 397.1V316.5Z" fill="url(#paint7_linear)"/>
<path opacity="0.5" d="M403.301 272.3C403.301 278.9 399.401 282.1 394.501 279.3C389.601 276.5 385.701 268.8 385.701 262.2C385.701 255.6 389.601 252.4 394.501 255.2C399.301 258 403.301 265.7 403.301 272.3Z" fill="white"/>
<path opacity="0.75" d="M411.502 288.9L510.702 346.1V355.9L411.502 298.7V288.9Z" fill="white"/>
<path opacity="0.75" d="M411.402 269.5L458.002 296.4V306.1L411.402 279.2V269.5Z" fill="white"/>
<defs>
<linearGradient id="paint0_linear" x1="552.112" y1="530.989" x2="460.478" y2="689.784" gradientUnits="userSpaceOnUse">
<stop stop-color="#28DA8C"/>
<stop offset="1" stop-color="#28DA8C" stop-opacity="0.25"/>
</linearGradient>
<linearGradient id="paint1_linear" x1="308.037" y1="683.245" x2="259.955" y2="766.546" gradientUnits="userSpaceOnUse">
<stop stop-color="#28DA8C"/>
<stop offset="1" stop-color="#28DA8C" stop-opacity="0.5"/>
</linearGradient>
<linearGradient id="paint2_linear" x1="886.796" y1="95.2267" x2="575.945" y2="633.78" gradientUnits="userSpaceOnUse">
<stop stop-color="#28DA8C"/>
<stop offset="1" stop-color="#28DA8C" stop-opacity="0.75"/>
</linearGradient>
<linearGradient id="paint3_linear" x1="923.186" y1="67.9343" x2="612.335" y2="606.487" gradientUnits="userSpaceOnUse">
<stop stop-color="#28DA8C"/>
<stop offset="1" stop-color="#28DA8C" stop-opacity="0.75"/>
</linearGradient>
<linearGradient id="paint4_linear" x1="828.826" y1="212.662" x2="588.863" y2="645.642" gradientUnits="userSpaceOnUse">
<stop stop-color="#28DA8C" stop-opacity="0.25"/>
<stop offset="1" stop-color="#28DA8C"/>
</linearGradient>
<linearGradient id="paint5_linear" x1="806.252" y1="735.019" x2="671.989" y2="967.632" gradientUnits="userSpaceOnUse">
<stop stop-color="#28DA8C"/>
<stop offset="1" stop-color="#28DA8C" stop-opacity="0.5"/>
</linearGradient>
<linearGradient id="paint6_linear" x1="274.66" y1="241.853" x2="239.742" y2="302.347" gradientUnits="userSpaceOnUse">
<stop stop-color="#28DA8C"/>
<stop offset="1" stop-color="#28DA8C" stop-opacity="0.25"/>
</linearGradient>
<linearGradient id="paint7_linear" x1="466.66" y1="281.853" x2="431.742" y2="342.347" gradientUnits="userSpaceOnUse">
<stop stop-color="#28DA8C"/>
<stop offset="1" stop-color="#28DA8C" stop-opacity="0.25"/>
</linearGradient>
</defs>
</svg>
