<svg width="1150" height="1150" viewBox="0 0 1150 1150" fill="none" xmlns="http://www.w3.org/2000/svg">
<path opacity="0.75" d="M474.101 99.0999C480.401 102.7 485.401 111.5 485.401 118.7V311.9L542.701 345V544.3C542.701 551.5 537.601 554.4 531.401 550.8C525.101 547.2 520.101 538.4 520.101 531.2V358L462.701 325V105.6C462.701 98.3999 467.801 95.4999 474.101 99.0999Z" fill="url(#paint0_linear)"/>
<path opacity="0.75" d="M505.3 938.3C511.6 941.9 516.6 939 516.6 931.8V787L573.9 820.1V725.3C573.9 718.1 568.8 709.3 562.6 705.7C556.3 702.1 551.3 705 551.3 712.2V780.9L494 747.8V918.7C494 925.9 499.1 934.7 505.3 938.3Z" fill="url(#paint1_linear)"/>
<path opacity="0.75" d="M593.402 240.9C599.702 244.5 604.702 253.3 604.702 260.5V589.2C604.702 596.4 599.602 599.3 593.402 595.7C587.102 592.1 582.102 583.3 582.102 576.1V247.4C582.102 240.2 587.202 237.3 593.402 240.9Z" fill="url(#paint2_linear)"/>
<path d="M529.2 921.8C529.2 941.6 517.6 951 503.3 942.7C489 934.5 477.4 911.7 477.4 891.9C477.4 872.1 489 862.7 503.3 871C517.6 879.2 529.2 902 529.2 921.8Z" fill="#3E81FF"/>
<path opacity="0.75" d="M719.5 405.7C713.2 402.1 708.2 405 708.2 412.2V509.8L650.9 476.7V596.6C650.9 603.8 656 612.6 662.2 616.2C668.5 619.8 673.5 616.9 673.5 609.7V515.9L730.8 549V425.3C730.8 418.1 725.7 409.3 719.5 405.7Z" fill="url(#paint3_linear)"/>
<path d="M744.901 440.2C744.901 459.8 733.401 469 719.301 460.9C705.201 452.7 693.701 430.3 693.701 410.7C693.701 391.1 705.101 381.9 719.301 390C733.501 398.2 744.901 420.6 744.901 440.2Z" fill="#6EA0FF"/>
<path opacity="0.75" d="M829.102 939.4C829.102 932.2 824.002 923.4 817.802 919.8L728.802 868.4V793.9L640.402 742.9C634.102 739.3 629.102 742.2 629.102 749.4C629.102 756.6 634.202 765.4 640.402 769L706.202 807V881.5L817.902 945.9C824.102 949.5 829.102 946.6 829.102 939.4Z" fill="url(#paint4_linear)"/>
<path opacity="0.75" d="M614.3 1047.8C608 1044.2 603 1035.4 603 1028.2V791.2C603 784 608.1 781.1 614.3 784.7C620.6 788.3 625.6 797.1 625.6 804.3V1041.3C625.6 1048.5 620.5 1051.4 614.3 1047.8Z" fill="url(#paint5_linear)"/>
<path d="M842.902 948C842.902 967.8 831.302 977.2 817.002 968.9C802.702 960.7 791.102 937.9 791.102 918.1C791.102 898.3 802.702 888.9 817.002 897.2C831.302 905.4 842.902 928.2 842.902 948Z" fill="#6EA0FF"/>
<path d="M289 550.2L451.8 644.2V945.8L289 851.8V550.2Z" fill="url(#paint6_linear)"/>
<path opacity="0.1" d="M313 542.2L475.8 636.2V937.8L313 843.8V542.2Z" fill="#3E81FF"/>
<path opacity="0.5" d="M314.801 742L411.801 798V809.9L314.801 753.9V742V742Z" fill="white"/>
<path opacity="0.5" d="M324.9 771.3L401.8 815.7V827.6L324.9 783.2V771.3Z" fill="white"/>
<path d="M351.1 825L237.9 759.6V793.3L351.2 858.7L351.1 825Z" fill="#3E81FF"/>
<path d="M848.501 747.4L693.701 658V738.6L848.501 828V747.4Z" fill="url(#paint7_linear)"/>
<path opacity="0.25" d="M866.501 736.4L711.701 647V727.6L866.501 817V736.4Z" fill="url(#paint8_linear)"/>
<path opacity="0.75" d="M733.301 700.4L779.901 727.3V737L733.301 710V700.4Z" fill="#CFDFFF"/>
<path opacity="0.75" d="M733.4 719.8L832.6 777V786.8L733.4 729.6V719.8Z" fill="white"/>
<path opacity="0.75" d="M725.202 703.2C725.202 709.8 721.302 713 716.402 710.2C711.502 707.4 707.602 699.7 707.602 693.1C707.602 686.5 711.502 683.3 716.402 686.1C721.302 688.9 725.202 696.6 725.202 703.2Z" fill="white"/>
<path d="M451.3 500.9L296.5 411.5V492.1L451.3 581.5V500.9Z" fill="url(#paint9_linear)"/>
<path opacity="0.5" d="M336.102 453.9L382.702 480.8V490.5L336.102 463.6V453.9Z" fill="white"/>
<path opacity="0.5" d="M336.201 473.3L435.401 530.5V540.3L336.201 483.1V473.3Z" fill="white"/>
<path opacity="0.5" d="M328 456.7C328 463.3 324.1 466.5 319.2 463.7C314.3 460.9 310.4 453.2 310.4 446.6C310.4 440 314.3 436.8 319.2 439.6C324 442.4 328 450.1 328 456.7Z" fill="white"/>
<path opacity="0.5" d="M644.058 691.405C631.375 738.736 597.649 753.717 568.832 724.876C539.918 696.009 526.864 634.225 539.546 586.895C552.228 539.564 585.955 524.583 614.772 553.424C643.686 582.291 656.74 644.075 644.058 691.405Z" fill="url(#paint10_linear)"/>
<path d="M630.127 638.451L625.615 632.433L616.47 620.237C611.273 613.306 602.859 613.181 597.34 619.594L606.485 631.791L615.589 643.933L620.182 650.058C622.72 653.443 627.009 653.587 629.726 650.379C632.486 647.172 632.665 641.836 630.127 638.451Z" fill="url(#paint11_linear)"/>
<path d="M574.757 639.052L584.7 627.497L594.643 615.942L594.687 615.892L599.593 610.19C602.353 606.984 602.532 601.648 599.992 598.315C597.452 594.982 593.166 594.786 590.448 597.994L585.5 603.694L575.557 615.249C570.038 621.662 569.56 632.121 574.757 639.052Z" fill="url(#paint12_linear)"/>
<path d="M590.069 666.853L580.924 654.657L571.777 642.513L567.227 636.39C564.689 633.005 560.4 632.861 557.683 636.069C554.965 639.277 554.744 644.612 557.284 647.944L561.794 654.014L570.939 666.21C575.852 672.817 584.55 673.267 590.069 666.853Z" fill="url(#paint13_linear)"/>
<path d="M612.653 647.396L602.71 658.951L592.768 670.453L587.775 676.256C585.015 679.463 584.836 684.799 587.376 688.131C589.914 691.516 594.202 691.66 596.92 688.452L601.826 682.751L611.769 671.196C617.33 664.784 617.568 653.951 612.653 647.396Z" fill="url(#paint14_linear)"/>
<path opacity="0.5" d="M369.919 657.645L338.865 639.724V629.276L369.919 647.197C372.458 648.648 376.159 651.623 379.278 656.194C382.689 661.055 385.083 667.222 385.083 673.897C385.083 681.298 383.196 685.506 379.641 686.667C376.304 687.755 372.313 685.869 369.919 684.49L357.149 677.09L357.077 677.017C355.988 676.364 354.247 675.711 352.868 676.146C351.708 676.509 350.474 677.597 350.474 681.733C350.474 685.869 351.78 688.336 352.796 689.859C354.102 691.746 355.843 693.052 356.931 693.632L357.077 693.705L396.111 716.269V726.717L357.367 704.298C354.682 702.919 350.837 699.944 347.499 695.301C343.872 690.149 341.405 683.692 341.405 676.509C341.405 669.326 343.872 665.698 347.427 664.683C350.764 663.739 354.61 665.118 357.294 666.714L369.919 674.042C371.733 675.131 373.111 675.566 374.055 675.276C374.78 675.058 376.086 674.042 376.086 668.746C376.086 665.263 374.998 663.014 373.909 661.563C372.603 659.604 370.935 658.225 369.919 657.645Z" fill="white"/>
<path d="M344.524 637.474C344.524 646.834 339.009 651.26 332.262 647.414C325.514 643.496 320 632.758 320 623.326C320 613.966 325.514 609.541 332.262 613.386C339.009 617.304 344.524 628.115 344.524 637.474Z" fill="#6EA0FF"/>
<path d="M412 730.345C412 739.705 406.486 744.13 399.738 740.285C392.991 736.367 387.477 725.629 387.477 716.197C387.477 706.837 392.991 702.411 399.738 706.257C406.486 710.175 412 720.985 412 730.345Z" fill="#3E81FF"/>
<defs>
<linearGradient id="paint0_linear" x1="587.67" y1="177.743" x2="423.581" y2="462.027" gradientUnits="userSpaceOnUse">
<stop stop-color="#3E81FF"/>
<stop offset="1" stop-color="#3E81FF" stop-opacity="0.25"/>
</linearGradient>
<linearGradient id="paint1_linear" x1="468.98" y1="904.272" x2="572.706" y2="724.567" gradientUnits="userSpaceOnUse">
<stop stop-color="#3E81FF"/>
<stop offset="1" stop-color="#3E81FF" stop-opacity="0"/>
</linearGradient>
<linearGradient id="paint2_linear" x1="664.565" y1="295.008" x2="522.239" y2="541.591" gradientUnits="userSpaceOnUse">
<stop stop-color="#3E81FF"/>
<stop offset="1" stop-color="#3E81FF" stop-opacity="0"/>
</linearGradient>
<linearGradient id="paint3_linear" x1="780.156" y1="358.129" x2="644.575" y2="593.022" gradientUnits="userSpaceOnUse">
<stop stop-color="#3E81FF"/>
<stop offset="1" stop-color="#3E81FF" stop-opacity="0.25"/>
</linearGradient>
<linearGradient id="paint4_linear" x1="866.404" y1="844.416" x2="640.393" y2="844.39" gradientUnits="userSpaceOnUse">
<stop stop-color="#3E81FF"/>
<stop offset="1" stop-color="#3E81FF" stop-opacity="0.25"/>
</linearGradient>
<linearGradient id="paint5_linear" x1="562.958" y1="1005.08" x2="665.748" y2="827.24" gradientUnits="userSpaceOnUse">
<stop stop-color="#3E81FF"/>
<stop offset="1" stop-color="#3E81FF" stop-opacity="0.5"/>
</linearGradient>
<linearGradient id="paint6_linear" x1="469.233" y1="576.772" x2="324.704" y2="827.168" gradientUnits="userSpaceOnUse">
<stop stop-color="#3E81FF"/>
<stop offset="1" stop-color="#3E81FF" stop-opacity="0"/>
</linearGradient>
<linearGradient id="paint7_linear" x1="788.56" y1="712.753" x2="753.642" y2="773.247" gradientUnits="userSpaceOnUse">
<stop stop-color="#3E81FF"/>
<stop offset="1" stop-color="#3E81FF" stop-opacity="0.25"/>
</linearGradient>
<linearGradient id="paint8_linear" x1="806.56" y1="701.753" x2="771.642" y2="762.247" gradientUnits="userSpaceOnUse">
<stop stop-color="#3E81FF"/>
<stop offset="1" stop-color="#3E81FF" stop-opacity="0"/>
</linearGradient>
<linearGradient id="paint9_linear" x1="391.359" y1="466.253" x2="356.441" y2="526.747" gradientUnits="userSpaceOnUse">
<stop stop-color="#3E81FF"/>
<stop offset="1" stop-color="#3E81FF" stop-opacity="0.25"/>
</linearGradient>
<linearGradient id="paint10_linear" x1="623.171" y1="571.756" x2="552.551" y2="723.478" gradientUnits="userSpaceOnUse">
<stop stop-color="#3E81FF"/>
<stop offset="1" stop-color="#3E81FF" stop-opacity="0.75"/>
</linearGradient>
<linearGradient id="paint11_linear" x1="615.193" y1="615.186" x2="613.945" y2="652.323" gradientUnits="userSpaceOnUse">
<stop stop-color="#3E81FF"/>
<stop offset="1" stop-color="#3E81FF" stop-opacity="0.25"/>
</linearGradient>
<linearGradient id="paint12_linear" x1="587.138" y1="595.428" x2="585.66" y2="639.418" gradientUnits="userSpaceOnUse">
<stop stop-color="#3E81FF"/>
<stop offset="1" stop-color="#3E81FF" stop-opacity="0.25"/>
</linearGradient>
<linearGradient id="paint13_linear" x1="573.472" y1="634.125" x2="572.228" y2="671.144" gradientUnits="userSpaceOnUse">
<stop stop-color="#3E81FF"/>
<stop offset="1" stop-color="#3E81FF" stop-opacity="0.25"/>
</linearGradient>
<linearGradient id="paint14_linear" x1="601.661" y1="647.026" x2="600.182" y2="691.036" gradientUnits="userSpaceOnUse">
<stop stop-color="#3E81FF"/>
<stop offset="1" stop-color="#3E81FF" stop-opacity="0.25"/>
</linearGradient>
</defs>
</svg>
