<svg width="1200" height="600" viewBox="0 0 1200 600" fill="none" xmlns="http://www.w3.org/2000/svg">
<g clip-path="url(#clip0)">
<rect width="1200" height="600" fill="white"/>
<path fill-rule="evenodd" clip-rule="evenodd" d="M0 309.422L29 299.736C57 290.05 114 270.678 171 299.736C229 328.794 286 406.281 343 445.025C400 483.769 457 483.769 514 435.339C571 386.91 629 290.05 686 222.249C743 154.447 800 115.703 857 144.761C914 173.819 971 270.678 1029 280.364C1086 290.05 1143 212.563 1171 173.819L1200 135.075V600H1171C1143 600 1086 600 1029 600C971 600 914 600 857 600C800 600 743 600 686 600C629 600 571 600 514 600C457 600 400 600 343 600C286 600 229 600 171 600C114 600 57 600 29 600H0V309.422Z" fill="#E5EAF2" fill-opacity="0.45"/>
<path fill-rule="evenodd" clip-rule="evenodd" d="M0 271.928L29 260.992C57 250.057 114 228.185 171 260.992C229 293.8 286 381.285 343 425.028C400 468.771 457 468.771 514 414.093C571 359.414 629 250.057 686 173.507C743 96.9565 800 53.2136 857 86.0208C914 118.828 971 228.185 1029 239.121C1086 250.057 1143 162.571 1171 118.828L1200 75.085V600H1171C1143 600 1086 600 1029 600C971 600 914 600 857 600C800 600 743 600 686 600C629 600 571 600 514 600C457 600 400 600 343 600C286 600 229 600 171 600C114 600 57 600 29 600H0V271.928Z" fill="#E5EAF2" fill-opacity="0.25"/>
<ellipse opacity="0.75" cx="138" cy="506.5" rx="95" ry="17.5" fill="#E5EAF2"/>
<ellipse opacity="0.75" cx="1105" cy="539" rx="107" ry="13" fill="#E5EAF2"/>
<g filter="url(#filter0_d)">
<path d="M598.823 459.406C494.018 459.406 409.056 374.444 409.056 269.639C409.056 164.833 494.018 79.8711 598.823 79.8711" stroke="#F2F5FB" stroke-width="28.4651" stroke-linecap="round"/>
<path opacity="0.75" d="M766.047 269.998C766.047 361.703 691.706 436.044 600.001 436.044C508.296 436.044 433.954 361.703 433.954 269.998C433.954 178.293 508.296 103.951 600.001 103.951C691.706 103.951 766.047 178.293 766.047 269.998Z" stroke="#28DA8C" stroke-width="4.896"/>
<path d="M600 65.9999C592.14 65.9999 585.768 72.372 585.768 80.2324C585.768 88.0928 592.14 94.465 600 94.465V65.9999ZM469.848 408.102L459.9 418.281L459.991 418.37L460.084 418.458L469.848 408.102ZM434.704 330.062C431.977 322.69 423.79 318.924 416.418 321.651C409.045 324.379 405.28 332.566 408.007 339.938L434.704 330.062ZM775.535 270C775.535 366.945 696.946 445.535 600 445.535V474C712.667 474 804.001 382.666 804.001 270H775.535ZM600 94.465C696.946 94.465 775.535 173.055 775.535 270H804.001C804.001 157.334 712.667 65.9999 600 65.9999V94.465ZM600 445.535C553.391 445.535 511.052 427.388 479.611 397.746L460.084 418.458C496.597 452.881 545.848 474 600 474V445.535ZM479.795 397.923C461.525 380.067 445.675 359.72 434.704 330.062L408.007 339.938C420.807 374.54 439.473 398.317 459.9 418.281L479.795 397.923Z" fill="#28DA8C"/>
<path d="M589.722 234.324L553.287 323.135H522.772L559.511 237.815H516.244V212.311H589.722V234.324ZM598.139 266.053C598.139 248.645 601.681 234.931 608.766 224.911C615.85 214.891 626.983 209.882 642.165 209.882C657.346 209.882 668.479 214.891 675.564 224.911C682.75 234.931 686.342 248.645 686.342 266.053C686.342 283.663 682.8 297.478 675.715 307.498C668.631 317.518 657.447 322.528 642.165 322.528C626.882 322.528 615.698 317.518 608.614 307.498C601.63 297.478 598.139 283.663 598.139 266.053ZM656.891 266.053C656.891 256.944 655.929 250.011 654.006 245.254C652.083 240.396 648.136 237.967 642.165 237.967C636.193 237.967 632.246 240.396 630.323 245.254C628.4 250.011 627.439 256.944 627.439 266.053C627.439 275.364 628.35 282.449 630.171 287.307C632.094 292.064 636.092 294.442 642.165 294.442C648.237 294.442 652.184 292.064 654.006 287.307C655.929 282.449 656.891 275.364 656.891 266.053Z" fill="#1F1852"/>
</g>
<g filter="url(#filter1_d)">
<circle cx="622" cy="80" r="6" fill="white" fill-opacity="0.4"/>
<line x1="628" y1="79.5" x2="753" y2="79.5" stroke="#28DA8C"/>
<rect x="753" y="58" width="174" height="44" rx="8" fill="#28DA8C"/>
<path d="M783.29 71.8592L774.82 85.9992C774.645 86.3017 774.553 86.6445 774.552 86.9937C774.551 87.343 774.641 87.6864 774.814 87.9898C774.987 88.2931 775.237 88.546 775.537 88.7231C775.838 88.9002 776.181 88.9954 776.53 88.9992H793.47C793.819 88.9954 794.161 88.9002 794.462 88.7231C794.763 88.546 795.012 88.2931 795.185 87.9898C795.358 87.6864 795.449 87.343 795.448 86.9937C795.447 86.6445 795.354 86.3017 795.18 85.9992L786.71 71.8592C786.532 71.5653 786.28 71.3223 785.981 71.1537C785.681 70.9851 785.344 70.8965 785 70.8965C784.656 70.8965 784.318 70.9851 784.019 71.1537C783.719 71.3223 783.468 71.5653 783.29 71.8592V71.8592Z" stroke="#1F1852" stroke-width="2" stroke-linecap="round" stroke-linejoin="round"/>
<path d="M785 77V81" stroke="#1F1852" stroke-width="2" stroke-linecap="round" stroke-linejoin="round"/>
<path d="M785 85H785.01" stroke="#1F1852" stroke-width="2" stroke-linecap="round" stroke-linejoin="round"/>
<path d="M808.488 74.616H810.376V85H808.488V74.616ZM814.403 82.632C814.425 83.368 814.963 83.736 816.019 83.736C816.425 83.736 816.755 83.6507 817.011 83.48C817.278 83.2987 817.411 83.0907 817.411 82.856C817.411 82.6213 817.331 82.44 817.171 82.312C817.011 82.184 816.761 82.0667 816.419 81.96L814.723 81.352C813.465 80.9147 812.835 80.2 812.835 79.208C812.835 78.5467 813.129 78.0187 813.715 77.624C814.313 77.2187 815.107 77.016 816.099 77.016C817.102 77.016 817.87 77.2347 818.403 77.672C818.947 78.1093 819.23 78.6587 819.251 79.32H817.475C817.454 79.064 817.331 78.8613 817.107 78.712C816.883 78.5627 816.563 78.488 816.147 78.488C815.731 78.488 815.406 78.5733 815.171 78.744C814.947 78.904 814.835 79.0907 814.835 79.304C814.835 79.6773 815.15 79.9547 815.779 80.136L817.619 80.824C818.227 81.0267 818.691 81.288 819.011 81.608C819.342 81.9173 819.507 82.3227 819.507 82.824C819.507 83.464 819.203 84.0187 818.595 84.488C817.966 84.9787 817.134 85.224 816.099 85.224C815.065 85.224 814.233 85 813.603 84.552C812.974 84.0933 812.654 83.4533 812.643 82.632H814.403ZM822.841 82.632C822.862 83.368 823.401 83.736 824.457 83.736C824.862 83.736 825.193 83.6507 825.449 83.48C825.716 83.2987 825.849 83.0907 825.849 82.856C825.849 82.6213 825.769 82.44 825.609 82.312C825.449 82.184 825.198 82.0667 824.857 81.96L823.161 81.352C821.902 80.9147 821.273 80.2 821.273 79.208C821.273 78.5467 821.566 78.0187 822.153 77.624C822.75 77.2187 823.545 77.016 824.537 77.016C825.54 77.016 826.308 77.2347 826.841 77.672C827.385 78.1093 827.668 78.6587 827.689 79.32H825.913C825.892 79.064 825.769 78.8613 825.545 78.712C825.321 78.5627 825.001 78.488 824.585 78.488C824.169 78.488 823.844 78.5733 823.609 78.744C823.385 78.904 823.273 79.0907 823.273 79.304C823.273 79.6773 823.588 79.9547 824.217 80.136L826.057 80.824C826.665 81.0267 827.129 81.288 827.449 81.608C827.78 81.9173 827.945 82.3227 827.945 82.824C827.945 83.464 827.641 84.0187 827.033 84.488C826.404 84.9787 825.572 85.224 824.537 85.224C823.502 85.224 822.67 85 822.041 84.552C821.412 84.0933 821.092 83.4533 821.081 82.632H822.841ZM835.39 83.592C834.9 84.6267 834.11 85.144 833.022 85.144C831.646 85.144 830.74 84.6053 830.302 83.528C830.142 83.1547 830.062 82.7013 830.062 82.168V77.208H831.95V81.976C831.95 82.488 832.073 82.872 832.318 83.128C832.564 83.3733 832.862 83.496 833.214 83.496C833.577 83.496 833.881 83.448 834.126 83.352C834.372 83.2453 834.585 83.0907 834.766 82.888C835.161 82.4293 835.369 81.816 835.39 81.048V77.208H837.278V85H835.39V83.592ZM845.678 78.152C845.944 78.4933 846.142 78.888 846.27 79.336C846.408 79.784 846.478 80.1947 846.478 80.568C846.478 80.9413 846.456 81.2773 846.414 81.576H841.39C841.411 82.2053 841.566 82.7173 841.854 83.112C842.142 83.5067 842.579 83.704 843.166 83.704C843.944 83.704 844.408 83.3627 844.558 82.68H846.462C846.334 83.4587 845.976 84.072 845.39 84.52C844.782 84.9893 844.04 85.224 843.166 85.224C842.142 85.224 841.283 84.8507 840.59 84.104C839.875 83.3253 839.518 82.328 839.518 81.112C839.518 79.864 839.875 78.8613 840.59 78.104C841.272 77.3787 842.131 77.016 843.166 77.016C844.243 77.016 845.08 77.3947 845.678 78.152ZM843.182 78.52C842.648 78.52 842.232 78.696 841.934 79.048C841.635 79.3893 841.459 79.832 841.406 80.376H844.718C844.718 79.5333 844.451 78.968 843.918 78.68C843.715 78.5733 843.47 78.52 843.182 78.52ZM857.169 84.808C856.465 85.0853 855.91 85.224 855.505 85.224C855.1 85.224 854.742 85.176 854.433 85.08C854.134 84.984 853.868 84.84 853.633 84.648C853.142 84.2107 852.897 83.608 852.897 82.84V78.488H851.809V77.224H852.897V75.176H854.785V77.224H856.897V78.488H854.785V82.776C854.785 83.416 855.089 83.736 855.697 83.736C856.006 83.736 856.406 83.6507 856.897 83.48L857.169 84.808ZM860.985 78.76C861.455 77.64 862.159 77.08 863.097 77.08C863.279 77.08 863.508 77.1173 863.785 77.192L863.753 79.08C863.455 79.016 863.161 78.984 862.873 78.984C861.615 78.984 860.985 79.8533 860.985 81.592V85H859.097V77.208H860.985V78.76ZM868.314 80.456C868.932 80.456 869.647 80.5573 870.458 80.76V79.992C870.458 79.448 870.346 79.048 870.122 78.792C869.908 78.5253 869.551 78.392 869.05 78.392C868.559 78.392 868.18 78.4933 867.914 78.696C867.647 78.888 867.514 79.1653 867.514 79.528H865.45C865.45 78.6427 865.759 78.0027 866.378 77.608C867.007 77.2133 867.882 77.016 869.002 77.016C870.602 77.016 871.636 77.576 872.106 78.696C872.266 79.08 872.346 79.5333 872.346 80.056V85H870.698L870.554 83.96C870.052 84.8027 869.284 85.224 868.25 85.224C867.247 85.224 866.468 84.9787 865.914 84.488C865.402 84.0187 865.146 83.4267 865.146 82.712C865.146 81.9867 865.428 81.432 865.994 81.048C866.559 80.6533 867.332 80.456 868.314 80.456ZM870.458 81.96C869.828 81.7893 869.242 81.704 868.698 81.704C867.674 81.704 867.162 82.0453 867.162 82.728C867.162 83.016 867.279 83.2667 867.514 83.48C867.748 83.6827 868.122 83.784 868.634 83.784C869.156 83.784 869.583 83.6133 869.914 83.272C870.255 82.92 870.436 82.4827 870.458 81.96ZM878.057 77.016C878.548 77.016 878.985 77.1013 879.369 77.272C879.764 77.432 880.095 77.6453 880.361 77.912C880.895 78.424 881.209 79.0693 881.305 79.848L879.401 79.896C879.316 79.5547 879.156 79.272 878.921 79.048C878.697 78.824 878.436 78.712 878.137 78.712C877.839 78.712 877.583 78.76 877.369 78.856C877.156 78.9413 876.969 79.08 876.809 79.272C876.447 79.72 876.265 80.3387 876.265 81.128C876.265 81.9173 876.436 82.5147 876.777 82.92C877.119 83.3147 877.529 83.512 878.009 83.512C878.5 83.512 878.852 83.4 879.065 83.176C879.289 82.9413 879.401 82.6267 879.401 82.232H881.305C881.305 83.0853 881.023 83.7947 880.457 84.36C879.881 84.936 879.076 85.224 878.041 85.224C877.017 85.224 876.159 84.8507 875.465 84.104C874.729 83.304 874.361 82.3067 874.361 81.112C874.361 79.8533 874.729 78.8453 875.465 78.088C876.159 77.3733 877.023 77.016 878.057 77.016ZM886.334 81.208L885.47 81.928V85H883.582V74.024H885.47V79.96L888.542 77.224H891.102L887.662 80.104L891.294 85H888.99L886.334 81.208ZM898.209 78.152C898.476 78.4933 898.673 78.888 898.801 79.336C898.94 79.784 899.009 80.1947 899.009 80.568C899.009 80.9413 898.988 81.2773 898.945 81.576H893.921C893.942 82.2053 894.097 82.7173 894.385 83.112C894.673 83.5067 895.11 83.704 895.697 83.704C896.476 83.704 896.94 83.3627 897.089 82.68H898.993C898.865 83.4587 898.508 84.072 897.921 84.52C897.313 84.9893 896.572 85.224 895.697 85.224C894.673 85.224 893.814 84.8507 893.121 84.104C892.406 83.3253 892.049 82.328 892.049 81.112C892.049 79.864 892.406 78.8613 893.121 78.104C893.804 77.3787 894.662 77.016 895.697 77.016C896.774 77.016 897.612 77.3947 898.209 78.152ZM895.713 78.52C895.18 78.52 894.764 78.696 894.465 79.048C894.166 79.3893 893.99 79.832 893.937 80.376H897.249C897.249 79.5333 896.982 78.968 896.449 78.68C896.246 78.5733 896.001 78.52 895.713 78.52ZM903.157 78.76C903.627 77.64 904.331 77.08 905.269 77.08C905.451 77.08 905.68 77.1173 905.957 77.192L905.925 79.08C905.627 79.016 905.333 78.984 905.045 78.984C903.787 78.984 903.157 79.8533 903.157 81.592V85H901.269V77.208H903.157V78.76Z" fill="#1F1852"/>
</g>
<g filter="url(#filter2_d)">
<circle cx="773" cy="190" r="6" fill="white" fill-opacity="0.4"/>
<line x1="779" y1="189.5" x2="857" y2="189.5" stroke="#28DA8C"/>
<rect x="857" y="168" width="142" height="44" rx="8" fill="#28DA8C"/>
<path d="M881 197.5C881 196.837 881.263 196.201 881.732 195.732C882.201 195.263 882.837 195 883.5 195H897" stroke="#1F1852" stroke-width="2" stroke-linecap="round" stroke-linejoin="round"/>
<path d="M883.5 180H897V200H883.5C882.837 200 882.201 199.737 881.732 199.268C881.263 198.799 881 198.163 881 197.5V182.5C881 181.837 881.263 181.201 881.732 180.732C882.201 180.263 882.837 180 883.5 180V180Z" stroke="#1F1852" stroke-width="2" stroke-linecap="round" stroke-linejoin="round"/>
<path d="M920.2 187.8C920.2 188.536 919.992 189.165 919.576 189.688C919.16 190.211 918.563 190.573 917.784 190.776L920.568 195H918.104L915.816 190.952H914.376V195H912.488V184.616H916.328C917.555 184.616 918.509 184.909 919.192 185.496C919.864 186.061 920.2 186.829 920.2 187.8ZM916.152 189.688C916.845 189.688 917.368 189.533 917.72 189.224C918.072 188.904 918.248 188.488 918.248 187.976C918.248 187.453 918.088 187.037 917.768 186.728C917.448 186.408 916.968 186.248 916.328 186.248H914.376V189.688H916.152ZM927.953 193.592C927.462 194.627 926.673 195.144 925.585 195.144C924.209 195.144 923.302 194.605 922.865 193.528C922.705 193.155 922.625 192.701 922.625 192.168V187.208H924.513V191.976C924.513 192.488 924.636 192.872 924.881 193.128C925.126 193.373 925.425 193.496 925.777 193.496C926.14 193.496 926.444 193.448 926.689 193.352C926.934 193.245 927.148 193.091 927.329 192.888C927.724 192.429 927.932 191.816 927.953 191.048V187.208H929.841V195H927.953V193.592ZM934.672 188.568C935.184 187.533 936.005 187.016 937.136 187.016C938.096 187.016 938.816 187.331 939.296 187.96C939.787 188.589 940.032 189.421 940.032 190.456V195H938.144V190.456C938.144 189.88 938.005 189.448 937.728 189.16C937.451 188.861 937.061 188.712 936.56 188.712C936.059 188.712 935.627 188.936 935.264 189.384C934.912 189.832 934.725 190.504 934.704 191.4V195H932.816V187.224H934.464L934.672 188.568ZM949.313 188.136C949.974 188.883 950.305 189.864 950.305 191.08C950.305 192.296 949.958 193.299 949.265 194.088C948.593 194.845 947.756 195.224 946.753 195.224C946.273 195.224 945.83 195.096 945.425 194.84C945.03 194.584 944.716 194.189 944.481 193.656L944.017 195H942.785V184.024H944.673V188.2C945.164 187.411 945.894 187.016 946.865 187.016C947.846 187.016 948.662 187.389 949.313 188.136ZM944.673 190.632V191.656C944.694 192.2 944.892 192.648 945.265 193C945.617 193.341 946.044 193.512 946.545 193.512C947.057 193.512 947.494 193.293 947.857 192.856C948.22 192.408 948.401 191.821 948.401 191.096C948.401 190.371 948.22 189.795 947.857 189.368C947.505 188.931 947.062 188.712 946.529 188.712C945.996 188.712 945.553 188.888 945.201 189.24C944.849 189.592 944.673 190.056 944.673 190.632ZM955.669 187.016C956.192 187.016 956.682 187.101 957.141 187.272C957.6 187.432 957.994 187.683 958.325 188.024C959.061 188.771 959.429 189.805 959.429 191.128C959.429 192.429 959.061 193.453 958.325 194.2C957.664 194.883 956.778 195.224 955.669 195.224C954.56 195.224 953.664 194.883 952.981 194.2C952.245 193.464 951.877 192.44 951.877 191.128C951.877 189.795 952.245 188.76 952.981 188.024C953.653 187.352 954.549 187.016 955.669 187.016ZM957.541 191.112C957.541 190.291 957.381 189.677 957.061 189.272C956.741 188.856 956.293 188.648 955.717 188.648C955.152 188.648 954.688 188.856 954.325 189.272C953.962 189.677 953.781 190.291 953.781 191.112C953.781 191.933 953.941 192.552 954.261 192.968C954.592 193.373 955.04 193.576 955.605 193.576C956.17 193.576 956.634 193.373 956.997 192.968C957.36 192.552 957.541 191.933 957.541 191.112ZM964.732 187.016C965.254 187.016 965.745 187.101 966.204 187.272C966.662 187.432 967.057 187.683 967.388 188.024C968.124 188.771 968.492 189.805 968.492 191.128C968.492 192.429 968.124 193.453 967.388 194.2C966.726 194.883 965.841 195.224 964.732 195.224C963.622 195.224 962.726 194.883 962.044 194.2C961.308 193.464 960.94 192.44 960.94 191.128C960.94 189.795 961.308 188.76 962.044 188.024C962.716 187.352 963.612 187.016 964.732 187.016ZM966.604 191.112C966.604 190.291 966.444 189.677 966.124 189.272C965.804 188.856 965.356 188.648 964.78 188.648C964.214 188.648 963.75 188.856 963.388 189.272C963.025 189.677 962.844 190.291 962.844 191.112C962.844 191.933 963.004 192.552 963.324 192.968C963.654 193.373 964.102 193.576 964.668 193.576C965.233 193.576 965.697 193.373 966.06 192.968C966.422 192.552 966.604 191.933 966.604 191.112ZM973.49 191.208L972.626 191.928V195H970.738V184.024H972.626V189.96L975.698 187.224H978.258L974.818 190.104L978.45 195H976.146L973.49 191.208Z" fill="#1F1852"/>
</g>
<circle cx="592" cy="461" r="6" fill="white" fill-opacity="0.4"/>
<line x1="598" y1="460.5" x2="743" y2="460.5" stroke="#28DA8C"/>
<rect x="743" y="439" width="134" height="44" rx="8" fill="#28DA8C"/>
<g clip-path="url(#clip1)">
<path d="M779 465L775 461L771 465" stroke="#1F1852" stroke-width="2" stroke-linecap="round" stroke-linejoin="round"/>
<path d="M775 461V470" stroke="#1F1852" stroke-width="2" stroke-linecap="round" stroke-linejoin="round"/>
<path d="M783.39 467.389C784.365 466.858 785.136 466.016 785.58 464.998C786.024 463.98 786.116 462.843 785.842 461.766C785.568 460.69 784.943 459.735 784.067 459.053C783.19 458.371 782.111 458 781 457.999H779.74C779.437 456.829 778.873 455.742 778.09 454.82C777.307 453.899 776.325 453.167 775.218 452.68C774.111 452.193 772.909 451.963 771.7 452.007C770.492 452.052 769.309 452.37 768.241 452.937C767.173 453.505 766.248 454.307 765.535 455.283C764.821 456.26 764.339 457.385 764.123 458.575C763.907 459.765 763.964 460.988 764.289 462.153C764.614 463.317 765.199 464.393 766 465.299" stroke="#1F1852" stroke-width="2" stroke-linecap="round" stroke-linejoin="round"/>
<path d="M779 465L775 461L771 465" stroke="#1F1852" stroke-width="2" stroke-linecap="round" stroke-linejoin="round"/>
</g>
<path d="M801.848 455.616C803.427 455.616 804.701 456.085 805.672 457.024C806.653 457.963 807.144 459.227 807.144 460.816C807.144 462.395 806.653 463.653 805.672 464.592C804.701 465.531 803.427 466 801.848 466H798.472V455.616H801.848ZM800.376 464.288H801.848C802.829 464.288 803.624 463.957 804.232 463.296C804.808 462.656 805.096 461.829 805.096 460.816C805.096 459.781 804.808 458.944 804.232 458.304C803.635 457.653 802.84 457.328 801.848 457.328H800.376V464.288ZM814.881 459.152C815.147 459.493 815.345 459.888 815.473 460.336C815.611 460.784 815.681 461.195 815.681 461.568C815.681 461.941 815.659 462.277 815.617 462.576H810.593C810.614 463.205 810.769 463.717 811.057 464.112C811.345 464.507 811.782 464.704 812.369 464.704C813.147 464.704 813.611 464.363 813.761 463.68H815.665C815.537 464.459 815.179 465.072 814.593 465.52C813.985 465.989 813.243 466.224 812.369 466.224C811.345 466.224 810.486 465.851 809.793 465.104C809.078 464.325 808.721 463.328 808.721 462.112C808.721 460.864 809.078 459.861 809.793 459.104C810.475 458.379 811.334 458.016 812.369 458.016C813.446 458.016 814.283 458.395 814.881 459.152ZM812.385 459.52C811.851 459.52 811.435 459.696 811.137 460.048C810.838 460.389 810.662 460.832 810.609 461.376H813.921C813.921 460.533 813.654 459.968 813.121 459.68C812.918 459.573 812.673 459.52 812.385 459.52ZM819.669 459.28C820.16 458.437 820.906 458.016 821.909 458.016C822.869 458.016 823.69 458.379 824.373 459.104C825.098 459.872 825.461 460.875 825.461 462.112C825.461 463.36 825.093 464.368 824.357 465.136C823.674 465.861 822.858 466.224 821.909 466.224C820.96 466.224 820.266 465.941 819.829 465.376V469.792H817.941V458.224H819.493L819.669 459.28ZM821.573 464.512C821.797 464.512 822.026 464.464 822.261 464.368C822.506 464.272 822.725 464.123 822.917 463.92C823.344 463.472 823.557 462.875 823.557 462.128C823.557 461.371 823.37 460.779 822.997 460.352C822.634 459.925 822.186 459.712 821.653 459.712C821.13 459.712 820.698 459.867 820.357 460.176C820.026 460.475 819.85 460.907 819.829 461.472V462.864C819.829 463.365 820.005 463.771 820.357 464.08C820.688 464.368 821.093 464.512 821.573 464.512ZM827.707 455.024H829.595V466H827.707V455.024ZM835.622 458.016C836.145 458.016 836.635 458.101 837.094 458.272C837.553 458.432 837.947 458.683 838.278 459.024C839.014 459.771 839.382 460.805 839.382 462.128C839.382 463.429 839.014 464.453 838.278 465.2C837.617 465.883 836.731 466.224 835.622 466.224C834.513 466.224 833.617 465.883 832.934 465.2C832.198 464.464 831.83 463.44 831.83 462.128C831.83 460.795 832.198 459.76 832.934 459.024C833.606 458.352 834.502 458.016 835.622 458.016ZM837.494 462.112C837.494 461.291 837.334 460.677 837.014 460.272C836.694 459.856 836.246 459.648 835.67 459.648C835.105 459.648 834.641 459.856 834.278 460.272C833.915 460.677 833.734 461.291 833.734 462.112C833.734 462.933 833.894 463.552 834.214 463.968C834.545 464.373 834.993 464.576 835.558 464.576C836.123 464.576 836.587 464.373 836.95 463.968C837.313 463.552 837.494 462.933 837.494 462.112ZM842.589 458.224L844.461 463.824L846.093 458.224H848.013L845.037 467.408C844.727 468.336 844.349 469.003 843.901 469.408C843.463 469.813 842.903 470.016 842.221 470.016C841.527 470.016 840.834 469.845 840.141 469.504V467.84C840.695 468.192 841.255 468.368 841.821 468.368C842.194 468.368 842.498 468.219 842.733 467.92C842.978 467.621 843.175 467.232 843.325 466.752L843.565 466L840.445 458.224H842.589ZM850.747 463.632C850.768 464.368 851.307 464.736 852.363 464.736C852.768 464.736 853.099 464.651 853.355 464.48C853.622 464.299 853.755 464.091 853.755 463.856C853.755 463.621 853.675 463.44 853.515 463.312C853.355 463.184 853.104 463.067 852.763 462.96L851.067 462.352C849.808 461.915 849.179 461.2 849.179 460.208C849.179 459.547 849.472 459.019 850.059 458.624C850.656 458.219 851.451 458.016 852.443 458.016C853.446 458.016 854.214 458.235 854.747 458.672C855.291 459.109 855.574 459.659 855.595 460.32H853.819C853.798 460.064 853.675 459.861 853.451 459.712C853.227 459.563 852.907 459.488 852.491 459.488C852.075 459.488 851.75 459.573 851.515 459.744C851.291 459.904 851.179 460.091 851.179 460.304C851.179 460.677 851.494 460.955 852.123 461.136L853.963 461.824C854.571 462.027 855.035 462.288 855.355 462.608C855.686 462.917 855.851 463.323 855.851 463.824C855.851 464.464 855.547 465.019 854.939 465.488C854.31 465.979 853.478 466.224 852.443 466.224C851.408 466.224 850.576 466 849.947 465.552C849.318 465.093 848.998 464.453 848.987 463.632H850.747Z" fill="#1F1852"/>
<g filter="url(#filter3_d)">
<rect x="220" y="342" width="156" height="44" rx="8" fill="#28DA8C"/>
<path d="M257 373V371C257 369.939 256.579 368.922 255.828 368.172C255.078 367.421 254.061 367 253 367H245C243.939 367 242.922 367.421 242.172 368.172C241.421 368.922 241 369.939 241 371V373" stroke="#1F1852" stroke-width="2" stroke-linecap="round" stroke-linejoin="round"/>
<path d="M249 363C251.209 363 253 361.209 253 359C253 356.791 251.209 355 249 355C246.791 355 245 356.791 245 359C245 361.209 246.791 363 249 363Z" stroke="#1F1852" stroke-width="2" stroke-linecap="round" stroke-linejoin="round"/>
<path d="M263 373.001V371.001C262.999 370.115 262.704 369.254 262.161 368.553C261.618 367.853 260.858 367.352 260 367.131" stroke="#1F1852" stroke-width="2" stroke-linecap="round" stroke-linejoin="round"/>
<path d="M256 355.131C256.86 355.351 257.623 355.852 258.168 356.553C258.712 357.255 259.008 358.118 259.008 359.006C259.008 359.894 258.712 360.757 258.168 361.459C257.623 362.16 256.86 362.661 256 362.881" stroke="#1F1852" stroke-width="2" stroke-linecap="round" stroke-linejoin="round"/>
<path d="M279.472 358.408C280.165 358.408 280.8 358.525 281.376 358.76C281.952 358.984 282.448 359.32 282.864 359.768C283.739 360.707 284.176 362.051 284.176 363.8C284.176 365.56 283.739 366.92 282.864 367.88C282.032 368.776 280.896 369.224 279.456 369.224C278.027 369.224 276.896 368.765 276.064 367.848C275.189 366.899 274.752 365.549 274.752 363.8C274.752 362.029 275.189 360.675 276.064 359.736C276.885 358.851 278.021 358.408 279.472 358.408ZM282.224 363.832C282.224 362.637 281.973 361.72 281.472 361.08C280.981 360.429 280.315 360.104 279.472 360.104C278.629 360.104 277.957 360.429 277.456 361.08C276.955 361.72 276.704 362.637 276.704 363.832C276.704 365.016 276.955 365.928 277.456 366.568C277.957 367.197 278.629 367.512 279.472 367.512C280.315 367.512 280.981 367.197 281.472 366.568C281.973 365.928 282.224 365.016 282.224 363.832ZM287.098 361.224L288.666 366.776L290.154 361.656H291.866L293.354 366.792L294.938 361.224H296.826L294.266 369H292.41L290.97 364.344L289.562 369H287.69L285.114 361.224H287.098ZM300.391 362.568C300.903 361.533 301.724 361.016 302.855 361.016C303.815 361.016 304.535 361.331 305.015 361.96C305.506 362.589 305.751 363.421 305.751 364.456V369H303.863V364.456C303.863 363.88 303.724 363.448 303.447 363.16C303.17 362.861 302.78 362.712 302.279 362.712C301.778 362.712 301.346 362.936 300.983 363.384C300.631 363.832 300.444 364.504 300.423 365.4V369H298.535V361.224H300.183L300.391 362.568ZM313.928 362.152C314.194 362.493 314.392 362.888 314.52 363.336C314.658 363.784 314.728 364.195 314.728 364.568C314.728 364.941 314.706 365.277 314.664 365.576H309.64C309.661 366.205 309.816 366.717 310.104 367.112C310.392 367.507 310.829 367.704 311.416 367.704C312.194 367.704 312.658 367.363 312.808 366.68H314.712C314.584 367.459 314.226 368.072 313.64 368.52C313.032 368.989 312.29 369.224 311.416 369.224C310.392 369.224 309.533 368.851 308.84 368.104C308.125 367.325 307.768 366.328 307.768 365.112C307.768 363.864 308.125 362.861 308.84 362.104C309.522 361.379 310.381 361.016 311.416 361.016C312.493 361.016 313.33 361.395 313.928 362.152ZM311.432 362.52C310.898 362.52 310.482 362.696 310.184 363.048C309.885 363.389 309.709 363.832 309.656 364.376H312.968C312.968 363.533 312.701 362.968 312.168 362.68C311.965 362.573 311.72 362.52 311.432 362.52ZM318.876 362.76C319.345 361.64 320.049 361.08 320.988 361.08C321.169 361.08 321.399 361.117 321.676 361.192L321.644 363.08C321.345 363.016 321.052 362.984 320.764 362.984C319.505 362.984 318.876 363.853 318.876 365.592V369H316.988V361.208H318.876V362.76ZM324.7 366.632C324.722 367.368 325.26 367.736 326.316 367.736C326.722 367.736 327.052 367.651 327.308 367.48C327.575 367.299 327.708 367.091 327.708 366.856C327.708 366.621 327.628 366.44 327.468 366.312C327.308 366.184 327.058 366.067 326.716 365.96L325.02 365.352C323.762 364.915 323.132 364.2 323.132 363.208C323.132 362.547 323.426 362.019 324.012 361.624C324.61 361.219 325.404 361.016 326.396 361.016C327.399 361.016 328.167 361.235 328.7 361.672C329.244 362.109 329.527 362.659 329.548 363.32H327.772C327.751 363.064 327.628 362.861 327.404 362.712C327.18 362.563 326.86 362.488 326.444 362.488C326.028 362.488 325.703 362.573 325.468 362.744C325.244 362.904 325.132 363.091 325.132 363.304C325.132 363.677 325.447 363.955 326.076 364.136L327.916 364.824C328.524 365.027 328.988 365.288 329.308 365.608C329.639 365.917 329.804 366.323 329.804 366.824C329.804 367.464 329.5 368.019 328.892 368.488C328.263 368.979 327.431 369.224 326.396 369.224C325.362 369.224 324.53 369 323.9 368.552C323.271 368.093 322.951 367.453 322.94 366.632H324.7ZM333.97 362.488C334.503 361.507 335.282 361.016 336.306 361.016C337.33 361.016 338.082 361.331 338.562 361.96C339.052 362.589 339.298 363.421 339.298 364.456V369H337.41V364.456C337.41 363.88 337.271 363.448 336.994 363.16C336.716 362.861 336.327 362.712 335.826 362.712C335.324 362.712 334.892 362.936 334.53 363.384C334.178 363.832 333.991 364.504 333.97 365.4V369H332.082V358.024H333.97V362.488ZM342.211 361.208H344.099V369H342.211V361.208ZM341.987 358.712C341.987 358.371 342.088 358.104 342.291 357.912C342.493 357.709 342.781 357.608 343.155 357.608C343.517 357.608 343.8 357.709 344.003 357.912C344.216 358.104 344.323 358.371 344.323 358.712C344.323 359.053 344.216 359.325 344.003 359.528C343.8 359.72 343.517 359.816 343.155 359.816C342.781 359.816 342.493 359.72 342.291 359.528C342.088 359.325 341.987 359.053 341.987 358.712ZM349.029 362.28C349.519 361.437 350.266 361.016 351.269 361.016C352.229 361.016 353.05 361.379 353.733 362.104C354.458 362.872 354.821 363.875 354.821 365.112C354.821 366.36 354.453 367.368 353.717 368.136C353.034 368.861 352.218 369.224 351.269 369.224C350.319 369.224 349.626 368.941 349.189 368.376V372.792H347.301V361.224H348.853L349.029 362.28ZM350.933 367.512C351.157 367.512 351.386 367.464 351.621 367.368C351.866 367.272 352.085 367.123 352.277 366.92C352.703 366.472 352.917 365.875 352.917 365.128C352.917 364.371 352.73 363.779 352.357 363.352C351.994 362.925 351.546 362.712 351.013 362.712C350.49 362.712 350.058 362.867 349.717 363.176C349.386 363.475 349.21 363.907 349.189 364.472V365.864C349.189 366.365 349.365 366.771 349.717 367.08C350.047 367.368 350.453 367.512 350.933 367.512Z" fill="#1F1852"/>
<line x1="375" y1="363.5" x2="428" y2="363.5" stroke="#28DA8C"/>
<circle cx="434" cy="362" r="6" fill="white" fill-opacity="0.4"/>
</g>
<g filter="url(#filter4_d)">
<rect x="219" y="194" width="109" height="44" rx="8" fill="#E81A38" fill-opacity="0.75"/>
<path d="M259.59 217.41L252.42 224.58C252.234 224.766 252.014 224.913 251.771 225.014C251.528 225.115 251.268 225.167 251.005 225.167C250.742 225.167 250.482 225.115 250.239 225.014C249.996 224.913 249.776 224.766 249.59 224.58L241 216V206H251L259.59 214.59C259.963 214.965 260.172 215.472 260.172 216C260.172 216.528 259.963 217.035 259.59 217.41V217.41Z" stroke="white" stroke-width="2" stroke-linecap="round" stroke-linejoin="round"/>
<path d="M246 211H246.01" stroke="white" stroke-width="2" stroke-linecap="round" stroke-linejoin="round"/>
<path d="M273.096 210.616H281.416V212.248H278.2V221H276.312V212.248H273.096V210.616ZM284.048 216.456C284.667 216.456 285.381 216.557 286.192 216.76V215.992C286.192 215.448 286.08 215.048 285.856 214.792C285.643 214.525 285.285 214.392 284.784 214.392C284.293 214.392 283.915 214.493 283.648 214.696C283.381 214.888 283.248 215.165 283.248 215.528H281.184C281.184 214.643 281.493 214.003 282.112 213.608C282.741 213.213 283.616 213.016 284.736 213.016C286.336 213.016 287.371 213.576 287.84 214.696C288 215.08 288.08 215.533 288.08 216.056V221H286.432L286.288 219.96C285.787 220.803 285.019 221.224 283.984 221.224C282.981 221.224 282.203 220.979 281.648 220.488C281.136 220.019 280.88 219.427 280.88 218.712C280.88 217.987 281.163 217.432 281.728 217.048C282.293 216.653 283.067 216.456 284.048 216.456ZM286.192 217.96C285.563 217.789 284.976 217.704 284.432 217.704C283.408 217.704 282.896 218.045 282.896 218.728C282.896 219.016 283.013 219.267 283.248 219.48C283.483 219.683 283.856 219.784 284.368 219.784C284.891 219.784 285.317 219.613 285.648 219.272C285.989 218.92 286.171 218.483 286.192 217.96ZM291.504 217.816C290.874 217.283 290.56 216.616 290.56 215.816C290.56 214.973 290.89 214.291 291.552 213.768C292.192 213.267 292.922 213.016 293.744 213.016C294.576 213.016 295.269 213.171 295.824 213.48C295.888 212.872 296.149 212.381 296.608 212.008C297.056 211.635 297.584 211.448 298.192 211.448L298.096 213.256C297.178 213.256 296.704 213.56 296.672 214.168C297.066 214.659 297.264 215.16 297.264 215.672C297.264 216.184 297.173 216.616 296.992 216.968C296.81 217.309 296.565 217.597 296.256 217.832C295.616 218.344 294.837 218.6 293.92 218.6C293.397 218.6 292.922 218.52 292.496 218.36C292.069 218.488 291.856 218.744 291.856 219.128C291.856 219.608 292.261 219.848 293.072 219.848H295.68C297.45 219.848 298.336 220.467 298.336 221.704C298.336 222.12 298.229 222.525 298.016 222.92C297.813 223.325 297.514 223.683 297.12 223.992C296.245 224.675 295.146 225.016 293.824 225.016C292.544 225.016 291.504 224.755 290.704 224.232C289.957 223.731 289.584 223.117 289.584 222.392C289.584 221.912 289.728 221.528 290.016 221.24C290.314 220.963 290.704 220.787 291.184 220.712C290.554 220.328 290.24 219.853 290.24 219.288C290.24 218.915 290.357 218.605 290.592 218.36C290.826 218.104 291.13 217.923 291.504 217.816ZM292.944 221.176C291.941 221.219 291.44 221.597 291.44 222.312C291.44 222.675 291.648 222.963 292.064 223.176C292.49 223.4 292.992 223.512 293.568 223.512C294.144 223.512 294.592 223.464 294.912 223.368C295.242 223.272 295.52 223.144 295.744 222.984C296.224 222.664 296.464 222.28 296.464 221.832C296.464 221.64 296.394 221.48 296.256 221.352C296.128 221.235 295.936 221.176 295.68 221.176H292.944ZM295.392 215.8C295.392 215.363 295.269 215.011 295.024 214.744C294.789 214.467 294.426 214.328 293.936 214.328C293.445 214.328 293.072 214.467 292.816 214.744C292.56 215.011 292.432 215.363 292.432 215.8C292.432 216.227 292.56 216.579 292.816 216.856C293.072 217.133 293.445 217.272 293.936 217.272C294.426 217.272 294.789 217.133 295.024 216.856C295.269 216.579 295.392 216.227 295.392 215.8ZM301.2 218.632C301.222 219.368 301.76 219.736 302.816 219.736C303.222 219.736 303.552 219.651 303.808 219.48C304.075 219.299 304.208 219.091 304.208 218.856C304.208 218.621 304.128 218.44 303.968 218.312C303.808 218.184 303.558 218.067 303.216 217.96L301.52 217.352C300.262 216.915 299.632 216.2 299.632 215.208C299.632 214.547 299.926 214.019 300.512 213.624C301.11 213.219 301.904 213.016 302.896 213.016C303.899 213.016 304.667 213.235 305.2 213.672C305.744 214.109 306.027 214.659 306.048 215.32H304.272C304.251 215.064 304.128 214.861 303.904 214.712C303.68 214.563 303.36 214.488 302.944 214.488C302.528 214.488 302.203 214.573 301.968 214.744C301.744 214.904 301.632 215.091 301.632 215.304C301.632 215.677 301.947 215.955 302.576 216.136L304.416 216.824C305.024 217.027 305.488 217.288 305.808 217.608C306.139 217.917 306.304 218.323 306.304 218.824C306.304 219.464 306 220.019 305.392 220.488C304.763 220.979 303.931 221.224 302.896 221.224C301.862 221.224 301.03 221 300.4 220.552C299.771 220.093 299.451 219.453 299.44 218.632H301.2Z" fill="white"/>
<line x1="328.002" y1="215.502" x2="407.002" y2="215.502" stroke="#E81A38"/>
<circle cx="413.002" cy="216.002" r="6" fill="#E81A38"/>
</g>
<g filter="url(#filter5_d)">
<rect x="300" y="71" width="119" height="44" rx="8" fill="#E81A38" fill-opacity="0.75"/>
<path d="M342 93H338L335 102L329 84L326 93H322" stroke="white" stroke-width="2" stroke-linecap="round" stroke-linejoin="round"/>
<path d="M357.888 87.616H360.256L363.664 98H361.664L360.944 95.76H357.088L356.352 98H354.352L357.888 87.616ZM357.568 94.336H360.48L359.04 89.872L357.568 94.336ZM365.504 87.024H367.392V98H365.504V87.024ZM375.787 91.152C376.054 91.4933 376.251 91.888 376.379 92.336C376.518 92.784 376.587 93.1947 376.587 93.568C376.587 93.9413 376.566 94.2773 376.523 94.576H371.499C371.52 95.2053 371.675 95.7173 371.963 96.112C372.251 96.5067 372.688 96.704 373.275 96.704C374.054 96.704 374.518 96.3627 374.667 95.68H376.571C376.443 96.4587 376.086 97.072 375.499 97.52C374.891 97.9893 374.15 98.224 373.275 98.224C372.251 98.224 371.392 97.8507 370.699 97.104C369.984 96.3253 369.627 95.328 369.627 94.112C369.627 92.864 369.984 91.8613 370.699 91.104C371.382 90.3787 372.24 90.016 373.275 90.016C374.352 90.016 375.19 90.3947 375.787 91.152ZM373.291 91.52C372.758 91.52 372.342 91.696 372.043 92.048C371.744 92.3893 371.568 92.832 371.515 93.376H374.827C374.827 92.5333 374.56 91.968 374.027 91.68C373.824 91.5733 373.579 91.52 373.291 91.52ZM380.735 91.76C381.205 90.64 381.909 90.08 382.847 90.08C383.029 90.08 383.258 90.1173 383.535 90.192L383.503 92.08C383.205 92.016 382.911 91.984 382.623 91.984C381.365 91.984 380.735 92.8533 380.735 94.592V98H378.847V90.208H380.735V91.76ZM389.888 97.808C389.184 98.0853 388.629 98.224 388.224 98.224C387.818 98.224 387.461 98.176 387.152 98.08C386.853 97.984 386.586 97.84 386.352 97.648C385.861 97.2107 385.616 96.608 385.616 95.84V91.488H384.528V90.224H385.616V88.176H387.504V90.224H389.616V91.488H387.504V95.776C387.504 96.416 387.808 96.736 388.416 96.736C388.725 96.736 389.125 96.6507 389.616 96.48L389.888 97.808ZM392.872 95.632C392.893 96.368 393.432 96.736 394.488 96.736C394.893 96.736 395.224 96.6507 395.48 96.48C395.747 96.2987 395.88 96.0907 395.88 95.856C395.88 95.6213 395.8 95.44 395.64 95.312C395.48 95.184 395.229 95.0667 394.888 94.96L393.192 94.352C391.933 93.9147 391.304 93.2 391.304 92.208C391.304 91.5467 391.597 91.0187 392.184 90.624C392.781 90.2187 393.576 90.016 394.568 90.016C395.571 90.016 396.339 90.2347 396.872 90.672C397.416 91.1093 397.699 91.6587 397.72 92.32H395.944C395.923 92.064 395.8 91.8613 395.576 91.712C395.352 91.5627 395.032 91.488 394.616 91.488C394.2 91.488 393.875 91.5733 393.64 91.744C393.416 91.904 393.304 92.0907 393.304 92.304C393.304 92.6773 393.619 92.9547 394.248 93.136L396.088 93.824C396.696 94.0267 397.16 94.288 397.48 94.608C397.811 94.9173 397.976 95.3227 397.976 95.824C397.976 96.464 397.672 97.0187 397.064 97.488C396.435 97.9787 395.603 98.224 394.568 98.224C393.533 98.224 392.701 98 392.072 97.552C391.443 97.0933 391.123 96.4533 391.112 95.632H392.872Z" fill="white"/>
<line x1="419.002" y1="92.502" x2="498.002" y2="92.502" stroke="#E81A38"/>
<circle cx="504.002" cy="93.002" r="6" fill="#E81A38"/>
</g>
<g filter="url(#filter6_d)">
<circle cx="778" cy="333" r="6" fill="white" fill-opacity="0.4"/>
<line x1="784" y1="332.5" x2="862" y2="332.5" stroke="#28DA8C"/>
<rect x="862" y="311" width="158" height="44" rx="8" fill="#28DA8C"/>
<path d="M902 324H886C884.895 324 884 324.895 884 326V336C884 337.105 884.895 338 886 338H902C903.105 338 904 337.105 904 336V326C904 324.895 903.105 324 902 324Z" stroke="#1F1852" stroke-width="2" stroke-linecap="round" stroke-linejoin="round"/>
<path d="M890 342H898" stroke="#1F1852" stroke-width="2" stroke-linecap="round" stroke-linejoin="round"/>
<path d="M894 338V342" stroke="#1F1852" stroke-width="2" stroke-linecap="round" stroke-linejoin="round"/>
<path d="M920.848 327.616C922.427 327.616 923.701 328.085 924.672 329.024C925.653 329.963 926.144 331.227 926.144 332.816C926.144 334.395 925.653 335.653 924.672 336.592C923.701 337.531 922.427 338 920.848 338H917.472V327.616H920.848ZM919.376 336.288H920.848C921.829 336.288 922.624 335.957 923.232 335.296C923.808 334.656 924.096 333.829 924.096 332.816C924.096 331.781 923.808 330.944 923.232 330.304C922.635 329.653 921.84 329.328 920.848 329.328H919.376V336.288ZM931.017 333.456C931.635 333.456 932.35 333.557 933.161 333.76V332.992C933.161 332.448 933.049 332.048 932.825 331.792C932.611 331.525 932.254 331.392 931.753 331.392C931.262 331.392 930.883 331.493 930.617 331.696C930.35 331.888 930.217 332.165 930.217 332.528H928.153C928.153 331.643 928.462 331.003 929.081 330.608C929.71 330.213 930.585 330.016 931.705 330.016C933.305 330.016 934.339 330.576 934.809 331.696C934.969 332.08 935.049 332.533 935.049 333.056V338H933.401L933.257 336.96C932.755 337.803 931.987 338.224 930.953 338.224C929.95 338.224 929.171 337.979 928.617 337.488C928.105 337.019 927.849 336.427 927.849 335.712C927.849 334.987 928.131 334.432 928.697 334.048C929.262 333.653 930.035 333.456 931.017 333.456ZM933.161 334.96C932.531 334.789 931.945 334.704 931.401 334.704C930.377 334.704 929.865 335.045 929.865 335.728C929.865 336.016 929.982 336.267 930.217 336.48C930.451 336.683 930.825 336.784 931.337 336.784C931.859 336.784 932.286 336.613 932.617 336.272C932.958 335.92 933.139 335.483 933.161 334.96ZM938.857 335.632C938.878 336.368 939.417 336.736 940.473 336.736C940.878 336.736 941.209 336.651 941.465 336.48C941.731 336.299 941.865 336.091 941.865 335.856C941.865 335.621 941.785 335.44 941.625 335.312C941.465 335.184 941.214 335.067 940.873 334.96L939.177 334.352C937.918 333.915 937.289 333.2 937.289 332.208C937.289 331.547 937.582 331.019 938.169 330.624C938.766 330.219 939.561 330.016 940.553 330.016C941.555 330.016 942.323 330.235 942.857 330.672C943.401 331.109 943.683 331.659 943.705 332.32H941.929C941.907 332.064 941.785 331.861 941.561 331.712C941.337 331.563 941.017 331.488 940.601 331.488C940.185 331.488 939.859 331.573 939.625 331.744C939.401 331.904 939.289 332.091 939.289 332.304C939.289 332.677 939.603 332.955 940.233 333.136L942.073 333.824C942.681 334.027 943.145 334.288 943.465 334.608C943.795 334.917 943.961 335.323 943.961 335.824C943.961 336.464 943.657 337.019 943.049 337.488C942.419 337.979 941.587 338.224 940.553 338.224C939.518 338.224 938.686 338 938.057 337.552C937.427 337.093 937.107 336.453 937.097 335.632H938.857ZM948.126 331.488C948.659 330.507 949.438 330.016 950.462 330.016C951.486 330.016 952.238 330.331 952.718 330.96C953.209 331.589 953.454 332.421 953.454 333.456V338H951.566V333.456C951.566 332.88 951.427 332.448 951.15 332.16C950.873 331.861 950.483 331.712 949.982 331.712C949.481 331.712 949.049 331.936 948.686 332.384C948.334 332.832 948.147 333.504 948.126 334.4V338H946.238V327.024H948.126V331.488ZM962.735 331.136C963.396 331.883 963.727 332.864 963.727 334.08C963.727 335.296 963.38 336.299 962.687 337.088C962.015 337.845 961.177 338.224 960.175 338.224C959.695 338.224 959.252 338.096 958.847 337.84C958.452 337.584 958.137 337.189 957.903 336.656L957.439 338H956.207V327.024H958.095V331.2C958.585 330.411 959.316 330.016 960.287 330.016C961.268 330.016 962.084 330.389 962.735 331.136ZM958.095 333.632V334.656C958.116 335.2 958.313 335.648 958.687 336C959.039 336.341 959.465 336.512 959.967 336.512C960.479 336.512 960.916 336.293 961.279 335.856C961.641 335.408 961.823 334.821 961.823 334.096C961.823 333.371 961.641 332.795 961.279 332.368C960.927 331.931 960.484 331.712 959.951 331.712C959.417 331.712 958.975 331.888 958.623 332.24C958.271 332.592 958.095 333.056 958.095 333.632ZM969.091 330.016C969.614 330.016 970.104 330.101 970.563 330.272C971.022 330.432 971.416 330.683 971.747 331.024C972.483 331.771 972.851 332.805 972.851 334.128C972.851 335.429 972.483 336.453 971.747 337.2C971.086 337.883 970.2 338.224 969.091 338.224C967.982 338.224 967.086 337.883 966.403 337.2C965.667 336.464 965.299 335.44 965.299 334.128C965.299 332.795 965.667 331.76 966.403 331.024C967.075 330.352 967.971 330.016 969.091 330.016ZM970.963 334.112C970.963 333.291 970.803 332.677 970.483 332.272C970.163 331.856 969.715 331.648 969.139 331.648C968.574 331.648 968.11 331.856 967.747 332.272C967.384 332.677 967.203 333.291 967.203 334.112C967.203 334.933 967.363 335.552 967.683 335.968C968.014 336.373 968.462 336.576 969.027 336.576C969.592 336.576 970.056 336.373 970.419 335.968C970.782 335.552 970.963 334.933 970.963 334.112ZM977.657 333.456C978.276 333.456 978.991 333.557 979.801 333.76V332.992C979.801 332.448 979.689 332.048 979.465 331.792C979.252 331.525 978.895 331.392 978.393 331.392C977.903 331.392 977.524 331.493 977.257 331.696C976.991 331.888 976.857 332.165 976.857 332.528H974.793C974.793 331.643 975.103 331.003 975.721 330.608C976.351 330.213 977.225 330.016 978.345 330.016C979.945 330.016 980.98 330.576 981.449 331.696C981.609 332.08 981.689 332.533 981.689 333.056V338H980.041L979.897 336.96C979.396 337.803 978.628 338.224 977.593 338.224C976.591 338.224 975.812 337.979 975.257 337.488C974.745 337.019 974.489 336.427 974.489 335.712C974.489 334.987 974.772 334.432 975.337 334.048C975.903 333.653 976.676 333.456 977.657 333.456ZM979.801 334.96C979.172 334.789 978.585 334.704 978.041 334.704C977.017 334.704 976.505 335.045 976.505 335.728C976.505 336.016 976.623 336.267 976.857 336.48C977.092 336.683 977.465 336.784 977.977 336.784C978.5 336.784 978.927 336.613 979.257 336.272C979.599 335.92 979.78 335.483 979.801 334.96ZM986.329 331.76C986.798 330.64 987.502 330.08 988.441 330.08C988.622 330.08 988.852 330.117 989.129 330.192L989.097 332.08C988.798 332.016 988.505 331.984 988.217 331.984C986.958 331.984 986.329 332.853 986.329 334.592V338H984.441V330.208H986.329V331.76ZM996.169 336.8C995.689 337.749 994.953 338.224 993.961 338.224C992.969 338.224 992.137 337.845 991.465 337.088C990.772 336.299 990.425 335.296 990.425 334.08C990.425 332.864 990.756 331.877 991.417 331.12C992.068 330.384 992.879 330.016 993.849 330.016C994.82 330.016 995.551 330.405 996.041 331.184V327.024H997.945V338H996.393L996.169 336.8ZM994.201 331.712C993.668 331.712 993.22 331.931 992.857 332.368C992.505 332.795 992.329 333.371 992.329 334.096C992.329 334.821 992.511 335.408 992.873 335.856C993.236 336.293 993.695 336.512 994.249 336.512C994.708 336.512 995.119 336.331 995.481 335.968C995.855 335.595 996.041 335.125 996.041 334.56V333.552C996.02 332.997 995.833 332.544 995.481 332.192C995.161 331.872 994.735 331.712 994.201 331.712Z" fill="#1F1852"/>
</g>
<g opacity="0.9">
<path d="M186.806 337.721C186.806 337.721 193.425 329.351 203.128 329.351L199.953 344.37L197.432 345.405" stroke="#1F1852" stroke-linecap="round" stroke-linejoin="round"/>
<path d="M205.199 369.121C201.913 353.066 194.821 336.656 181.49 337.236" stroke="#1F1852" stroke-linecap="round" stroke-linejoin="round"/>
<path d="M163.642 362.266C162.004 377.737 165.262 395.094 167.689 397.458C171.983 401.636 203.599 402.412 206.649 398.919C207.738 397.67 208.02 388.728 206.665 378.021" stroke="#1F1852" stroke-linecap="round" stroke-linejoin="round"/>
<path d="M174.769 339.031C170.924 341.146 168.22 345.006 166.408 349.776" stroke="#1F1852" stroke-linecap="round" stroke-linejoin="round"/>
<path d="M172.99 329.678C172.99 329.678 175.279 341.576 175.538 343.262C175.697 344.288 179.465 344.252 182.292 343.534" stroke="#1F1852" stroke-linecap="round" stroke-linejoin="round"/>
<path d="M180.775 334.91C181.217 334.907 181.658 334.865 182.092 334.784C187.513 333.759 190.763 326.838 189.351 319.297C188.834 316.356 187.574 313.595 185.691 311.277" stroke="#1F1852" stroke-linecap="round" stroke-linejoin="round"/>
<path d="M170.36 320.531C169.87 320.632 169.41 320.846 169.018 321.157C168.625 321.467 168.31 321.864 168.098 322.318C167.887 322.771 167.784 323.268 167.798 323.768C167.812 324.268 167.943 324.758 168.18 325.199C168.418 325.64 168.755 326.019 169.164 326.306C169.574 326.594 170.045 326.781 170.54 326.854C171.036 326.927 171.541 326.883 172.016 326.726C172.491 326.569 172.923 326.303 173.277 325.95" stroke="#1F1852" stroke-linecap="round" stroke-linejoin="round"/>
<path d="M206.665 378.024C199.927 379.998 191.448 381.794 184.476 381.166C183.194 381.259 179.163 377.834 176.866 375.658" stroke="#1F1852" stroke-linecap="round" stroke-linejoin="round"/>
<path d="M186.839 366.182C188.632 367.491 190.084 369.214 191.07 371.203C193.723 370.724 206.829 368.363 216.361 368.453C217.385 367.35 218.699 366.557 220.152 366.164C223.451 365.208 226.647 366.225 227.288 368.437C227.928 370.649 225.773 373.215 222.472 374.174C220.729 374.686 219.014 374.633 217.691 374.151C214.091 375.642 210.412 376.934 206.67 378.021" stroke="#1F1852" stroke-linecap="round" stroke-linejoin="round"/>
<path d="M228.656 332.281C220.286 331.026 210.242 331.444 202.709 331.863" stroke="#1F1852" stroke-linecap="round" stroke-linejoin="round"/>
<path d="M201.035 342.324C203.717 342.597 229.292 340.904 238.789 340.077C239.895 341.098 241.266 341.787 242.745 342.066C246.108 342.764 249.216 341.502 249.684 339.247C250.152 336.992 247.804 334.601 244.438 333.901C242.661 333.524 240.955 333.711 239.674 334.294C235.969 333.086 232.471 333.075 228.656 332.28" stroke="#1F1852" stroke-linecap="round" stroke-linejoin="round"/>
<path d="M174.605 350.834C170.458 348.986 166.283 348.604 163.553 351.675C157.658 358.319 172.139 377.419 174.931 376.63C178.219 375.7 188.226 366.334 188.305 363.091" stroke="#1F1852" stroke-linecap="round" stroke-linejoin="round"/>
<path d="M166.736 322.937C164.842 321.988 163.148 313.499 166.887 310.011C170.537 306.615 182.702 302.662 187.416 298" stroke="#1F1852" stroke-linecap="round" stroke-linejoin="round"/>
<path d="M185.175 306.291C186.26 305.227 189.248 299.529 189.656 298.045" stroke="#1F1852" stroke-linecap="round" stroke-linejoin="round"/>
<path d="M189.193 307.736C190.308 306.113 190.864 303.527 191.018 301.805" stroke="#1F1852" stroke-linecap="round" stroke-linejoin="round"/>
<path d="M181.533 319.978C181.114 319.978 180.775 319.585 180.775 319.101C180.775 318.617 181.114 318.225 181.533 318.225C181.952 318.225 182.292 318.617 182.292 319.101C182.292 319.585 181.952 319.978 181.533 319.978Z" fill="#1F1852"/>
<path d="M184.609 317.574C184.778 318.505 185.708 320.993 187.092 323.095" stroke="#1F1852" stroke-linecap="round" stroke-linejoin="round"/>
<path d="M184.211 327.458C183.813 327.426 183.429 327.296 183.094 327.079C182.759 326.862 182.483 326.565 182.292 326.215" stroke="#1F1852" stroke-linecap="round" stroke-linejoin="round"/>
<path d="M168.377 397.967C172.532 400.456 186.988 401.542 196.951 400.968V403.634L172.532 491.014H163.358L168.372 397.972L168.377 397.967Z" fill="#1F1852"/>
<path d="M171.222 491.018V497.966L155 502.611L165.414 494.826V491.018" stroke="#1F1852" stroke-linecap="round" stroke-linejoin="round"/>
<path d="M207.548 397.967C203.393 400.456 188.937 401.542 178.974 400.968V403.634L203.393 491.014H212.567L207.553 397.972L207.548 397.967Z" fill="#1F1852"/>
<path d="M204.703 491.018V497.966L221.123 502.611L210.511 494.826V491.018" stroke="#1F1852" stroke-linecap="round" stroke-linejoin="round"/>
</g>
<path d="M1058.93 364.096C1055.77 364.725 1050.56 366.215 1046.45 368.388" stroke="#1F1852" stroke-linecap="round" stroke-linejoin="round"/>
<path fill-rule="evenodd" clip-rule="evenodd" d="M1025.59 531.328L1025.99 540.999L1009.83 540.901C1009.72 540.975 1019.76 535.126 1019.76 535.126L1019.6 531.328H1025.59Z" stroke="#1F1852" stroke-linecap="round" stroke-linejoin="round"/>
<path fill-rule="evenodd" clip-rule="evenodd" d="M1082.04 518.887L1088 530.287L1081.14 540.009L1074.65 540.053L1077.34 535.619L1079.64 529.901L1076.63 523.423L1082.04 518.887Z" stroke="#1F1852" stroke-linecap="round" stroke-linejoin="round"/>
<path d="M1052.57 365.823C1050.4 365.708 1047.98 365.563 1047.05 365.065C1045.49 364.229 1026.14 349.731 1024.19 347.758C1022.25 345.785 1019.84 344.072 1018.1 341.926C1016.36 339.78 1018.04 345.727 1019.56 346.898C1019.74 348.489 1019.78 351.82 1019.78 351.82C1020.19 351.749 1020.6 351.764 1020.99 351.864C1021.39 351.964 1021.76 352.146 1022.08 352.399C1022.95 353.076 1033.16 365.028 1037.31 369.892" stroke="#1F1852" stroke-linecap="round" stroke-linejoin="round"/>
<path d="M1037.85 386.788C1035.67 399.989 1033.56 418.576 1036.07 422.685C1039.88 428.941 1066.19 428.677 1071.33 423.958C1073.04 422.391 1074.06 401.583 1071.76 384.865" stroke="#1F1852" stroke-linecap="round" stroke-linejoin="round"/>
<path d="M1058.93 368.254C1059.97 369.083 1061.42 369.087 1062.61 368.88" stroke="#1F1852" stroke-linecap="round" stroke-linejoin="round"/>
<path d="M1058.93 359.137V365.622" stroke="#1F1852" stroke-linecap="round" stroke-linejoin="round"/>
<path d="M1055.19 336.561C1052.57 338.879 1050.86 342.599 1050.86 346.793C1050.86 353.817 1055.63 359.514 1061.52 359.514C1061.83 359.51 1062.15 359.49 1062.46 359.453" stroke="#1F1852" stroke-linecap="round" stroke-linejoin="round"/>
<path d="M1060.79 349.583C1060.59 350.171 1060.48 350.787 1060.48 351.408C1060.48 353.06 1063.05 359.532 1063.05 363.932C1063.05 367.385 1062.28 369.734 1062.28 372.598C1062.28 380.42 1067.38 385.156 1074.77 385.156C1082.15 385.156 1087.11 377.15 1087.14 370.651C1087.17 362.683 1078.34 352.904 1076.19 346.896C1074.4 341.818 1070.98 332.002 1062.79 332.002C1059.38 331.924 1055.04 334.094 1055.04 335.6C1055.04 337.841 1058.03 342.529 1060.8 345.339" stroke="#1F1852" stroke-linecap="round" stroke-linejoin="round"/>
<path d="M1060.29 349.1C1060.63 349.532 1061.09 349.848 1061.62 350.006C1062.14 350.164 1062.71 350.156 1063.23 349.983C1063.75 349.809 1064.2 349.479 1064.53 349.038C1064.85 348.596 1065.04 348.065 1065.05 347.516C1065.06 346.968 1064.9 346.428 1064.6 345.972C1064.29 345.516 1063.85 345.166 1063.34 344.969C1062.83 344.772 1062.27 344.738 1061.74 344.871C1061.2 345.005 1060.73 345.3 1060.37 345.715" stroke="#1F1852" stroke-linecap="round" stroke-linejoin="round"/>
<path d="M1035.22 385.644C1031.05 386.487 1020.88 388.091 1018.75 387.418C1016.4 386.67 992.165 363.571 990.276 361.861C988.809 360.534 986.195 356.327 984.886 354.223L988.178 352.245C988.872 349.943 988.953 347.333 990.209 347.364C990.886 349.516 989.931 353.575 991.596 356.293C993.509 358.371 1018.91 375.039 1021.58 375.882C1024.24 375.882 1030.09 374.101 1032.69 373.265" stroke="#1F1852" stroke-linecap="round" stroke-linejoin="round"/>
<path fill-rule="evenodd" clip-rule="evenodd" d="M1056.25 373.462C1054.18 364.763 1036.01 369.363 1032.95 371.804C1031.88 375.118 1033.56 384.947 1036.23 386.772C1040.25 387.354 1058.46 382.717 1056.25 373.462Z" stroke="#1F1852" stroke-linecap="round" stroke-linejoin="round"/>
<path fill-rule="evenodd" clip-rule="evenodd" d="M1022 472.512C1022 472.512 1032.91 433.585 1036.14 422.797C1039.57 428.013 1058.82 428.599 1067.7 425.793C1064.77 435.406 1050.26 469.888 1047.81 472.667L1025.96 532.019L1018.93 531.464L1022 472.512Z" fill="#1F1852"/>
<path fill-rule="evenodd" clip-rule="evenodd" d="M1070.89 424.311C1071.83 432.011 1072.62 453.33 1067.54 464.727C1070.06 474.262 1082.89 518.7 1082.89 518.7L1076.52 524.302L1043.64 474.543C1043.64 474.543 1047.91 440.656 1059.52 427.232C1064.47 426.815 1068.81 425.817 1070.89 424.311Z" fill="#1F1852"/>
</g>
<defs>
<filter id="filter0_d" x="386.823" y="61.6387" width="425.177" height="424.361" filterUnits="userSpaceOnUse" color-interpolation-filters="sRGB">
<feFlood flood-opacity="0" result="BackgroundImageFix"/>
<feColorMatrix in="SourceAlpha" type="matrix" values="0 0 0 0 0 0 0 0 0 0 0 0 0 0 0 0 0 0 127 0"/>
<feOffset dy="4"/>
<feGaussianBlur stdDeviation="4"/>
<feColorMatrix type="matrix" values="0 0 0 0 0.249219 0 0 0 0 0.305902 0 0 0 0 0.4125 0 0 0 0.15 0"/>
<feBlend mode="normal" in2="BackgroundImageFix" result="effect1_dropShadow"/>
<feBlend mode="normal" in="SourceGraphic" in2="effect1_dropShadow" result="shape"/>
</filter>
<filter id="filter1_d" x="608" y="54" width="327" height="60" filterUnits="userSpaceOnUse" color-interpolation-filters="sRGB">
<feFlood flood-opacity="0" result="BackgroundImageFix"/>
<feColorMatrix in="SourceAlpha" type="matrix" values="0 0 0 0 0 0 0 0 0 0 0 0 0 0 0 0 0 0 127 0"/>
<feOffset dy="4"/>
<feGaussianBlur stdDeviation="4"/>
<feColorMatrix type="matrix" values="0 0 0 0 0.25098 0 0 0 0 0.305882 0 0 0 0 0.411765 0 0 0 0.15 0"/>
<feBlend mode="normal" in2="BackgroundImageFix" result="effect1_dropShadow"/>
<feBlend mode="normal" in="SourceGraphic" in2="effect1_dropShadow" result="shape"/>
</filter>
<filter id="filter2_d" x="759" y="164" width="248" height="60" filterUnits="userSpaceOnUse" color-interpolation-filters="sRGB">
<feFlood flood-opacity="0" result="BackgroundImageFix"/>
<feColorMatrix in="SourceAlpha" type="matrix" values="0 0 0 0 0 0 0 0 0 0 0 0 0 0 0 0 0 0 127 0"/>
<feOffset dy="4"/>
<feGaussianBlur stdDeviation="4"/>
<feColorMatrix type="matrix" values="0 0 0 0 0.25098 0 0 0 0 0.305882 0 0 0 0 0.411765 0 0 0 0.15 0"/>
<feBlend mode="normal" in2="BackgroundImageFix" result="effect1_dropShadow"/>
<feBlend mode="normal" in="SourceGraphic" in2="effect1_dropShadow" result="shape"/>
</filter>
<filter id="filter3_d" x="212" y="338" width="236" height="60" filterUnits="userSpaceOnUse" color-interpolation-filters="sRGB">
<feFlood flood-opacity="0" result="BackgroundImageFix"/>
<feColorMatrix in="SourceAlpha" type="matrix" values="0 0 0 0 0 0 0 0 0 0 0 0 0 0 0 0 0 0 127 0"/>
<feOffset dy="4"/>
<feGaussianBlur stdDeviation="4"/>
<feColorMatrix type="matrix" values="0 0 0 0 0.25098 0 0 0 0 0.305882 0 0 0 0 0.411765 0 0 0 0.15 0"/>
<feBlend mode="normal" in2="BackgroundImageFix" result="effect1_dropShadow"/>
<feBlend mode="normal" in="SourceGraphic" in2="effect1_dropShadow" result="shape"/>
</filter>
<filter id="filter4_d" x="211" y="190" width="216.002" height="60" filterUnits="userSpaceOnUse" color-interpolation-filters="sRGB">
<feFlood flood-opacity="0" result="BackgroundImageFix"/>
<feColorMatrix in="SourceAlpha" type="matrix" values="0 0 0 0 0 0 0 0 0 0 0 0 0 0 0 0 0 0 127 0"/>
<feOffset dy="4"/>
<feGaussianBlur stdDeviation="4"/>
<feColorMatrix type="matrix" values="0 0 0 0 0.25098 0 0 0 0 0.305882 0 0 0 0 0.411765 0 0 0 0.15 0"/>
<feBlend mode="normal" in2="BackgroundImageFix" result="effect1_dropShadow"/>
<feBlend mode="normal" in="SourceGraphic" in2="effect1_dropShadow" result="shape"/>
</filter>
<filter id="filter5_d" x="292" y="67" width="226.002" height="60" filterUnits="userSpaceOnUse" color-interpolation-filters="sRGB">
<feFlood flood-opacity="0" result="BackgroundImageFix"/>
<feColorMatrix in="SourceAlpha" type="matrix" values="0 0 0 0 0 0 0 0 0 0 0 0 0 0 0 0 0 0 127 0"/>
<feOffset dy="4"/>
<feGaussianBlur stdDeviation="4"/>
<feColorMatrix type="matrix" values="0 0 0 0 0.25098 0 0 0 0 0.305882 0 0 0 0 0.411765 0 0 0 0.15 0"/>
<feBlend mode="normal" in2="BackgroundImageFix" result="effect1_dropShadow"/>
<feBlend mode="normal" in="SourceGraphic" in2="effect1_dropShadow" result="shape"/>
</filter>
<filter id="filter6_d" x="764" y="307" width="264" height="60" filterUnits="userSpaceOnUse" color-interpolation-filters="sRGB">
<feFlood flood-opacity="0" result="BackgroundImageFix"/>
<feColorMatrix in="SourceAlpha" type="matrix" values="0 0 0 0 0 0 0 0 0 0 0 0 0 0 0 0 0 0 127 0"/>
<feOffset dy="4"/>
<feGaussianBlur stdDeviation="4"/>
<feColorMatrix type="matrix" values="0 0 0 0 0.25098 0 0 0 0 0.305882 0 0 0 0 0.411765 0 0 0 0.15 0"/>
<feBlend mode="normal" in2="BackgroundImageFix" result="effect1_dropShadow"/>
<feBlend mode="normal" in="SourceGraphic" in2="effect1_dropShadow" result="shape"/>
</filter>
<clipPath id="clip0">
<rect width="1200" height="600" fill="white"/>
</clipPath>
<clipPath id="clip1">
<rect width="24" height="24" fill="white" transform="translate(763 449)"/>
</clipPath>
</defs>
</svg>
